<svg width="20" height="20" viewBox="0 0 20 20" fill="none" xmlns="http://www.w3.org/2000/svg">
<circle cx="7" cy="10.0001" r="2" fill="#D9355D"/>
<circle cx="13" cy="10.0001" r="2" fill="#4F9170"/>
<path d="M1.69696 1.00313L6.68888 1.02873M6.68888 1.02873L6.66329 6.02067M6.68888 1.02873L3.48962 4.19237C2.46025 5.21122 1.71725 6.4831 1.33529 7.88016C0.953332 9.27721 0.945887 10.7502 1.31371 12.151C1.68152 13.5519 2.41164 14.8312 3.43065 15.8604C4.44967 16.8896 5.72168 17.6324 7.1188 18.0142M13.4555 13.4825L13.4299 18.4745L16.6292 15.3098C17.6585 14.291 18.4015 13.0191 18.7835 11.6221C19.1655 10.225 19.1729 8.75201 18.8051 7.35117C18.4373 5.95032 17.7072 4.67099 16.6881 3.64179C15.6691 2.61259 14.3971 1.86978 13 1.48805M18.4218 18.5001L13.4319 18.4745" stroke="#323943" stroke-width="1.5" stroke-linecap="round" stroke-linejoin="round"/>
</svg>
