<svg width="21" height="22" viewBox="0 0 21 22" fill="none" xmlns="http://www.w3.org/2000/svg">
<path d="M8.75 10.9999V11.9166H12.25V10.9999M15.75 17.4166H5.25C5.01794 17.4166 4.79538 17.32 4.63128 17.1481C4.46719 16.9762 4.375 16.743 4.375 16.4999V8.24992H16.625V16.4999C16.625 16.743 16.5328 16.9762 16.3687 17.1481C16.2046 17.32 15.9821 17.4166 15.75 17.4166ZM3.5 4.58325H17.5C17.7321 4.58325 17.9546 4.67983 18.1187 4.85174C18.2828 5.02365 18.375 5.2568 18.375 5.49992V7.33325C18.375 7.57637 18.2828 7.80952 18.1187 7.98143C17.9546 8.15334 17.7321 8.24992 17.5 8.24992H3.5C3.26794 8.24992 3.04538 8.15334 2.88128 7.98143C2.71719 7.80952 2.625 7.57637 2.625 7.33325V5.49992C2.625 5.2568 2.71719 5.02365 2.88128 4.85174C3.04538 4.67983 3.26794 4.58325 3.5 4.58325Z" stroke="#323943" stroke-width="2" stroke-linejoin="round"/>
</svg>
