<svg width="18" height="20" viewBox="0 0 18 20" fill="none" xmlns="http://www.w3.org/2000/svg">
<path d="M16 19H2V1H10.0667L16 0.999999V6.31579V19Z" stroke="#0F1922" stroke-width="2"/>
<rect y="6" width="18" height="7" fill="#F1979E"/>
<path d="M5.04199 10.4795H3.95508V9.79395H5.04199C5.20996 9.79395 5.34668 9.7666 5.45215 9.71191C5.55762 9.65527 5.63477 9.57715 5.68359 9.47754C5.73242 9.37793 5.75684 9.26562 5.75684 9.14062C5.75684 9.01367 5.73242 8.89551 5.68359 8.78613C5.63477 8.67676 5.55762 8.58887 5.45215 8.52246C5.34668 8.45605 5.20996 8.42285 5.04199 8.42285H4.25977V12H3.38086V7.73438H5.04199C5.37598 7.73438 5.66211 7.79492 5.90039 7.91602C6.14062 8.03516 6.32422 8.2002 6.45117 8.41113C6.57812 8.62207 6.6416 8.86328 6.6416 9.13477C6.6416 9.41016 6.57812 9.64844 6.45117 9.84961C6.32422 10.0508 6.14062 10.2061 5.90039 10.3154C5.66211 10.4248 5.37598 10.4795 5.04199 10.4795ZM8.55762 12H7.62891L7.63477 11.3145H8.55762C8.78809 11.3145 8.98242 11.2627 9.14062 11.1592C9.29883 11.0537 9.41797 10.9004 9.49805 10.6992C9.58008 10.498 9.62109 10.2549 9.62109 9.96973V9.76172C9.62109 9.54297 9.59766 9.35059 9.55078 9.18457C9.50586 9.01855 9.43848 8.87891 9.34863 8.76562C9.25879 8.65234 9.14844 8.56738 9.01758 8.51074C8.88672 8.45215 8.73633 8.42285 8.56641 8.42285H7.61133V7.73438H8.56641C8.85156 7.73438 9.1123 7.7832 9.34863 7.88086C9.58691 7.97656 9.79297 8.11426 9.9668 8.29395C10.1406 8.47363 10.2744 8.68848 10.3682 8.93848C10.4639 9.18652 10.5117 9.46289 10.5117 9.76758V9.96973C10.5117 10.2725 10.4639 10.5488 10.3682 10.7988C10.2744 11.0488 10.1406 11.2637 9.9668 11.4434C9.79492 11.6211 9.58887 11.7588 9.34863 11.8564C9.11035 11.9521 8.84668 12 8.55762 12ZM8.12695 7.73438V12H7.24805V7.73438H8.12695ZM12.0293 7.73438V12H11.1504V7.73438H12.0293ZM13.7285 9.55664V10.2422H11.7891V9.55664H13.7285ZM13.9336 7.73438V8.42285H11.7891V7.73438H13.9336Z" fill="#0F1922"/>
<path d="M15 14H13V17H11.5524C11.3654 17 11.2807 17.2339 11.4244 17.3536L13.872 19.3933C13.9461 19.4551 14.0539 19.4551 14.128 19.3933L16.5756 17.3536C16.7193 17.2339 16.6346 17 16.4476 17H15V14Z" fill="#B8D4DA"/>
</svg>
