<svg width="18" height="20" viewBox="0 0 18 20" fill="none" xmlns="http://www.w3.org/2000/svg">
<path d="M14.808 7.19244L10.8249 3.26285L12.7481 1.22869C13.7097 0.211443 17.5685 4.23817 16.7312 5.15803L14.808 7.19244Z" stroke="#323943" stroke-width="2"/>
<path d="M14.6387 7.14262L10.8636 3.28593C10.823 3.24439 10.7556 3.24616 10.7171 3.28978L1.99673 13.1887C1.98501 13.202 1.97704 13.2182 1.97363 13.2356L1.02882 18.0616C1.01511 18.1317 1.07706 18.1931 1.14697 18.1788L5.86131 17.2157C5.88263 17.2113 5.90194 17.2002 5.91633 17.1838L14.6423 7.27867C14.6769 7.23938 14.6753 7.18004 14.6387 7.14262Z" stroke="#323943" stroke-width="2"/>
<path d="M1.97852 12.209L6.87268 17.209" stroke="#323943" stroke-width="1.5"/>
</svg>
