<svg width="35" height="35" viewBox="0 0 35 35" fill="none" xmlns="http://www.w3.org/2000/svg">
<path d="M35 17.5C35 27.165 27.165 35 17.5 35C7.83502 35 0 27.165 0 17.5C0 7.83502 7.83502 0 17.5 0C27.165 0 35 7.83502 35 17.5Z" fill="#FAC5C5" fill-opacity="0.74"/>
<path fill-rule="evenodd" clip-rule="evenodd" d="M13.6976 8.47813C14.0727 8.11868 14.5814 7.91675 15.1118 7.91675H19.1118C19.6422 7.91675 20.151 8.11868 20.526 8.47813C20.9011 8.83757 21.1118 9.32508 21.1118 9.83341V11.7501H24.1118C24.6641 11.7501 25.1118 12.1791 25.1118 12.7084C25.1118 13.2377 24.6641 13.6667 24.1118 13.6667V25.1667C24.1118 25.6751 23.9011 26.1626 23.526 26.522C23.151 26.8815 22.6422 27.0834 22.1118 27.0834H12.1118C11.5814 27.0834 11.0727 26.8815 10.6976 26.522C10.3225 26.1626 10.1118 25.6751 10.1118 25.1667V13.6667C9.55953 13.6667 9.11182 13.2377 9.11182 12.7084C9.11182 12.1791 9.55953 11.7501 10.1118 11.7501H13.1118V9.83341C13.1118 9.32508 13.3225 8.83757 13.6976 8.47813ZM15.1118 11.7501H19.1118V9.83341H15.1118V11.7501ZM16.1118 15.5834C16.1118 15.0541 15.6641 14.6251 15.1118 14.6251C14.5595 14.6251 14.1118 15.0541 14.1118 15.5834V23.2501C14.1118 23.7794 14.5595 24.2084 15.1118 24.2084C15.6641 24.2084 16.1118 23.7794 16.1118 23.2501V15.5834ZM20.1118 15.5834C20.1118 15.0541 19.6641 14.6251 19.1118 14.6251C18.5595 14.6251 18.1118 15.0541 18.1118 15.5834V23.2501C18.1118 23.7794 18.5595 24.2084 19.1118 24.2084C19.6641 24.2084 20.1118 23.7794 20.1118 23.2501V15.5834Z" fill="#DC2626"/>
</svg>
