<svg width="32" height="32" viewBox="0 0 32 32" fill="none" xmlns="http://www.w3.org/2000/svg">
<g filter="url(#filter0_d_2515_654)">
<path d="M25.6 10.2856C26.2365 10.2856 26.847 10.5265 27.2971 10.9551C27.7471 11.3838 28 11.9651 28 12.5714V13.1428C28 15.0788 25.3036 19.4171 23.2204 21.1234L23.2 21.1382V21.7142C23.2002 22.2909 22.9715 22.8463 22.5598 23.2691C22.1481 23.692 21.5838 23.951 20.98 23.9942L20.8 23.9999H11.2C10.5635 23.9999 9.95303 23.7591 9.50294 23.3305C9.05286 22.9018 8.8 22.3204 8.8 21.7142V21.1474L8.722 21.0868C6.61 19.3771 4.1692 15.4125 4.0084 13.3496L4 13.1428V12.5714C4 11.9651 4.25286 11.3838 4.70294 10.9551C5.15303 10.5265 5.76348 10.2856 6.4 10.2856H25.6Z" fill="#D7E5FF"/>
</g>
<path d="M18.4548 3.14832C18.5306 3.11174 18.6167 3.10134 18.6956 3.11926C18.7744 3.13717 18.8401 3.18204 18.8791 3.24469C18.9181 3.30735 18.9275 3.38306 18.9055 3.45636C18.8834 3.52966 18.8315 3.59502 18.7604 3.63908L18.7266 3.65769C18.5206 3.75733 18.4256 4.02568 18.4349 4.2961C18.5756 4.12744 18.7508 3.98333 18.95 3.87257L19.0277 3.83242C19.9138 3.40365 21.0603 3.82719 21.5041 4.65925C21.986 5.56262 22.1204 6.23935 21.9495 7.19234C21.7524 8.00892 21.1074 8.48187 20.2122 8.4283C20.1941 8.42741 20.1757 8.43094 20.1589 8.43851C20.142 8.44609 20.1274 8.45743 20.1166 8.47134C19.6303 9.19624 18.849 9.41374 18.0243 9.07676C17.1319 8.65364 16.6369 8.15107 16.1549 7.24744L16.1259 7.19033C15.7258 6.36465 16.0481 5.27405 16.9141 4.85505C17.1935 4.71989 17.504 4.66287 17.8205 4.67026C17.6801 4.11337 17.8456 3.44308 18.4548 3.14832ZM17.2005 5.72706C16.9129 6.14113 16.8962 6.5344 17.1388 6.98926C17.1748 7.05681 17.2407 7.10644 17.3219 7.12724C17.4031 7.14804 17.493 7.13829 17.5718 7.10016C17.6507 7.06202 17.7119 6.99862 17.7422 6.92389C17.7724 6.84916 17.7692 6.76923 17.7332 6.70169C17.5803 6.41517 17.5884 6.23406 17.7478 6.00442C17.7952 5.93608 17.8119 5.85594 17.7941 5.78161C17.7764 5.70729 17.7256 5.64487 17.653 5.60809C17.5805 5.57131 17.492 5.56318 17.4072 5.58549C17.3223 5.6078 17.248 5.65872 17.2005 5.72706Z" fill="#D7E5FF"/>
<path d="M16.2887 0.000350285C16.4724 0.000316709 16.6525 0.048466 16.8094 0.139515C16.9662 0.230565 17.0936 0.360996 17.1778 0.516497C17.2619 0.671999 17.2994 0.846563 17.2862 1.02104C17.273 1.19551 17.2096 1.36315 17.103 1.50556L17.083 1.52969L17.0953 1.5573C17.5182 2.56892 17.2379 3.80592 16.3611 4.69089L16.2887 4.76167C15.3556 5.65045 14.0148 5.94343 12.9243 5.52983L12.8953 5.5184L12.851 5.54951C12.645 5.68274 12.3942 5.73797 12.1477 5.70441L12.0794 5.69299C11.9192 5.66027 11.7699 5.59056 11.6446 5.48998C11.5193 5.38941 11.4219 5.26105 11.361 5.11621C11.3 4.97136 11.2774 4.81447 11.295 4.65932C11.3126 4.50418 11.3701 4.35555 11.4622 4.2265L11.4948 4.18396L11.4828 4.15698C11.0599 3.14536 11.3402 1.90837 12.2171 1.0234L12.2894 0.952614C13.2226 0.0638346 14.5634 -0.229145 15.6538 0.184455L15.6822 0.196199L15.7235 0.167314C15.8709 0.070911 16.0427 0.013912 16.2211 0.00225483L16.2887 0.000350285Z" fill="#D7E5FF"/>
<path d="M14.5463 6.55366C13.394 6.08751 11.6276 7.2582 10.9241 8.84389C10.3744 10.083 10.8978 11.2889 12.2105 11.8171C13.5408 12.2886 14.8098 11.8309 15.3456 10.6231C16.0485 9.03875 15.6985 7.01982 14.5463 6.55366Z" fill="#D7E5FF"/>
<defs>
<filter id="filter0_d_2515_654" x="0" y="10.2856" width="32" height="21.7144" filterUnits="userSpaceOnUse" color-interpolation-filters="sRGB">
<feFlood flood-opacity="0" result="BackgroundImageFix"/>
<feColorMatrix in="SourceAlpha" type="matrix" values="0 0 0 0 0 0 0 0 0 0 0 0 0 0 0 0 0 0 127 0" result="hardAlpha"/>
<feOffset dy="4"/>
<feGaussianBlur stdDeviation="2"/>
<feComposite in2="hardAlpha" operator="out"/>
<feColorMatrix type="matrix" values="0 0 0 0 0 0 0 0 0 0 0 0 0 0 0 0 0 0 0.25 0"/>
<feBlend mode="normal" in2="BackgroundImageFix" result="effect1_dropShadow_2515_654"/>
<feBlend mode="normal" in="SourceGraphic" in2="effect1_dropShadow_2515_654" result="shape"/>
</filter>
</defs>
</svg>
