<svg width="24" height="24" viewBox="0 0 28 24" fill="none" xmlns="http://www.w3.org/2000/svg">
<g filter="url(#filter0_d_2515_654)">
<path d="M22 12C22.5304 12 23.0391 12.2107 23.4142 12.5858C23.7893 12.9609 24 13.4696 24 14V14.5C24 16.194 21.753 19.99 20.017 21.483L20 21.496V22C20.0002 22.5046 19.8096 22.9906 19.4665 23.3605C19.1234 23.7305 18.6532 23.9572 18.15 23.995L18 24H10C9.46957 24 8.96086 23.7893 8.58579 23.4142C8.21071 23.0391 8 22.5304 8 22V21.504L7.935 21.451C6.175 19.955 4.141 16.486 4.007 14.681L4 14.5V14C4 13.4696 4.21071 12.9609 4.58579 12.5858C4.96086 12.2107 5.46957 12 6 12H22Z" fill="#D7E5FF"/>
</g>
<path d="M16.046 5.75487C16.1092 5.72286 16.1809 5.71377 16.2467 5.72944C16.3124 5.74512 16.3671 5.78437 16.3996 5.8392C16.4321 5.89402 16.4399 5.96027 16.4215 6.02441C16.4032 6.08855 16.3599 6.14573 16.3006 6.18429L16.2725 6.20057C16.1008 6.28776 16.0217 6.52256 16.0294 6.75918C16.1466 6.6116 16.2927 6.48551 16.4586 6.38859L16.5234 6.35346C17.2619 5.97828 18.2172 6.34888 18.5871 7.07693C18.9887 7.86738 19.1007 8.45952 18.9582 9.29339C18.794 10.0079 18.2565 10.4217 17.5105 10.3749C17.4954 10.3741 17.4801 10.3772 17.4661 10.3838C17.452 10.3904 17.4399 10.4003 17.4308 10.4125C17.0256 11.0468 16.3745 11.2371 15.6872 10.9423C14.9436 10.572 14.5311 10.1323 14.1294 9.3416L14.1052 9.29163C13.7718 8.56916 14.0404 7.61488 14.7621 7.24826C14.9949 7.12999 15.2537 7.0801 15.5174 7.08656C15.4004 6.59929 15.5383 6.01279 16.046 5.75487ZM15.0008 8.01127C14.7611 8.37358 14.7471 8.71769 14.9493 9.1157C14.9793 9.1748 15.0342 9.21823 15.1019 9.23642C15.1696 9.25462 15.2445 9.2461 15.3102 9.21273C15.3759 9.17936 15.4269 9.12388 15.4521 9.0585C15.4774 8.99311 15.4747 8.92317 15.4446 8.86407C15.3173 8.61336 15.324 8.4549 15.4568 8.25396C15.4964 8.19417 15.5103 8.12404 15.4954 8.059C15.4806 7.99397 15.4383 7.93935 15.3779 7.90717C15.3174 7.87499 15.2437 7.86787 15.173 7.8874C15.1022 7.90692 15.0403 7.95148 15.0008 8.01127Z" fill="#D7E5FF"/>
<path d="M14.2406 3.00031C14.3937 3.00028 14.5438 3.04241 14.6745 3.12208C14.8052 3.20174 14.9114 3.31587 14.9815 3.45194C15.0516 3.588 15.0828 3.74074 15.0718 3.89341C15.0608 4.04607 15.008 4.19276 14.9191 4.31737L14.9025 4.33848L14.9127 4.36264C15.2652 5.24781 15.0316 6.33018 14.3009 7.10453L14.2406 7.16646C13.463 7.94414 12.3456 8.2005 11.4369 7.8386L11.4127 7.8286L11.3758 7.85582C11.2041 7.9724 10.9952 8.02073 10.7898 7.99136L10.7328 7.98136C10.5993 7.95274 10.4749 7.89174 10.3705 7.80373C10.2661 7.71573 10.185 7.60342 10.1341 7.47668C10.0833 7.34994 10.0645 7.21266 10.0792 7.07691C10.0939 6.94116 10.1417 6.8111 10.2185 6.69819L10.2457 6.66097L10.2357 6.63736C9.88325 5.75219 10.1168 4.66982 10.8475 3.89547L10.9078 3.83354C11.6855 3.05586 12.8028 2.7995 13.7115 3.1614L13.7351 3.17167L13.7696 3.1464C13.8924 3.06205 14.0356 3.01217 14.1842 3.00197L14.2406 3.00031Z" fill="#D7E5FF"/>
<path d="M12.7886 8.73442C11.8283 8.32654 10.3563 9.35089 9.7701 10.7384C9.312 11.8226 9.74819 12.8778 10.8421 13.34C11.9507 13.7525 13.0082 13.352 13.4547 12.2952C14.0405 10.9089 13.7488 9.14231 12.7886 8.73442Z" fill="#D7E5FF"/>
<defs>
<filter id="filter0_d_2515_654" x="0" y="12" width="28" height="20" filterUnits="userSpaceOnUse" color-interpolation-filters="sRGB">
<feFlood flood-opacity="0" result="BackgroundImageFix"/>
<feColorMatrix in="SourceAlpha" type="matrix" values="0 0 0 0 0 0 0 0 0 0 0 0 0 0 0 0 0 0 127 0" result="hardAlpha"/>
<feOffset dy="4"/>
<feGaussianBlur stdDeviation="2"/>
<feComposite in2="hardAlpha" operator="out"/>
<feColorMatrix type="matrix" values="0 0 0 0 0 0 0 0 0 0 0 0 0 0 0 0 0 0 0.25 0"/>
<feBlend mode="normal" in2="BackgroundImageFix" result="effect1_dropShadow_2515_654"/>
<feBlend mode="normal" in="SourceGraphic" in2="effect1_dropShadow_2515_654" result="shape"/>
</filter>
</defs>
</svg>
