<svg width="12" height="12" viewBox="0 0 12 12" fill="none" xmlns="http://www.w3.org/2000/svg">
<g filter="url(#filter0_i_492_485)">
<path d="M4.37969 0H7.62031C8.29231 0 8.82523 -4.84288e-08 9.25415 0.0350769C9.69354 0.0707692 10.0646 0.145846 10.4043 0.318154C10.9542 0.598674 11.4012 1.0461 11.6812 1.59631C11.8542 1.93477 11.9292 2.30646 11.9649 2.74585C12 3.17477 12 3.70769 12 4.37969V7.62031C12 8.29231 12 8.82523 11.9649 9.25415C11.9292 9.69354 11.8542 10.0646 11.6818 10.4043C11.4015 10.9541 10.9543 11.4011 10.4043 11.6812C10.0646 11.8542 9.69354 11.9292 9.25415 11.9649C8.82523 12 8.29231 12 7.62031 12H4.37969C3.70769 12 3.17477 12 2.74585 11.9649C2.30646 11.9292 1.93538 11.8542 1.59631 11.6818C1.04624 11.4016 0.599024 10.9544 0.318769 10.4043C0.145846 10.0646 0.0707692 9.69354 0.0350769 9.25415C-4.84288e-08 8.82523 0 8.29231 0 7.62031V4.37969C0 3.70769 -4.84288e-08 3.17477 0.0350769 2.74585C0.0707692 2.30646 0.145846 1.93538 0.318154 1.59631C0.598569 1.04615 1.04601 0.59892 1.59631 0.318769C1.93477 0.145846 2.30646 0.0707692 2.74585 0.0350769C3.17477 -4.84288e-08 3.70769 0 4.37969 0ZM5.55692 3.52C5.51467 3.47465 5.46372 3.43828 5.4071 3.41306C5.35049 3.38783 5.28937 3.37427 5.2274 3.37317C5.16543 3.37208 5.10387 3.38348 5.0464 3.40669C4.98893 3.42991 4.93673 3.46446 4.8929 3.50828C4.84907 3.55211 4.81452 3.60432 4.79131 3.66179C4.7681 3.71926 4.7567 3.78081 4.75779 3.84278C4.75888 3.90475 4.77245 3.96587 4.79767 4.02249C4.8229 4.0791 4.85927 4.13005 4.90462 4.17231L6.73231 6L4.90462 7.82769C4.85927 7.86995 4.8229 7.9209 4.79767 7.97752C4.77245 8.03413 4.75888 8.09525 4.75779 8.15722C4.7567 8.21919 4.7681 8.28074 4.79131 8.33821C4.81452 8.39568 4.84907 8.44789 4.8929 8.49172C4.93673 8.53554 4.98893 8.57009 5.0464 8.59331C5.10387 8.61652 5.16543 8.62792 5.2274 8.62683C5.28937 8.62573 5.35049 8.61217 5.4071 8.58694C5.46372 8.56172 5.51467 8.52535 5.55692 8.48L7.71077 6.32615C7.7972 6.23962 7.84575 6.12231 7.84575 6C7.84575 5.87769 7.7972 5.76039 7.71077 5.67385L5.55692 3.52Z" fill="#3E5E98"/>
<path d="M4.37969 0H7.62031C8.29231 0 8.82523 -4.84288e-08 9.25415 0.0350769C9.69354 0.0707692 10.0646 0.145846 10.4043 0.318154C10.9542 0.598674 11.4012 1.0461 11.6812 1.59631C11.8542 1.93477 11.9292 2.30646 11.9649 2.74585C12 3.17477 12 3.70769 12 4.37969V7.62031C12 8.29231 12 8.82523 11.9649 9.25415C11.9292 9.69354 11.8542 10.0646 11.6818 10.4043C11.4015 10.9541 10.9543 11.4011 10.4043 11.6812C10.0646 11.8542 9.69354 11.9292 9.25415 11.9649C8.82523 12 8.29231 12 7.62031 12H4.37969C3.70769 12 3.17477 12 2.74585 11.9649C2.30646 11.9292 1.93538 11.8542 1.59631 11.6818C1.04624 11.4016 0.599024 10.9544 0.318769 10.4043C0.145846 10.0646 0.0707692 9.69354 0.0350769 9.25415C-4.84288e-08 8.82523 0 8.29231 0 7.62031V4.37969C0 3.70769 -4.84288e-08 3.17477 0.0350769 2.74585C0.0707692 2.30646 0.145846 1.93538 0.318154 1.59631C0.598569 1.04615 1.04601 0.59892 1.59631 0.318769C1.93477 0.145846 2.30646 0.0707692 2.74585 0.0350769C3.17477 -4.84288e-08 3.70769 0 4.37969 0ZM5.55692 3.52C5.51467 3.47465 5.46372 3.43828 5.4071 3.41306C5.35049 3.38783 5.28937 3.37427 5.2274 3.37317C5.16543 3.37208 5.10387 3.38348 5.0464 3.40669C4.98893 3.42991 4.93673 3.46446 4.8929 3.50828C4.84907 3.55211 4.81452 3.60432 4.79131 3.66179C4.7681 3.71926 4.7567 3.78081 4.75779 3.84278C4.75888 3.90475 4.77245 3.96587 4.79767 4.02249C4.8229 4.0791 4.85927 4.13005 4.90462 4.17231L6.73231 6L4.90462 7.82769C4.85927 7.86995 4.8229 7.9209 4.79767 7.97752C4.77245 8.03413 4.75888 8.09525 4.75779 8.15722C4.7567 8.21919 4.7681 8.28074 4.79131 8.33821C4.81452 8.39568 4.84907 8.44789 4.8929 8.49172C4.93673 8.53554 4.98893 8.57009 5.0464 8.59331C5.10387 8.61652 5.16543 8.62792 5.2274 8.62683C5.28937 8.62573 5.35049 8.61217 5.4071 8.58694C5.46372 8.56172 5.51467 8.52535 5.55692 8.48L7.71077 6.32615C7.7972 6.23962 7.84575 6.12231 7.84575 6C7.84575 5.87769 7.7972 5.76039 7.71077 5.67385L5.55692 3.52Z" fill="#8298C1"/>
</g>
<defs>
<filter id="filter0_i_492_485" x="0" y="0" width="12" height="13.1" filterUnits="userSpaceOnUse" color-interpolation-filters="sRGB">
<feFlood flood-opacity="0" result="BackgroundImageFix"/>
<feBlend mode="normal" in="SourceGraphic" in2="BackgroundImageFix" result="shape"/>
<feColorMatrix in="SourceAlpha" type="matrix" values="0 0 0 0 0 0 0 0 0 0 0 0 0 0 0 0 0 0 127 0" result="hardAlpha"/>
<feOffset dy="2"/>
<feGaussianBlur stdDeviation="0.55"/>
<feComposite in2="hardAlpha" operator="arithmetic" k2="-1" k3="1"/>
<feColorMatrix type="matrix" values="0 0 0 0 0 0 0 0 0 0 0 0 0 0 0 0 0 0 0.25 0"/>
<feBlend mode="normal" in2="shape" result="effect1_innerShadow_492_485"/>
</filter>
</defs>
</svg>
