<svg width="25" height="24" viewBox="0 0 25 24" fill="none" xmlns="http://www.w3.org/2000/svg">
<path fill-rule="evenodd" clip-rule="evenodd" d="M19.7917 18C19.7914 18.5499 19.6336 19.0892 19.3356 19.5589C19.0377 20.0286 18.611 20.4106 18.1021 20.6632C17.5933 20.9158 17.0219 21.0293 16.4505 20.9912C15.879 20.9532 15.3294 20.7651 14.8618 20.4475C14.3941 20.1298 14.0264 19.6949 13.7989 19.1903C13.5713 18.6856 13.4926 18.1306 13.5714 17.5859C13.6501 17.0412 13.8834 16.5277 14.2455 16.1017C14.6077 15.6756 15.0849 15.3533 15.625 15.17V14C15.625 13.7348 15.5153 13.4804 15.3199 13.2929C15.1246 13.1054 14.8596 13 14.5833 13H10.4167C10.1404 13 9.87545 13.1054 9.6801 13.2929C9.48475 13.4804 9.375 13.7348 9.375 14V15.17C10.0703 15.4059 10.6563 15.8702 11.0295 16.4808C11.4027 17.0914 11.539 17.809 11.4144 18.5068C11.2897 19.2046 10.9121 19.8375 10.3483 20.2939C9.78449 20.7502 9.07079 21.0005 8.33333 21.0005C7.59588 21.0005 6.88217 20.7502 6.31836 20.2939C5.75455 19.8375 5.37694 19.2046 5.25228 18.5068C5.12762 17.809 5.26393 17.0914 5.63713 16.4808C6.01032 15.8702 6.59636 15.4059 7.29167 15.17V14C7.29167 13.2044 7.62091 12.4413 8.20696 11.8787C8.79301 11.3161 9.58787 11 10.4167 11H11.4583V8.83C10.763 8.59409 10.177 8.1298 9.80379 7.51919C9.4306 6.90858 9.29429 6.19098 9.41895 5.49321C9.54361 4.79545 9.92122 4.16246 10.485 3.70613C11.0488 3.2498 11.7625 2.99951 12.5 2.99951C13.2375 2.99951 13.9512 3.2498 14.515 3.70613C15.0788 4.16246 15.4564 4.79545 15.5811 5.49321C15.7057 6.19098 15.5694 6.90858 15.1962 7.51919C14.823 8.1298 14.237 8.59409 13.5417 8.83V11H14.5833C15.4121 11 16.207 11.3161 16.793 11.8787C17.3791 12.4413 17.7083 13.2044 17.7083 14V15.17C18.3178 15.377 18.8454 15.7603 19.2185 16.2671C19.5916 16.774 19.7919 17.3794 19.7917 18Z" fill="#D7E5FF"/>
</svg>
