<svg width="40" height="40" viewBox="0 0 40 40" fill="none" xmlns="http://www.w3.org/2000/svg">
<circle cx="20" cy="20" r="20" fill="#848D9C"/>
<circle cx="20.0001" cy="15.7647" r="4.76471" fill="#091B39"/>
<path d="M29 28.9997C29 27.9674 28.7672 26.9453 28.3149 25.9917C27.8626 25.038 27.1997 24.1715 26.364 23.4416C25.5282 22.7117 24.5361 22.1327 23.4442 21.7377C22.3522 21.3427 21.1819 21.8538 20 21.8538C18.8181 21.8538 17.6478 21.3427 16.5558 21.7377C15.4639 22.1327 14.4718 22.7117 13.636 23.4416C12.8003 24.1715 12.1374 25.038 11.6851 25.9917C11.2328 26.9453 11 27.9674 11 28.9997L20 28.9997H29Z" fill="#091B39"/>
</svg>
