<svg width="232" height="21" viewBox="0 0 232 21" fill="none" xmlns="http://www.w3.org/2000/svg">
<path d="M4.23887 0.966797H5.37428L6.39615 1.07682L7.15309 1.22351L7.94788 1.44355L8.85621 1.81029L9.68884 2.25037L10.143 2.54376L10.635 2.9105L11.1649 3.35058L12.0354 4.19408L12.4517 4.70751L12.8301 5.22094L13.2086 5.84439L13.5871 6.68789L13.8899 7.60473L14.0413 8.22818L14.1548 8.92498L14.1926 9.51176V10.3919L14.1548 11.052L14.0034 12.1156L13.5871 13.3992L13.2465 14.1693L13.0194 14.6094L12.6409 15.1595L12.3003 15.5996L11.9975 15.9663L11.6569 16.3331L11.0135 16.9565L10.7107 17.2132L9.99162 17.7267L9.42391 18.0567L8.55343 18.4968L7.83434 18.7535L7.19094 18.9369L6.47184 19.0836L5.18504 19.2303H4.16317L3.1413 19.1203L2.4979 19.0102L1.77881 18.8269L1.05972 18.5335L0.529859 18.2401L0.264929 18.0567L0.037847 17.9467L0 17.8367V2.28705L0.151388 2.14035L0.946176 1.70027L1.70312 1.40688L2.19513 1.26019L3.1413 1.07682L4.23887 0.966797ZM3.82255 3.09387L2.87638 3.27724L2.23298 3.4606L2.15728 3.49728V16.6631L2.23298 16.7365L2.98992 16.9565L3.51977 17.0665L3.82255 17.1032H5.56352L6.05553 17.0299L6.73677 16.8832L7.75864 16.5164L8.51558 16.113L8.96975 15.8196L9.38607 15.4896L9.87808 15.0861L10.3701 14.6094L10.7107 14.1693L11.0892 13.6192L11.392 13.1058L11.7704 12.1889L11.9975 11.1254L12.0354 10.5386V9.54843L11.9597 8.77828L11.6569 7.6414L11.3163 6.87125L10.8621 6.17445L10.5215 5.73437L10.1052 5.25761L9.76454 4.92755L9.34822 4.59749L8.85621 4.23075L8.2885 3.90069L7.49371 3.53395L6.69893 3.27724L5.67706 3.09387H3.82255Z" fill="#A4C7FF"/>
<path d="M20.7777 6.61475H21.2697L22.2537 6.68809L23.0485 6.87146L23.8433 7.16485L24.4867 7.49491L24.9409 7.82498L25.3193 8.11836L25.7357 8.44843L26.0763 8.85184L26.4169 9.21857L26.8711 9.8787L27.136 10.4288L27.4009 11.1256L27.5523 11.7124L27.628 12.2992L27.6659 12.9226V13.7661L27.4766 13.9495H21.0805L19.6044 13.9128H18.3933L16.9173 13.9495L16.993 14.3529L17.2958 15.013L17.6364 15.4898L18.0527 15.9665L18.3555 16.2232L18.8097 16.5533L19.5287 16.8834L20.21 17.0667L21.0805 17.1353L21.0805 17.3234L21.0805 19.2453L20.702 19.1938L19.718 19.0471L18.9989 18.8637L18.4312 18.6437L17.7499 18.277L17.3336 17.9836L16.8038 17.5435L16.2361 16.9934L15.8576 16.5533L15.4413 15.8932L15.0628 15.123L14.8357 14.4629L14.7222 13.9128L14.6465 12.9593L14.6843 12.2258L14.7979 11.5657L14.9493 11.0156L15.1006 10.5755L15.4413 9.8787L15.8576 9.25525L16.1604 8.88851L16.4631 8.55845L16.7659 8.30173L17.0308 8.04502L17.6364 7.60493L18.3555 7.20152L18.7718 7.01816L19.7558 6.72477L20.2478 6.65142L20.7777 6.61475ZM20.4371 8.66847L19.7937 8.81516L19.226 9.0352L18.5447 9.40194L18.1663 9.732L17.977 9.8787L17.7121 10.1721L17.3336 10.6855L17.0687 11.1989L16.9552 11.5657V11.8224L17.0687 11.8957L17.4472 11.9324H18.734L21.0805 11.8957H25.0166C25.1847 11.8922 25.2608 11.8817 25.3193 11.8224C25.3423 11.6873 25.3395 11.6164 25.3193 11.4923L25.0166 10.8322L24.6759 10.3188L24.3353 9.95204L23.919 9.54863L23.2378 9.10855L22.4808 8.81516L21.8753 8.66847C21.3228 8.58448 21.0085 8.57828 20.4371 8.66847Z" fill="#A4C7FF"/>
<path d="M43.8408 17.2393H46.1471V17.4685H43.8408V17.2393Z" fill="#A4C7FF"/>
<path d="M39.8809 17.2393H42.1872V17.4685H39.8809V17.2393Z" fill="#A4C7FF"/>
<path d="M21.4453 0.966797H40.2931H42.1855V3.2589V17.2407H43.8413L43.8129 1.00347H45.0997L45.4025 1.37021L45.7431 1.73694L46.0837 2.14035L46.5 2.58044L46.8407 2.98385L47.2948 3.4606L47.6355 3.86401L48.1275 4.37744L48.4681 4.78085L48.8844 5.22094L49.225 5.62435L49.6792 6.1011L50.0198 6.50451L50.474 7.01795L50.8903 7.45803L51.2309 7.86144L51.6094 8.26485L51.95 8.66826L52.3663 9.10834L52.7069 9.51175L53.1611 10.0252L53.5396 10.4286L53.8802 10.832L54.3344 11.3088L54.5993 11.6021L54.9399 11.9689L55.2805 12.3723L55.6212 12.739L55.9618 13.1424L56.3024 13.5092L56.5673 13.8026L56.908 14.1693L57.1729 14.4994L57.2486 14.536V1.00347L59.5951 1.00347V19.2303H58.384L58.1948 19.0469L57.7785 18.6068L57.4378 18.2034L57.0972 17.8367L56.7566 17.4333L56.2646 16.8832L55.6969 16.2964L55.4319 16.003L54.9778 15.4896L54.6371 15.1228L54.2965 14.7194L53.8045 14.1693L53.4639 13.8026L53.1233 13.3992L52.7826 13.0691L52.3663 12.5557L51.8743 12.0422L51.6094 11.7488L51.1931 11.2721L50.8524 10.8687L50.4361 10.4286L50.0955 10.0252L49.7549 9.65845L49.2629 9.10834L48.9222 8.70493L48.4302 8.1915L48.0896 7.78809L47.749 7.42135L47.4841 7.12797L46.9921 6.57786L46.5757 6.13778L46.1594 5.73437L46.1476 19.2303H46.0837H42.2612L39.8792 19.2463V17.2407L39.8768 3.09387L31.7019 3.05719L31.7397 7.93479L31.7775 19.1936H29.3932V17.6533L29.3553 13.2525L29.3175 3.05719L21.4453 2.98787L21.4453 0.966797Z" fill="#A4C7FF"/>
<path d="M39.8799 2.85645H42.1862V3.08566H39.8799V2.85645Z" fill="#A4C7FF"/>
<path d="M40.1172 0.966797V3.08699H39.8812V0.966797H40.1172Z" fill="#A4C7FF"/>
<path d="M43.842 17.2393H46.1483V19.2448H42.4819H39.8799V18.2535V17.2393H42.1862C42.1862 17.2393 43.2462 17.2437 43.842 17.2393Z" fill="#A4C7FF"/>
<path d="M42.1797 17.2393H43.8378V19.2448H42.1797L42.1797 17.2393Z" fill="#A4C7FF"/>
<path d="M39.8809 0.966797H42.1872V3.08699H39.8809V0.966797Z" fill="#A4C7FF"/>
<path d="M68.7054 8.06447H67.1714V2.90234H68.7734C69.2556 2.90234 69.6682 3.00569 70.0113 3.21237C70.3543 3.41738 70.6173 3.71229 70.8001 4.09709C70.983 4.48022 71.0744 4.93896 71.0744 5.47332C71.0744 6.01104 70.9822 6.47399 70.7977 6.86216C70.6132 7.24864 70.3446 7.54607 69.9918 7.75444C69.6391 7.96112 69.2103 8.06447 68.7054 8.06447ZM67.7734 7.50994H68.6666C69.0776 7.50994 69.4182 7.4276 69.6884 7.26293C69.9587 7.09825 70.1601 6.86384 70.2928 6.55969C70.4255 6.25554 70.4919 5.89342 70.4919 5.47332C70.4919 5.05659 70.4263 4.69783 70.2952 4.39704C70.1642 4.09457 69.9684 3.86268 69.7079 3.70136C69.4473 3.53837 69.1229 3.45687 68.7345 3.45687H67.7734V7.50994Z" fill="#A4C7FF"/>
<path d="M73.5696 8.14513C73.2103 8.14513 72.9005 8.06279 72.6399 7.89811C72.381 7.73175 72.1812 7.49986 72.0404 7.20243C71.9013 6.90333 71.8317 6.55549 71.8317 6.15892C71.8317 5.76235 71.9013 5.41283 72.0404 5.11036C72.1812 4.80621 72.377 4.56928 72.6278 4.39956C72.8802 4.22816 73.1747 4.14246 73.5113 4.14246C73.7055 4.14246 73.8972 4.17607 74.0866 4.24329C74.2759 4.3105 74.4482 4.41973 74.6036 4.57096C74.7589 4.72051 74.8827 4.9188 74.9749 5.16581C75.0672 5.41283 75.1133 5.71698 75.1133 6.07826V6.33032H72.2394V5.81612H74.5307C74.5307 5.59767 74.4887 5.40275 74.4045 5.23135C74.322 5.05995 74.2039 4.92468 74.0501 4.82554C73.898 4.72639 73.7184 4.67682 73.5113 4.67682C73.2831 4.67682 73.0857 4.73564 72.9191 4.85326C72.754 4.96921 72.627 5.12044 72.538 5.30697C72.449 5.49349 72.4045 5.69345 72.4045 5.90686V6.24966C72.4045 6.54204 72.453 6.7899 72.5501 6.99323C72.6488 7.19487 72.7856 7.34863 72.9603 7.45449C73.1351 7.55867 73.3382 7.61076 73.5696 7.61076C73.72 7.61076 73.856 7.58892 73.9773 7.54523C74.1003 7.49986 74.2063 7.43264 74.2953 7.34359C74.3843 7.25284 74.4531 7.14026 74.5016 7.00583L75.055 7.16715C74.9968 7.36207 74.8989 7.53347 74.7613 7.68134C74.6238 7.82753 74.4539 7.9418 74.2516 8.02414C74.0493 8.1048 73.822 8.14513 73.5696 8.14513Z" fill="#A4C7FF"/>
<path d="M75.9846 9.51631V4.19287H76.538V4.80789H76.606C76.6481 4.74068 76.7063 4.65498 76.7808 4.5508C76.8568 4.44493 76.9652 4.35083 77.106 4.26849C77.2484 4.18447 77.441 4.14246 77.6837 4.14246C77.9976 4.14246 78.2743 4.22396 78.5138 4.38696C78.7533 4.54996 78.9402 4.78101 79.0745 5.08011C79.2088 5.37922 79.2759 5.7321 79.2759 6.13875C79.2759 6.54877 79.2088 6.90417 79.0745 7.20495C78.9402 7.50406 78.7541 7.73595 78.5162 7.90063C78.2784 8.06363 78.0041 8.14513 77.6934 8.14513C77.4539 8.14513 77.2622 8.10396 77.1181 8.02162C76.9741 7.9376 76.8633 7.84266 76.7856 7.73679C76.7079 7.62925 76.6481 7.54019 76.606 7.46961H76.5575V9.51631H75.9846ZM76.5478 6.12867C76.5478 6.42106 76.589 6.679 76.6715 6.90249C76.7541 7.1243 76.8746 7.29821 77.0332 7.42424C77.1918 7.54859 77.3859 7.61076 77.6157 7.61076C77.8552 7.61076 78.0551 7.54523 78.2152 7.41416C78.3771 7.28141 78.4984 7.10329 78.5793 6.8798C78.6619 6.65463 78.7031 6.40425 78.7031 6.12867C78.7031 5.85645 78.6627 5.61111 78.5818 5.39267C78.5025 5.17254 78.3819 4.99862 78.2201 4.87091C78.0599 4.74152 77.8584 4.67682 77.6157 4.67682C77.3827 4.67682 77.1869 4.73816 77.0283 4.86083C76.8698 4.98181 76.75 5.15153 76.6691 5.36998C76.5882 5.58675 76.5478 5.83965 76.5478 6.12867Z" fill="#A4C7FF"/>
<path d="M81.2468 8.15521C81.0106 8.15521 80.7962 8.109 80.6036 8.01658C80.4111 7.92248 80.2582 7.7872 80.1449 7.61076C80.0316 7.43264 79.975 7.21756 79.975 6.9655C79.975 6.74369 80.017 6.56389 80.1012 6.4261C80.1853 6.28663 80.2978 6.1774 80.4386 6.09842C80.5794 6.01945 80.7347 5.96063 80.9046 5.92198C81.0761 5.88166 81.2485 5.84973 81.4216 5.8262C81.6481 5.79596 81.8318 5.77327 81.9726 5.75815C82.115 5.74134 82.2185 5.71362 82.2833 5.67497C82.3496 5.63632 82.3828 5.5691 82.3828 5.47332V5.45316C82.3828 5.20446 82.3172 5.01122 82.1862 4.87343C82.0567 4.73564 81.8601 4.66674 81.5964 4.66674C81.3229 4.66674 81.1085 4.72892 80.9531 4.85326C80.7978 4.97761 80.6886 5.11036 80.6255 5.25151L80.0818 5.04987C80.1789 4.81461 80.3083 4.63145 80.4701 4.50038C80.6336 4.36763 80.8116 4.27521 81.0041 4.22312C81.1983 4.16935 81.3892 4.14246 81.5769 4.14246C81.6967 4.14246 81.8342 4.15759 81.9896 4.18783C82.1465 4.2164 82.2978 4.27605 82.4435 4.36679C82.5907 4.45753 82.7129 4.59449 82.81 4.77765C82.9071 4.96081 82.9556 5.20614 82.9556 5.51365V8.06447H82.3828V7.54019H82.3536C82.3148 7.62421 82.2501 7.71411 82.1595 7.80989C82.0689 7.90567 81.9483 7.98717 81.7978 8.05439C81.6473 8.1216 81.4637 8.15521 81.2468 8.15521ZM81.3342 7.62085C81.5608 7.62085 81.7517 7.57464 81.907 7.48222C82.064 7.3898 82.1821 7.27049 82.2614 7.1243C82.3423 6.9781 82.3828 6.82435 82.3828 6.66303V6.11859C82.3585 6.14884 82.3051 6.17656 82.2226 6.20177C82.1417 6.22529 82.0478 6.2463 81.941 6.26478C81.8358 6.28159 81.7331 6.29671 81.6328 6.31015C81.5341 6.32191 81.454 6.332 81.3925 6.3404C81.2436 6.36056 81.1044 6.39333 80.975 6.4387C80.8472 6.48239 80.7436 6.54877 80.6643 6.63783C80.5866 6.72521 80.5478 6.84451 80.5478 6.99575C80.5478 7.20243 80.6214 7.35871 80.7687 7.46457C80.9175 7.56876 81.1061 7.62085 81.3342 7.62085Z" fill="#A4C7FF"/>
<path d="M84.0011 8.06447V4.19287H84.5545V4.77765H84.5934C84.6613 4.58608 84.7843 4.43065 84.9623 4.31134C85.1403 4.19203 85.3409 4.13238 85.5642 4.13238C85.6063 4.13238 85.6589 4.13322 85.722 4.1349C85.7851 4.13658 85.8329 4.1391 85.8652 4.14246V4.7474C85.8458 4.74236 85.8013 4.7348 85.7317 4.72471C85.6638 4.71295 85.5918 4.70707 85.5157 4.70707C85.3345 4.70707 85.1727 4.74656 85.0303 4.82554C84.8895 4.90283 84.7778 5.01038 84.6953 5.14817C84.6144 5.28428 84.5739 5.43972 84.5739 5.61448V8.06447H84.0011Z" fill="#A4C7FF"/>
<path d="M88.3992 4.19287V4.69699H86.4672V4.19287H88.3992ZM87.0303 3.26531H87.6031V6.95542C87.6031 7.12346 87.6266 7.24948 87.6735 7.3335C87.722 7.41584 87.7835 7.47129 87.858 7.49986C87.934 7.52675 88.0141 7.54019 88.0983 7.54019C88.1614 7.54019 88.2131 7.53683 88.2536 7.53011C88.2941 7.52171 88.3264 7.51498 88.3507 7.50994L88.4672 8.0443C88.4284 8.05943 88.3742 8.07455 88.3046 8.08967C88.235 8.10648 88.1468 8.11488 88.04 8.11488C87.8782 8.11488 87.7196 8.07875 87.5643 8.00649C87.4105 7.93424 87.2827 7.82417 87.1808 7.6763C87.0804 7.52843 87.0303 7.3419 87.0303 7.11673V3.26531Z" fill="#A4C7FF"/>
<path d="M90.358 8.15521C90.1217 8.15521 89.9073 8.109 89.7148 8.01658C89.5222 7.92248 89.3693 7.7872 89.256 7.61076C89.1428 7.43264 89.0861 7.21756 89.0861 6.9655C89.0861 6.74369 89.1282 6.56389 89.2123 6.4261C89.2965 6.28663 89.409 6.1774 89.5497 6.09842C89.6905 6.01945 89.8459 5.96063 90.0158 5.92198C90.1873 5.88166 90.3596 5.84973 90.5328 5.8262C90.7593 5.79596 90.943 5.77327 91.0837 5.75815C91.2261 5.74134 91.3297 5.71362 91.3944 5.67497C91.4608 5.63632 91.4939 5.5691 91.4939 5.47332V5.45316C91.4939 5.20446 91.4284 5.01122 91.2973 4.87343C91.1679 4.73564 90.9713 4.66674 90.7075 4.66674C90.434 4.66674 90.2196 4.72892 90.0643 4.85326C89.909 4.97761 89.7997 5.11036 89.7366 5.25151L89.1929 5.04987C89.29 4.81461 89.4195 4.63145 89.5813 4.50038C89.7447 4.36763 89.9227 4.27521 90.1153 4.22312C90.3094 4.16935 90.5004 4.14246 90.6881 4.14246C90.8078 4.14246 90.9454 4.15759 91.1007 4.18783C91.2577 4.2164 91.409 4.27605 91.5546 4.36679C91.7019 4.45753 91.824 4.59449 91.9211 4.77765C92.0182 4.96081 92.0668 5.20614 92.0668 5.51365V8.06447H91.4939V7.54019H91.4648C91.426 7.62421 91.3612 7.71411 91.2706 7.80989C91.18 7.90567 91.0595 7.98717 90.909 8.05439C90.7585 8.1216 90.5748 8.15521 90.358 8.15521ZM90.4454 7.62085C90.6719 7.62085 90.8629 7.57464 91.0182 7.48222C91.1752 7.3898 91.2933 7.27049 91.3726 7.1243C91.4535 6.9781 91.4939 6.82435 91.4939 6.66303V6.11859C91.4697 6.14884 91.4163 6.17656 91.3337 6.20177C91.2528 6.22529 91.159 6.2463 91.0522 6.26478C90.947 6.28159 90.8442 6.29671 90.7439 6.31015C90.6452 6.32191 90.5651 6.332 90.5036 6.3404C90.3548 6.36056 90.2156 6.39333 90.0861 6.4387C89.9583 6.48239 89.8548 6.54877 89.7755 6.63783C89.6978 6.72521 89.659 6.84451 89.659 6.99575C89.659 7.20243 89.7326 7.35871 89.8798 7.46457C90.0287 7.56876 90.2172 7.62085 90.4454 7.62085Z" fill="#A4C7FF"/>
<path d="M93.1123 8.06447V4.19287H93.6657V4.79781H93.7142C93.7919 4.59112 93.9173 4.43065 94.0904 4.31638C94.2636 4.20044 94.4715 4.14246 94.7142 4.14246C94.9602 4.14246 95.1649 4.20044 95.3283 4.31638C95.4934 4.43065 95.622 4.59112 95.7142 4.79781H95.7531C95.8486 4.59785 95.9918 4.43905 96.1827 4.32142C96.3736 4.20212 96.6026 4.14246 96.8696 4.14246C97.2029 4.14246 97.4756 4.25085 97.6876 4.46762C97.8995 4.68271 98.0055 5.01794 98.0055 5.47332V8.06447H97.4327V5.47332C97.4327 5.18766 97.3575 4.98349 97.207 4.86083C97.0565 4.73816 96.8793 4.67682 96.6754 4.67682C96.4133 4.67682 96.2102 4.75916 96.0662 4.92384C95.9222 5.08684 95.8502 5.29352 95.8502 5.5439V8.06447H95.2676V5.41283C95.2676 5.1927 95.1989 5.01542 95.0613 4.88099C94.9238 4.74488 94.7466 4.67682 94.5298 4.67682C94.3809 4.67682 94.2417 4.71799 94.1123 4.80033C93.9845 4.88267 93.8809 4.99694 93.8016 5.14313C93.7239 5.28764 93.6851 5.45484 93.6851 5.64472V8.06447H93.1123Z" fill="#A4C7FF"/>
<path d="M100.616 8.14513C100.257 8.14513 99.9469 8.06279 99.6864 7.89811C99.4275 7.73175 99.2276 7.49986 99.0869 7.20243C98.9477 6.90333 98.8781 6.55549 98.8781 6.15892C98.8781 5.76235 98.9477 5.41283 99.0869 5.11036C99.2276 4.80621 99.4234 4.56928 99.6742 4.39956C99.9267 4.22816 100.221 4.14246 100.558 4.14246C100.752 4.14246 100.944 4.17607 101.133 4.24329C101.322 4.3105 101.495 4.41973 101.65 4.57096C101.805 4.72051 101.929 4.9188 102.021 5.16581C102.114 5.41283 102.16 5.71698 102.16 6.07826V6.33032H99.2859V5.81612H101.577C101.577 5.59767 101.535 5.40275 101.451 5.23135C101.368 5.05995 101.25 4.92468 101.097 4.82554C100.944 4.72639 100.765 4.67682 100.558 4.67682C100.33 4.67682 100.132 4.73564 99.9655 4.85326C99.8005 4.96921 99.6734 5.12044 99.5844 5.30697C99.4954 5.49349 99.4509 5.69345 99.4509 5.90686V6.24966C99.4509 6.54204 99.4995 6.7899 99.5966 6.99323C99.6953 7.19487 99.832 7.34863 100.007 7.45449C100.182 7.55867 100.385 7.61076 100.616 7.61076C100.766 7.61076 100.902 7.58892 101.024 7.54523C101.147 7.49986 101.253 7.43264 101.342 7.34359C101.431 7.25284 101.5 7.14026 101.548 7.00583L102.101 7.16715C102.043 7.36207 101.945 7.53347 101.808 7.68134C101.67 7.82753 101.5 7.9418 101.298 8.02414C101.096 8.1048 100.868 8.14513 100.616 8.14513Z" fill="#A4C7FF"/>
<path d="M103.604 5.73546V8.06447H103.031V4.19287H103.584V4.79781H103.633C103.72 4.60121 103.853 4.44325 104.031 4.32394C104.209 4.20296 104.439 4.14246 104.72 4.14246C104.973 4.14246 105.194 4.19624 105.383 4.30378C105.572 4.40964 105.72 4.57096 105.825 4.78773C105.93 5.00282 105.983 5.27504 105.983 5.60439V8.06447H105.41V5.64472C105.41 5.34057 105.334 5.10364 105.182 4.93392C105.029 4.76252 104.821 4.67682 104.555 4.67682C104.373 4.67682 104.209 4.71799 104.065 4.80033C103.923 4.88267 103.81 5.00282 103.728 5.16077C103.645 5.31873 103.604 5.51029 103.604 5.73546Z" fill="#A4C7FF"/>
<path d="M108.651 4.19287V4.69699H106.719V4.19287H108.651ZM107.282 3.26531H107.855V6.95542C107.855 7.12346 107.878 7.24948 107.925 7.3335C107.973 7.41584 108.035 7.47129 108.109 7.49986C108.185 7.52675 108.266 7.54019 108.35 7.54019C108.413 7.54019 108.465 7.53683 108.505 7.53011C108.546 7.52171 108.578 7.51498 108.602 7.50994L108.719 8.0443C108.68 8.05943 108.626 8.07455 108.556 8.08967C108.486 8.10648 108.398 8.11488 108.291 8.11488C108.13 8.11488 107.971 8.07875 107.816 8.00649C107.662 7.93424 107.534 7.82417 107.432 7.6763C107.332 7.52843 107.282 7.3419 107.282 7.11673V3.26531Z" fill="#A4C7FF"/>
<path d="M110.987 8.14513C110.65 8.14513 110.355 8.06195 110.101 7.89559C109.849 7.72923 109.651 7.4965 109.509 7.19739C109.368 6.89828 109.298 6.54877 109.298 6.14884C109.298 5.74554 109.368 5.39351 109.509 5.09272C109.651 4.79193 109.849 4.55836 110.101 4.392C110.355 4.22564 110.65 4.14246 110.987 4.14246C111.323 4.14246 111.618 4.22564 111.87 4.392C112.124 4.55836 112.322 4.79193 112.463 5.09272C112.605 5.39351 112.676 5.74554 112.676 6.14884C112.676 6.54877 112.605 6.89828 112.463 7.19739C112.322 7.4965 112.124 7.72923 111.87 7.89559C111.618 8.06195 111.323 8.14513 110.987 8.14513ZM110.987 7.61076C111.243 7.61076 111.453 7.54271 111.618 7.4066C111.783 7.27049 111.905 7.09153 111.984 6.86972C112.064 6.64791 112.103 6.40761 112.103 6.14884C112.103 5.89006 112.064 5.64892 111.984 5.42543C111.905 5.20194 111.783 5.0213 111.618 4.88351C111.453 4.74572 111.243 4.67682 110.987 4.67682C110.731 4.67682 110.521 4.74572 110.356 4.88351C110.191 5.0213 110.069 5.20194 109.989 5.42543C109.91 5.64892 109.87 5.89006 109.87 6.14884C109.87 6.40761 109.91 6.64791 109.989 6.86972C110.069 7.09153 110.191 7.27049 110.356 7.4066C110.521 7.54271 110.731 7.61076 110.987 7.61076Z" fill="#A4C7FF"/>
<path d="M68.3559 18.1829C68.0727 18.1829 67.8163 18.1073 67.5865 17.956C67.3583 17.8031 67.1771 17.5788 67.0428 17.283C66.9101 16.9856 66.8438 16.621 66.8438 16.1891C66.8438 15.7455 66.9125 15.3766 67.0501 15.0826C67.1876 14.7868 67.3705 14.5659 67.5986 14.4197C67.8284 14.2718 68.08 14.1979 68.3535 14.1979C68.5622 14.1979 68.7362 14.2348 68.8753 14.3088C69.0161 14.381 69.1294 14.4718 69.2151 14.581C69.3025 14.6885 69.3689 14.7944 69.4142 14.8986H69.4457V12.9577H70.4773V18.1199H69.4579V17.4998H69.4142C69.3656 17.6073 69.2969 17.714 69.2079 17.8199C69.1205 17.9241 69.0064 18.0106 68.8656 18.0795C68.7265 18.1484 68.5566 18.1829 68.3559 18.1829ZM68.6836 17.3284C68.8502 17.3284 68.991 17.2813 69.1059 17.1872C69.2224 17.0915 69.3114 16.9579 69.3729 16.7865C69.436 16.6151 69.4676 16.4143 69.4676 16.1841C69.4676 15.9538 69.4368 15.7539 69.3753 15.5842C69.3138 15.4144 69.2248 15.2834 69.1083 15.191C68.9918 15.0985 68.8502 15.0523 68.6836 15.0523C68.5137 15.0523 68.3705 15.1002 68.254 15.196C68.1375 15.2918 68.0493 15.4245 67.9894 15.5942C67.9295 15.764 67.8996 15.9606 67.8996 16.1841C67.8996 16.4092 67.9295 16.6084 67.9894 16.7814C68.0509 16.9528 68.1391 17.0873 68.254 17.1847C68.3705 17.2805 68.5137 17.3284 68.6836 17.3284Z" fill="#A4C7FF"/>
<path d="M73.0265 18.1955C72.643 18.1955 72.3129 18.1148 72.0362 17.9535C71.7611 17.7905 71.5491 17.5603 71.4002 17.2629C71.2514 16.9638 71.1769 16.61 71.1769 16.2017C71.1769 15.8035 71.2514 15.4539 71.4002 15.1531C71.5491 14.8524 71.7587 14.6179 72.0289 14.4499C72.3007 14.2819 72.6195 14.1979 72.9852 14.1979C73.2312 14.1979 73.4601 14.239 73.6721 14.3214C73.8857 14.402 74.0718 14.5238 74.2304 14.6868C74.3906 14.8498 74.5152 15.0548 74.6042 15.3019C74.6932 15.5472 74.7377 15.8345 74.7377 16.1639V16.4588H71.5896V15.7934H73.7643C73.7643 15.6388 73.732 15.5018 73.6673 15.3825C73.6025 15.2632 73.5127 15.1699 73.3978 15.1027C73.2846 15.0338 73.1527 14.9994 73.0022 14.9994C72.8452 14.9994 72.7061 15.0372 72.5847 15.1128C72.465 15.1868 72.3711 15.2867 72.3032 15.4128C72.2352 15.5371 72.2004 15.6757 72.1988 15.8287V16.4613C72.1988 16.6529 72.2328 16.8184 72.3007 16.9579C72.3703 17.0973 72.4682 17.2049 72.5944 17.2805C72.7206 17.3561 72.8703 17.3939 73.0435 17.3939C73.1583 17.3939 73.2635 17.3771 73.359 17.3435C73.4545 17.3099 73.5362 17.2595 73.6041 17.1923C73.6721 17.1251 73.7239 17.0427 73.7595 16.9453L74.7158 17.0108C74.6673 17.2494 74.5678 17.4578 74.4173 17.6359C74.2684 17.8123 74.0758 17.9501 73.8396 18.0493C73.605 18.1467 73.3339 18.1955 73.0265 18.1955Z" fill="#A4C7FF"/>
<path d="M76.8245 13.8576V12.9577H80.907V13.8576H79.3852V18.1199H78.3463V13.8576H76.8245Z" fill="#A4C7FF"/>
<path d="M82.7183 18.1955C82.3348 18.1955 82.0047 18.1148 81.728 17.9535C81.4529 17.7905 81.241 17.5603 81.0921 17.2629C80.9432 16.9638 80.8688 16.61 80.8688 16.2017C80.8688 15.8035 80.9432 15.4539 81.0921 15.1531C81.241 14.8524 81.4505 14.6179 81.7208 14.4499C81.9926 14.2819 82.3114 14.1979 82.6771 14.1979C82.923 14.1979 83.152 14.239 83.364 14.3214C83.5776 14.402 83.7637 14.5238 83.9222 14.6868C84.0824 14.8498 84.207 15.0548 84.296 15.3019C84.385 15.5472 84.4295 15.8345 84.4295 16.1639V16.4588H81.2814V15.7934H83.4562C83.4562 15.6388 83.4238 15.5018 83.3591 15.3825C83.2944 15.2632 83.2046 15.1699 83.0897 15.1027C82.9764 15.0338 82.8446 14.9994 82.6941 14.9994C82.5371 14.9994 82.3979 15.0372 82.2766 15.1128C82.1568 15.1868 82.063 15.2867 81.995 15.4128C81.9271 15.5371 81.8923 15.6757 81.8907 15.8287V16.4613C81.8907 16.6529 81.9246 16.8184 81.9926 16.9579C82.0622 17.0973 82.1601 17.2049 82.2863 17.2805C82.4125 17.3561 82.5622 17.3939 82.7353 17.3939C82.8502 17.3939 82.9554 17.3771 83.0509 17.3435C83.1463 17.3099 83.2281 17.2595 83.296 17.1923C83.364 17.1251 83.4158 17.0427 83.4514 16.9453L84.4077 17.0108C84.3591 17.2494 84.2596 17.4578 84.1091 17.6359C83.9603 17.8123 83.7677 17.9501 83.5315 18.0493C83.2968 18.1467 83.0258 18.1955 82.7183 18.1955Z" fill="#A4C7FF"/>
<path d="M86.7888 18.1955C86.4069 18.1955 86.0784 18.1115 85.8033 17.9434C85.5299 17.7737 85.3195 17.5384 85.1723 17.2377C85.0266 16.9369 84.9538 16.5907 84.9538 16.1992C84.9538 15.8026 85.0274 15.4548 85.1747 15.1557C85.3235 14.8549 85.5347 14.6205 85.8082 14.4524C86.0816 14.2827 86.4069 14.1979 86.7839 14.1979C87.1092 14.1979 87.394 14.2592 87.6383 14.3819C87.8826 14.5045 88.076 14.6768 88.2184 14.8986C88.3608 15.1204 88.4393 15.3808 88.4538 15.6799H87.4781C87.4506 15.4867 87.3778 15.3313 87.2597 15.2136C87.1431 15.0943 86.9902 15.0347 86.8009 15.0347C86.6407 15.0347 86.5007 15.08 86.381 15.1708C86.2629 15.2598 86.1706 15.3901 86.1043 15.5615C86.038 15.7329 86.0048 15.9404 86.0048 16.1841C86.0048 16.4311 86.0371 16.6411 86.1019 16.8142C86.1682 16.9873 86.2613 17.1192 86.381 17.2099C86.5007 17.3007 86.6407 17.346 86.8009 17.346C86.919 17.346 87.025 17.3208 87.1189 17.2704C87.2143 17.22 87.2928 17.1469 87.3543 17.0511C87.4174 16.9537 87.4587 16.8369 87.4781 16.7008H88.4538C88.4377 16.9965 88.36 17.257 88.2208 17.4821C88.0833 17.7056 87.8932 17.8804 87.6504 18.0064C87.4077 18.1325 87.1205 18.1955 86.7888 18.1955Z" fill="#A4C7FF"/>
<path d="M90.1499 15.8816V18.1199H89.1159V14.2483H90.1013V14.9313H90.145C90.2275 14.7062 90.3659 14.528 90.5601 14.397C90.7542 14.2642 90.9897 14.1979 91.2664 14.1979C91.5253 14.1979 91.751 14.2567 91.9436 14.3743C92.1361 14.4919 92.2858 14.66 92.3926 14.8784C92.4994 15.0952 92.5528 15.354 92.5528 15.6547V18.1199H91.5188V15.8463C91.5204 15.6094 91.4622 15.4245 91.344 15.2918C91.2259 15.1573 91.0633 15.0901 90.8562 15.0901C90.717 15.0901 90.594 15.1212 90.4872 15.1834C90.3821 15.2456 90.2995 15.3363 90.2397 15.4556C90.1814 15.5732 90.1515 15.7152 90.1499 15.8816Z" fill="#A4C7FF"/>
<path d="M95.0522 18.1955C94.6752 18.1955 94.3491 18.1123 94.0741 17.9459C93.8006 17.7779 93.5894 17.5443 93.4406 17.2452C93.2917 16.9444 93.2173 16.5957 93.2173 16.1992C93.2173 15.7993 93.2917 15.4497 93.4406 15.1506C93.5894 14.8498 93.8006 14.6163 94.0741 14.4499C94.3491 14.2819 94.6752 14.1979 95.0522 14.1979C95.4293 14.1979 95.7545 14.2819 96.028 14.4499C96.303 14.6163 96.515 14.8498 96.6639 15.1506C96.8128 15.4497 96.8872 15.7993 96.8872 16.1992C96.8872 16.5957 96.8128 16.9444 96.6639 17.2452C96.515 17.5443 96.303 17.7779 96.028 17.9459C95.7545 18.1123 95.4293 18.1955 95.0522 18.1955ZM95.0571 17.3637C95.2286 17.3637 95.3718 17.3133 95.4867 17.2124C95.6016 17.1099 95.6882 16.9705 95.7464 16.794C95.8063 16.6176 95.8362 16.4168 95.8362 16.1916C95.8362 15.9664 95.8063 15.7656 95.7464 15.5892C95.6882 15.4128 95.6016 15.2733 95.4867 15.1708C95.3718 15.0683 95.2286 15.017 95.0571 15.017C94.8839 15.017 94.7383 15.0683 94.6202 15.1708C94.5037 15.2733 94.4155 15.4128 94.3556 15.5892C94.2974 15.7656 94.2682 15.9664 94.2682 16.1916C94.2682 16.4168 94.2974 16.6176 94.3556 16.794C94.4155 16.9705 94.5037 17.1099 94.6202 17.2124C94.7383 17.3133 94.8839 17.3637 95.0571 17.3637Z" fill="#A4C7FF"/>
<path d="M98.5935 12.9577V18.1199H97.5595V12.9577H98.5935Z" fill="#A4C7FF"/>
<path d="M101.106 18.1955C100.729 18.1955 100.403 18.1123 100.128 17.9459C99.8547 17.7779 99.6435 17.5443 99.4946 17.2452C99.3458 16.9444 99.2713 16.5957 99.2713 16.1992C99.2713 15.7993 99.3458 15.4497 99.4946 15.1506C99.6435 14.8498 99.8547 14.6163 100.128 14.4499C100.403 14.2819 100.729 14.1979 101.106 14.1979C101.483 14.1979 101.809 14.2819 102.082 14.4499C102.357 14.6163 102.569 14.8498 102.718 15.1506C102.867 15.4497 102.941 15.7993 102.941 16.1992C102.941 16.5957 102.867 16.9444 102.718 17.2452C102.569 17.5443 102.357 17.7779 102.082 17.9459C101.809 18.1123 101.483 18.1955 101.106 18.1955ZM101.111 17.3637C101.283 17.3637 101.426 17.3133 101.541 17.2124C101.656 17.1099 101.742 16.9705 101.8 16.794C101.86 16.6176 101.89 16.4168 101.89 16.1916C101.89 15.9664 101.86 15.7656 101.8 15.5892C101.742 15.4128 101.656 15.2733 101.541 15.1708C101.426 15.0683 101.283 15.017 101.111 15.017C100.938 15.017 100.792 15.0683 100.674 15.1708C100.558 15.2733 100.47 15.4128 100.41 15.5892C100.351 15.7656 100.322 15.9664 100.322 16.1916C100.322 16.4168 100.351 16.6176 100.41 16.794C100.47 16.9705 100.558 17.1099 100.674 17.2124C100.792 17.3133 100.938 17.3637 101.111 17.3637Z" fill="#A4C7FF"/>
<path d="M105.293 19.6524C104.958 19.6524 104.671 19.6045 104.432 19.5087C104.194 19.4146 104.004 19.286 103.864 19.123C103.723 18.96 103.631 18.7769 103.589 18.5736L104.546 18.44C104.575 18.5173 104.621 18.5895 104.684 18.6567C104.747 18.7239 104.83 18.7777 104.934 18.8181C105.039 18.8601 105.167 18.8811 105.318 18.8811C105.542 18.8811 105.728 18.8239 105.873 18.7097C106.021 18.5971 106.094 18.408 106.094 18.1425V17.4343H106.051C106.005 17.5418 105.937 17.6435 105.847 17.7392C105.756 17.835 105.64 17.9132 105.497 17.9737C105.355 18.0342 105.185 18.0644 104.987 18.0644C104.707 18.0644 104.453 17.9972 104.223 17.8628C103.995 17.7266 103.813 17.5191 103.677 17.2402C103.542 16.9596 103.475 16.605 103.475 16.1765C103.475 15.7379 103.544 15.3716 103.682 15.0775C103.819 14.7835 104.002 14.5633 104.23 14.4171C104.46 14.2709 104.712 14.1979 104.985 14.1979C105.194 14.1979 105.368 14.2348 105.509 14.3088C105.65 14.381 105.763 14.4718 105.849 14.581C105.936 14.6885 106.004 14.7944 106.051 14.8986H106.089V14.2483H107.116V18.1577C107.116 18.487 107.038 18.7626 106.883 18.9844C106.728 19.2062 106.513 19.3726 106.237 19.4835C105.964 19.5961 105.649 19.6524 105.293 19.6524ZM105.315 17.2578C105.482 17.2578 105.623 17.215 105.737 17.1293C105.854 17.0419 105.943 16.9175 106.004 16.7562C106.068 16.5932 106.099 16.3983 106.099 16.1715C106.099 15.9446 106.068 15.748 106.007 15.5816C105.945 15.4136 105.856 15.2834 105.74 15.191C105.623 15.0985 105.482 15.0523 105.315 15.0523C105.145 15.0523 105.002 15.1002 104.885 15.196C104.769 15.2901 104.681 15.4212 104.621 15.5892C104.561 15.7572 104.531 15.9513 104.531 16.1715C104.531 16.3949 104.561 16.5882 104.621 16.7512C104.682 16.9125 104.771 17.0377 104.885 17.1267C105.002 17.2141 105.145 17.2578 105.315 17.2578Z" fill="#A4C7FF"/>
<path d="M107.939 18.1199V14.2483H108.973V18.1199H107.939ZM108.458 13.7492C108.305 13.7492 108.173 13.6963 108.063 13.5904C107.954 13.4828 107.9 13.3543 107.9 13.2047C107.9 13.0569 107.954 12.93 108.063 12.8241C108.173 12.7166 108.305 12.6628 108.458 12.6628C108.612 12.6628 108.743 12.7166 108.852 12.8241C108.962 12.93 109.017 13.0569 109.017 13.2047C109.017 13.3543 108.962 13.4828 108.852 13.5904C108.743 13.6963 108.612 13.7492 108.458 13.7492Z" fill="#A4C7FF"/>
<path d="M110.864 18.193C110.626 18.193 110.414 18.1501 110.228 18.0644C110.042 17.977 109.895 17.8485 109.787 17.6788C109.68 17.5074 109.626 17.2939 109.626 17.0385C109.626 16.8234 109.664 16.6428 109.741 16.4966C109.817 16.3504 109.92 16.2328 110.051 16.1437C110.182 16.0547 110.331 15.9875 110.498 15.9421C110.666 15.8967 110.842 15.8648 111.027 15.8463C111.244 15.8228 111.419 15.8009 111.551 15.7808C111.684 15.7589 111.78 15.727 111.84 15.685C111.9 15.643 111.93 15.5808 111.93 15.4985V15.4833C111.93 15.3237 111.881 15.2002 111.784 15.1128C111.689 15.0254 111.553 14.9817 111.376 14.9817C111.19 14.9817 111.042 15.0246 110.932 15.1103C110.822 15.1943 110.749 15.3002 110.714 15.4279L109.757 15.3472C109.806 15.112 109.902 14.9086 110.044 14.7373C110.186 14.5642 110.37 14.4314 110.595 14.339C110.821 14.2449 111.084 14.1979 111.381 14.1979C111.588 14.1979 111.787 14.2231 111.976 14.2735C112.167 14.3239 112.336 14.402 112.483 14.5079C112.632 14.6137 112.749 14.7499 112.835 14.9162C112.921 15.0809 112.964 15.2783 112.964 15.5085V18.1199H111.983V17.583H111.954C111.894 17.704 111.814 17.8107 111.714 17.9031C111.614 17.9938 111.493 18.0652 111.352 18.1173C111.211 18.1677 111.049 18.193 110.864 18.193ZM111.16 17.4519C111.313 17.4519 111.447 17.4208 111.563 17.3586C111.68 17.2948 111.771 17.2091 111.838 17.1015C111.904 16.994 111.937 16.8722 111.937 16.7361V16.3252C111.905 16.3471 111.86 16.3672 111.804 16.3857C111.749 16.4025 111.686 16.4185 111.617 16.4336C111.547 16.447 111.478 16.4596 111.408 16.4714C111.338 16.4815 111.275 16.4907 111.219 16.4991C111.097 16.5176 110.991 16.547 110.901 16.5873C110.81 16.6277 110.74 16.6823 110.69 16.7512C110.639 16.8184 110.614 16.9024 110.614 17.0032C110.614 17.1494 110.665 17.2612 110.767 17.3385C110.871 17.4141 111.002 17.4519 111.16 17.4519Z" fill="#A4C7FF"/>
<path d="M118.629 18.1955C118.245 18.1955 117.915 18.1148 117.639 17.9535C117.364 17.7905 117.152 17.5603 117.003 17.2629C116.854 16.9638 116.779 16.61 116.779 16.2017C116.779 15.8035 116.854 15.4539 117.003 15.1531C117.152 14.8524 117.361 14.6179 117.631 14.4499C117.903 14.2819 118.222 14.1979 118.588 14.1979C118.834 14.1979 119.063 14.239 119.275 14.3214C119.488 14.402 119.674 14.5238 119.833 14.6868C119.993 14.8498 120.118 15.0548 120.207 15.3019C120.296 15.5472 120.34 15.8345 120.34 16.1639V16.4588H117.192V15.7934H119.367C119.367 15.6388 119.334 15.5018 119.27 15.3825C119.205 15.2632 119.115 15.1699 119 15.1027C118.887 15.0338 118.755 14.9994 118.605 14.9994C118.448 14.9994 118.309 15.0372 118.187 15.1128C118.067 15.1868 117.974 15.2867 117.906 15.4128C117.838 15.5371 117.803 15.6757 117.801 15.8287V16.4613C117.801 16.6529 117.835 16.8184 117.903 16.9579C117.973 17.0973 118.071 17.2049 118.197 17.2805C118.323 17.3561 118.473 17.3939 118.646 17.3939C118.761 17.3939 118.866 17.3771 118.961 17.3435C119.057 17.3099 119.139 17.2595 119.207 17.1923C119.275 17.1251 119.326 17.0427 119.362 16.9453L120.318 17.0108C120.27 17.2494 120.17 17.4578 120.02 17.6359C119.871 17.8123 119.678 17.9501 119.442 18.0493C119.207 18.1467 118.936 18.1955 118.629 18.1955Z" fill="#A4C7FF"/>
<path d="M123.667 12.9577V18.1199H122.616V12.9577H123.667Z" fill="#A4C7FF"/>
<path d="M125.547 15.8816V18.1199H124.513V14.2483H125.498V14.9313H125.542C125.624 14.7062 125.763 14.528 125.957 14.397C126.151 14.2642 126.386 14.1979 126.663 14.1979C126.922 14.1979 127.148 14.2567 127.34 14.3743C127.533 14.4919 127.682 14.66 127.789 14.8784C127.896 15.0952 127.949 15.354 127.949 15.6547V18.1199H126.915V15.8463C126.917 15.6094 126.859 15.4245 126.741 15.2918C126.623 15.1573 126.46 15.0901 126.253 15.0901C126.114 15.0901 125.991 15.1212 125.884 15.1834C125.779 15.2456 125.696 15.3363 125.636 15.4556C125.578 15.5732 125.548 15.7152 125.547 15.8816Z" fill="#A4C7FF"/>
<path d="M130.769 14.2483V15.0548H128.468V14.2483H130.769ZM128.995 18.1199V13.9685C128.995 13.6879 129.048 13.4551 129.153 13.2703C129.26 13.0854 129.405 12.9468 129.59 12.8544C129.774 12.762 129.984 12.7158 130.218 12.7158C130.377 12.7158 130.522 12.7284 130.653 12.7536C130.785 12.7788 130.884 12.8015 130.949 12.8216L130.764 13.6282C130.724 13.6148 130.674 13.6022 130.614 13.5904C130.556 13.5786 130.496 13.5727 130.434 13.5727C130.282 13.5727 130.176 13.6097 130.116 13.6837C130.056 13.7559 130.027 13.8576 130.027 13.9886V18.1199H128.995Z" fill="#A4C7FF"/>
<path d="M132.952 18.1955C132.575 18.1955 132.249 18.1123 131.974 17.9459C131.7 17.7779 131.489 17.5443 131.34 17.2452C131.191 16.9444 131.117 16.5957 131.117 16.1992C131.117 15.7993 131.191 15.4497 131.34 15.1506C131.489 14.8498 131.7 14.6163 131.974 14.4499C132.249 14.2819 132.575 14.1979 132.952 14.1979C133.329 14.1979 133.654 14.2819 133.928 14.4499C134.203 14.6163 134.415 14.8498 134.564 15.1506C134.712 15.4497 134.787 15.7993 134.787 16.1992C134.787 16.5957 134.712 16.9444 134.564 17.2452C134.415 17.5443 134.203 17.7779 133.928 17.9459C133.654 18.1123 133.329 18.1955 132.952 18.1955ZM132.957 17.3637C133.128 17.3637 133.272 17.3133 133.386 17.2124C133.501 17.1099 133.588 16.9705 133.646 16.794C133.706 16.6176 133.736 16.4168 133.736 16.1916C133.736 15.9664 133.706 15.7656 133.646 15.5892C133.588 15.4128 133.501 15.2733 133.386 15.1708C133.272 15.0683 133.128 15.017 132.957 15.017C132.784 15.017 132.638 15.0683 132.52 15.1708C132.403 15.2733 132.315 15.4128 132.255 15.5892C132.197 15.7656 132.168 15.9664 132.168 16.1916C132.168 16.4168 132.197 16.6176 132.255 16.794C132.315 16.9705 132.403 17.1099 132.52 17.2124C132.638 17.3133 132.784 17.3637 132.957 17.3637Z" fill="#A4C7FF"/>
<path d="M135.459 18.1199V14.2483H136.462V14.9238H136.501C136.569 14.6835 136.683 14.502 136.843 14.3793C137.003 14.255 137.187 14.1928 137.396 14.1928C137.448 14.1928 137.504 14.1962 137.564 14.2029C137.624 14.2096 137.676 14.2189 137.721 14.2306V15.1834C137.673 15.1683 137.606 15.1548 137.52 15.1431C137.434 15.1313 137.356 15.1254 137.285 15.1254C137.132 15.1254 136.997 15.1599 136.877 15.2288C136.759 15.296 136.665 15.3901 136.595 15.5111C136.527 15.6321 136.493 15.7715 136.493 15.9295V18.1199H135.459Z" fill="#A4C7FF"/>
<path d="M138.256 18.1199V14.2483H139.241V14.9313H139.285C139.363 14.7045 139.492 14.5255 139.674 14.3945C139.855 14.2634 140.072 14.1979 140.324 14.1979C140.58 14.1979 140.797 14.2642 140.977 14.397C141.157 14.528 141.276 14.7062 141.336 14.9313H141.375C141.451 14.7095 141.589 14.5322 141.788 14.3995C141.988 14.2651 142.225 14.1979 142.499 14.1979C142.847 14.1979 143.129 14.313 143.346 14.5432C143.564 14.7717 143.674 15.096 143.674 15.5161V18.1199H142.642V15.7278C142.642 15.5127 142.587 15.3514 142.477 15.2439C142.367 15.1363 142.229 15.0826 142.064 15.0826C141.877 15.0826 141.73 15.1447 141.625 15.2691C141.52 15.3918 141.467 15.5539 141.467 15.7556V18.1199H140.465V15.7051C140.465 15.5153 140.412 15.364 140.307 15.2514C140.203 15.1389 140.067 15.0826 139.897 15.0826C139.782 15.0826 139.678 15.1128 139.586 15.1733C139.496 15.2321 139.424 15.3153 139.37 15.4228C139.317 15.5287 139.29 15.6531 139.29 15.7959V18.1199H138.256Z" fill="#A4C7FF"/>
<path d="M145.553 18.193C145.316 18.193 145.104 18.1501 144.918 18.0644C144.731 17.977 144.584 17.8485 144.476 17.6788C144.369 17.5074 144.316 17.2939 144.316 17.0385C144.316 16.8234 144.354 16.6428 144.43 16.4966C144.506 16.3504 144.609 16.2328 144.74 16.1437C144.871 16.0547 145.02 15.9875 145.187 15.9421C145.355 15.8967 145.532 15.8648 145.716 15.8463C145.933 15.8228 146.108 15.8009 146.24 15.7808C146.373 15.7589 146.469 15.727 146.529 15.685C146.589 15.643 146.619 15.5808 146.619 15.4985V15.4833C146.619 15.3237 146.57 15.2002 146.473 15.1128C146.378 15.0254 146.242 14.9817 146.066 14.9817C145.88 14.9817 145.731 15.0246 145.621 15.1103C145.511 15.1943 145.439 15.3002 145.403 15.4279L144.447 15.3472C144.495 15.112 144.591 14.9086 144.733 14.7373C144.875 14.5642 145.059 14.4314 145.284 14.339C145.511 14.2449 145.773 14.1979 146.07 14.1979C146.278 14.1979 146.476 14.2231 146.665 14.2735C146.856 14.3239 147.025 14.402 147.172 14.5079C147.321 14.6137 147.439 14.7499 147.524 14.9162C147.61 15.0809 147.653 15.2783 147.653 15.5085V18.1199H146.672V17.583H146.643C146.583 17.704 146.503 17.8107 146.403 17.9031C146.303 17.9938 146.182 18.0652 146.041 18.1173C145.901 18.1677 145.738 18.193 145.553 18.193ZM145.85 17.4519C146.002 17.4519 146.136 17.4208 146.252 17.3586C146.369 17.2948 146.46 17.2091 146.527 17.1015C146.593 16.994 146.626 16.8722 146.626 16.7361V16.3252C146.594 16.3471 146.549 16.3672 146.493 16.3857C146.438 16.4025 146.375 16.4185 146.306 16.4336C146.236 16.447 146.167 16.4596 146.097 16.4714C146.028 16.4815 145.964 16.4907 145.908 16.4991C145.786 16.5176 145.68 16.547 145.59 16.5873C145.499 16.6277 145.429 16.6823 145.379 16.7512C145.329 16.8184 145.303 16.9024 145.303 17.0032C145.303 17.1494 145.354 17.2612 145.456 17.3385C145.56 17.4141 145.691 17.4519 145.85 17.4519Z" fill="#A4C7FF"/>
<path d="M150.14 18.1955C149.758 18.1955 149.429 18.1115 149.154 17.9434C148.881 17.7737 148.67 17.5384 148.523 17.2377C148.378 16.9369 148.305 16.5907 148.305 16.1992C148.305 15.8026 148.378 15.4548 148.526 15.1557C148.674 14.8549 148.886 14.6205 149.159 14.4524C149.433 14.2827 149.758 14.1979 150.135 14.1979C150.46 14.1979 150.745 14.2592 150.989 14.3819C151.234 14.5045 151.427 14.6768 151.569 14.8986C151.712 15.1204 151.79 15.3808 151.805 15.6799H150.829C150.801 15.4867 150.729 15.3313 150.611 15.2136C150.494 15.0943 150.341 15.0347 150.152 15.0347C149.992 15.0347 149.852 15.08 149.732 15.1708C149.614 15.2598 149.522 15.3901 149.455 15.5615C149.389 15.7329 149.356 15.9404 149.356 16.1841C149.356 16.4311 149.388 16.6411 149.453 16.8142C149.519 16.9873 149.612 17.1192 149.732 17.2099C149.852 17.3007 149.992 17.346 150.152 17.346C150.27 17.346 150.376 17.3208 150.47 17.2704C150.565 17.22 150.644 17.1469 150.705 17.0511C150.768 16.9537 150.81 16.8369 150.829 16.7008H151.805C151.789 16.9965 151.711 17.257 151.572 17.4821C151.434 17.7056 151.244 17.8804 151.001 18.0064C150.759 18.1325 150.471 18.1955 150.14 18.1955ZM149.897 18.0997H150.373L150.334 18.319C150.501 18.3459 150.636 18.4106 150.742 18.5131C150.848 18.6156 150.903 18.755 150.904 18.9315C150.906 19.1819 150.794 19.381 150.569 19.5289C150.344 19.6784 150.029 19.7532 149.623 19.7532L149.613 19.2743C149.817 19.2743 149.976 19.2482 150.091 19.1961C150.208 19.1457 150.268 19.0667 150.273 18.9592C150.276 18.8567 150.238 18.7786 150.159 18.7248C150.08 18.671 149.956 18.6332 149.788 18.6114L149.897 18.0997Z" fill="#A4C7FF"/>
<path d="M153.53 18.193C153.292 18.193 153.08 18.1501 152.894 18.0644C152.708 17.977 152.561 17.8485 152.452 17.6788C152.345 17.5074 152.292 17.2939 152.292 17.0385C152.292 16.8234 152.33 16.6428 152.406 16.4966C152.482 16.3504 152.586 16.2328 152.717 16.1437C152.848 16.0547 152.997 15.9875 153.163 15.9421C153.332 15.8967 153.508 15.8648 153.692 15.8463C153.909 15.8228 154.084 15.8009 154.217 15.7808C154.349 15.7589 154.446 15.727 154.506 15.685C154.565 15.643 154.595 15.5808 154.595 15.4985V15.4833C154.595 15.3237 154.547 15.2002 154.45 15.1128C154.354 15.0254 154.218 14.9817 154.042 14.9817C153.856 14.9817 153.708 15.0246 153.598 15.1103C153.488 15.1943 153.415 15.3002 153.379 15.4279L152.423 15.3472C152.472 15.112 152.567 14.9086 152.709 14.7373C152.852 14.5642 153.036 14.4314 153.26 14.339C153.487 14.2449 153.749 14.1979 154.047 14.1979C154.254 14.1979 154.452 14.2231 154.642 14.2735C154.832 14.3239 155.002 14.402 155.149 14.5079C155.298 14.6137 155.415 14.7499 155.501 14.9162C155.587 15.0809 155.629 15.2783 155.629 15.5085V18.1199H154.649V17.583H154.62C154.56 17.704 154.48 17.8107 154.379 17.9031C154.279 17.9938 154.159 18.0652 154.018 18.1173C153.877 18.1677 153.714 18.193 153.53 18.193ZM153.826 17.4519C153.978 17.4519 154.112 17.4208 154.229 17.3586C154.345 17.2948 154.437 17.2091 154.503 17.1015C154.57 16.994 154.603 16.8722 154.603 16.7361V16.3252C154.57 16.3471 154.526 16.3672 154.469 16.3857C154.414 16.4025 154.352 16.4185 154.282 16.4336C154.213 16.447 154.143 16.4596 154.074 16.4714C154.004 16.4815 153.941 16.4907 153.884 16.4991C153.763 16.5176 153.657 16.547 153.566 16.5873C153.476 16.6277 153.405 16.6823 153.355 16.7512C153.305 16.8184 153.28 16.9024 153.28 17.0032C153.28 17.1494 153.331 17.2612 153.433 17.3385C153.536 17.4141 153.667 17.4519 153.826 17.4519ZM153.392 13.7719L152.816 13.7643C152.816 13.4434 152.892 13.1972 153.044 13.0258C153.198 12.8544 153.385 12.7678 153.605 12.7662C153.718 12.7662 153.815 12.7855 153.896 12.8241C153.979 12.8611 154.053 12.9048 154.117 12.9552C154.184 13.0056 154.247 13.0502 154.307 13.0888C154.366 13.1258 154.431 13.1443 154.501 13.1443C154.595 13.1426 154.666 13.1064 154.714 13.0359C154.765 12.9636 154.79 12.8695 154.79 12.7536L155.355 12.7712C155.352 13.0888 155.274 13.3341 155.122 13.5072C154.97 13.6786 154.785 13.7652 154.566 13.7668C154.445 13.7668 154.343 13.7483 154.26 13.7114C154.18 13.6727 154.108 13.629 154.047 13.5803C153.985 13.5299 153.926 13.4854 153.867 13.4467C153.809 13.4081 153.743 13.3887 153.671 13.3887C153.587 13.3887 153.519 13.4232 153.467 13.4921C153.417 13.561 153.392 13.6542 153.392 13.7719Z" fill="#A4C7FF"/>
<path d="M158.116 18.1955C157.739 18.1955 157.413 18.1123 157.138 17.9459C156.864 17.7779 156.653 17.5443 156.504 17.2452C156.356 16.9444 156.281 16.5957 156.281 16.1992C156.281 15.7993 156.356 15.4497 156.504 15.1506C156.653 14.8498 156.864 14.6163 157.138 14.4499C157.413 14.2819 157.739 14.1979 158.116 14.1979C158.493 14.1979 158.818 14.2819 159.092 14.4499C159.367 14.6163 159.579 14.8498 159.728 15.1506C159.877 15.4497 159.951 15.7993 159.951 16.1992C159.951 16.5957 159.877 16.9444 159.728 17.2452C159.579 17.5443 159.367 17.7779 159.092 17.9459C158.818 18.1123 158.493 18.1955 158.116 18.1955ZM158.121 17.3637C158.292 17.3637 158.436 17.3133 158.551 17.2124C158.665 17.1099 158.752 16.9705 158.81 16.794C158.87 16.6176 158.9 16.4168 158.9 16.1916C158.9 15.9664 158.87 15.7656 158.81 15.5892C158.752 15.4128 158.665 15.2733 158.551 15.1708C158.436 15.0683 158.292 15.017 158.121 15.017C157.948 15.017 157.802 15.0683 157.684 15.1708C157.568 15.2733 157.479 15.4128 157.419 15.5892C157.361 15.7656 157.332 15.9664 157.332 16.1916C157.332 16.4168 157.361 16.6176 157.419 16.794C157.479 16.9705 157.568 17.1099 157.684 17.2124C157.802 17.3133 157.948 17.3637 158.121 17.3637Z" fill="#A4C7FF"/>
<rect x="62.5859" y="0.966797" width="1.13799" height="18.9278" fill="#A4C7FF"/>
<path d="M222.486 17.884C222.5 17.743 222.697 17.1955 222.877 16.7974C222.905 16.7282 222.985 16.5375 223.051 16.3743L223.168 16.0757L223.271 16.084L223.373 16.0923L223.739 16.9605C223.987 17.5522 224.104 17.8619 224.104 17.9366V18.0417H223.288H222.469L222.486 17.884Z" fill="#A4C7FF"/>
<path d="M207.17 19.9468C206.762 19.8555 206.371 19.6841 206.066 19.4657C205.752 19.2389 205.455 18.9099 205.313 18.6306C204.987 17.9974 204.919 17.425 205.09 16.778C205.153 16.5374 205.361 16.0812 205.43 16.0397C205.447 16.0287 205.452 16.0176 205.441 16.0176C205.427 16.0176 205.444 15.9899 205.472 15.9568C205.504 15.9208 205.584 15.8268 205.655 15.7466C205.872 15.4978 206.152 15.2904 206.5 15.1217C206.911 14.9199 207.344 14.8286 207.895 14.8286C208.409 14.8286 208.842 14.906 209.228 15.0636C209.427 15.1466 209.813 15.3844 209.958 15.5171L210.101 15.6443L209.864 15.8932C209.733 16.0314 209.573 16.2056 209.507 16.2803C209.416 16.3881 209.379 16.413 209.347 16.3909C209.325 16.3771 209.228 16.3107 209.131 16.2443C208.6 15.8849 207.866 15.7964 207.293 16.0259C206.962 16.1559 206.754 16.3135 206.594 16.554C206.403 16.8416 206.351 17.0186 206.348 17.414C206.346 17.7071 206.354 17.7679 206.42 17.9449C206.463 18.0527 206.554 18.2269 206.625 18.332C206.776 18.5532 207.016 18.7191 207.341 18.8352C207.524 18.8988 207.584 18.9071 207.958 18.9071C208.317 18.9071 208.397 18.8961 208.571 18.8408C208.683 18.8048 208.788 18.7606 208.808 18.744C208.837 18.7163 208.845 18.5283 208.851 17.9366L208.857 17.1651H209.442H210.027L210.035 18.2601L210.041 19.3578L209.85 19.4657C209.096 19.8942 208.763 19.9883 207.929 20.0131C207.55 20.027 207.487 20.0214 207.17 19.9468Z" fill="#A4C7FF"/>
<path d="M228.719 19.9747C228.005 19.8531 227.589 19.6485 227.141 19.2005C226.884 18.9461 226.699 18.6807 226.562 18.371C226.416 18.0392 226.379 17.8401 226.379 17.3894C226.379 16.8447 226.447 16.6013 226.77 16.0207C226.807 15.9515 226.85 15.9018 227.127 15.617C227.398 15.3377 228.088 14.9838 228.556 14.887C228.961 14.8013 229.649 14.7985 230.003 14.8842C230.146 14.9174 230.288 14.9506 230.32 14.9561C230.354 14.9644 230.514 15.0308 230.676 15.1027C230.953 15.2271 231.433 15.5423 231.461 15.6197C231.47 15.6363 231.421 15.7082 231.353 15.7746C231.284 15.8409 231.13 16.0124 231.007 16.1534L230.785 16.4078L230.708 16.3663C230.665 16.3414 230.574 16.2889 230.502 16.2446C230.28 16.1119 229.9 15.9681 229.646 15.9211C229.264 15.852 228.804 15.9184 228.473 16.0953C228.279 16.1949 228.023 16.4382 227.894 16.6345C227.634 17.0327 227.617 17.6493 227.846 18.1332C228.071 18.6033 228.656 18.9212 229.304 18.924C229.532 18.924 230.017 18.8272 230.14 18.7581L230.245 18.6973V17.9396V17.182L230.354 17.1792C230.411 17.1765 230.679 17.1765 230.945 17.1765L231.43 17.182L231.438 18.2714L231.444 19.3609L231.21 19.4964C230.411 19.9554 229.552 20.1213 228.719 19.9747Z" fill="#A4C7FF"/>
<path d="M220.408 19.9311C220.394 19.8951 220.473 19.7043 220.685 19.2702C220.767 19.1043 220.867 18.8859 220.904 18.7863C220.944 18.6868 220.987 18.5928 221.001 18.5762C221.03 18.5402 221.184 18.1918 221.247 18.0121C221.27 17.943 221.341 17.7909 221.401 17.6747C221.461 17.5558 221.558 17.3457 221.612 17.2047C221.669 17.0637 221.755 16.8756 221.803 16.7816C221.852 16.6904 221.912 16.5549 221.94 16.4775C222.043 16.1982 222.137 15.9687 222.208 15.8249C222.248 15.7447 222.283 15.6673 222.283 15.6562C222.283 15.6424 222.314 15.565 222.351 15.4876C222.391 15.4074 222.465 15.2442 222.522 15.1226L222.622 14.9014L223.301 14.9097C223.675 14.9152 223.989 14.929 224 14.9373C224.012 14.9484 224.063 15.0617 224.117 15.1917C224.34 15.7171 224.394 15.8443 224.423 15.8885C224.437 15.9134 224.546 16.1705 224.663 16.4553C224.78 16.7401 224.939 17.1162 225.019 17.2849C225.099 17.4563 225.165 17.6029 225.165 17.6112C225.165 17.6388 225.71 18.8527 225.758 18.9384C225.787 18.9854 225.847 19.1154 225.892 19.2287C225.938 19.3421 226.032 19.5467 226.098 19.6794C226.166 19.8149 226.215 19.9311 226.209 19.9421C226.195 19.967 224.902 19.967 224.862 19.9421C224.848 19.9311 224.754 19.7209 224.654 19.4721C224.554 19.2232 224.463 19.002 224.451 18.9799C224.429 18.9329 224.52 18.9356 223.073 18.9467C222.411 18.9495 222.166 18.9605 222.131 18.9882C222.089 19.0158 221.886 19.461 221.743 19.837L221.695 19.9587L221.058 19.9615C220.608 19.9615 220.416 19.9532 220.408 19.9311ZM224.023 17.9347C224.023 17.8987 223.31 16.2037 223.281 16.1788C223.27 16.165 223.204 16.2894 223.142 16.4553C223.076 16.6185 222.99 16.8231 222.956 16.9061C222.856 17.13 222.602 17.7936 222.579 17.8821L222.562 17.9568H223.293C223.695 17.9568 224.023 17.9457 224.023 17.9347Z" fill="#A4C7FF"/>
<path d="M211.155 19.9145L211.095 19.8951L211.1 17.3982L211.109 14.9014L213.135 14.9124L215.161 14.9207L215.17 15.4295L215.175 15.9383L213.786 15.9438L212.393 15.9521V16.4139L212.39 16.8784L213.62 16.8839L214.847 16.8922L214.856 17.3816L214.861 17.8711L213.646 17.8738C212.975 17.8738 212.419 17.8821 212.407 17.8877C212.396 17.896 212.387 18.1227 212.39 18.3909L212.393 18.8831L213.82 18.8886L215.247 18.8942V19.414V19.9338L213.229 19.9366C212.122 19.9366 211.186 19.9283 211.155 19.9145Z" fill="#A4C7FF"/>
<path d="M217.586 19.9241C217.575 19.9102 217.575 19.0061 217.581 17.9194L217.592 15.9368L216.725 15.9396C216.248 15.9424 215.843 15.9341 215.829 15.9258C215.797 15.9064 215.789 15.0852 215.817 14.9773L215.834 14.9165H218.228H220.623V15.428V15.9396H219.738H218.853V17.9443V19.949H218.228C217.88 19.949 217.595 19.9379 217.586 19.9241Z" fill="#A4C7FF"/>
<path d="M207.17 19.9468C206.762 19.8555 206.371 19.6841 206.066 19.4657C205.752 19.2389 205.455 18.9099 205.313 18.6306C204.987 17.9974 204.919 17.425 205.09 16.778C205.153 16.5374 205.361 16.0812 205.43 16.0397C205.447 16.0287 205.452 16.0176 205.441 16.0176C205.427 16.0176 205.444 15.9899 205.472 15.9568C205.504 15.9208 205.584 15.8268 205.655 15.7466C205.872 15.4978 206.152 15.2904 206.5 15.1217C206.911 14.9199 207.344 14.8286 207.895 14.8286C208.409 14.8286 208.842 14.906 209.228 15.0636C209.427 15.1466 209.813 15.3844 209.958 15.5171L210.101 15.6443L209.864 15.8932C209.733 16.0314 209.573 16.2056 209.507 16.2803C209.416 16.3881 209.379 16.413 209.347 16.3909C209.325 16.3771 209.228 16.3107 209.131 16.2443C208.6 15.8849 207.866 15.7964 207.293 16.0259C206.962 16.1559 206.754 16.3135 206.594 16.554C206.403 16.8416 206.351 17.0186 206.348 17.414C206.346 17.7071 206.354 17.7679 206.42 17.9449C206.463 18.0527 206.554 18.2269 206.625 18.332C206.776 18.5532 207.016 18.7191 207.341 18.8352C207.524 18.8988 207.584 18.9071 207.958 18.9071C208.317 18.9071 208.397 18.8961 208.571 18.8408C208.683 18.8048 208.788 18.7606 208.808 18.744C208.837 18.7163 208.845 18.5283 208.851 17.9366L208.857 17.1651H209.442H210.027L210.035 18.2601L210.041 19.3578L209.85 19.4657C209.096 19.8942 208.763 19.9883 207.929 20.0131C207.55 20.027 207.487 20.0214 207.17 19.9468Z" fill="#A4C7FF"/>
<path d="M228.719 19.9747C228.005 19.8531 227.589 19.6485 227.141 19.2005C226.884 18.9461 226.699 18.6807 226.562 18.371C226.416 18.0392 226.379 17.8401 226.379 17.3894C226.379 16.8447 226.447 16.6013 226.77 16.0207C226.807 15.9515 226.85 15.9018 227.127 15.617C227.398 15.3377 228.088 14.9838 228.556 14.887C228.961 14.8013 229.649 14.7985 230.003 14.8842C230.146 14.9174 230.288 14.9506 230.32 14.9561C230.354 14.9644 230.514 15.0308 230.676 15.1027C230.953 15.2271 231.433 15.5423 231.461 15.6197C231.47 15.6363 231.421 15.7082 231.353 15.7746C231.284 15.8409 231.13 16.0124 231.007 16.1534L230.785 16.4078L230.708 16.3663C230.665 16.3414 230.574 16.2889 230.502 16.2446C230.28 16.1119 229.9 15.9681 229.646 15.9211C229.264 15.852 228.804 15.9184 228.473 16.0953C228.279 16.1949 228.023 16.4382 227.894 16.6345C227.634 17.0327 227.617 17.6493 227.846 18.1332C228.071 18.6033 228.656 18.9212 229.304 18.924C229.532 18.924 230.017 18.8272 230.14 18.7581L230.245 18.6973V17.9396V17.182L230.354 17.1792C230.411 17.1765 230.679 17.1765 230.945 17.1765L231.43 17.182L231.438 18.2714L231.444 19.3609L231.21 19.4964C230.411 19.9554 229.552 20.1213 228.719 19.9747Z" fill="#A4C7FF"/>
<path d="M220.408 19.9311C220.394 19.8951 220.473 19.7043 220.685 19.2702C220.767 19.1043 220.867 18.8859 220.904 18.7863C220.944 18.6868 220.987 18.5928 221.001 18.5762C221.03 18.5402 221.184 18.1918 221.247 18.0121C221.27 17.943 221.341 17.7909 221.401 17.6747C221.461 17.5558 221.558 17.3457 221.612 17.2047C221.669 17.0637 221.755 16.8756 221.803 16.7816C221.852 16.6904 221.912 16.5549 221.94 16.4775C222.043 16.1982 222.137 15.9687 222.208 15.8249C222.248 15.7447 222.283 15.6673 222.283 15.6562C222.283 15.6424 222.314 15.565 222.351 15.4876C222.391 15.4074 222.465 15.2442 222.522 15.1226L222.622 14.9014L223.301 14.9097C223.675 14.9152 223.989 14.929 224 14.9373C224.012 14.9484 224.063 15.0617 224.117 15.1917C224.34 15.7171 224.394 15.8443 224.423 15.8885C224.437 15.9134 224.546 16.1705 224.663 16.4553C224.78 16.7401 224.939 17.1162 225.019 17.2849C225.099 17.4563 225.165 17.6029 225.165 17.6112C225.165 17.6388 225.71 18.8527 225.758 18.9384C225.787 18.9854 225.847 19.1154 225.892 19.2287C225.938 19.3421 226.032 19.5467 226.098 19.6794C226.166 19.8149 226.215 19.9311 226.209 19.9421C226.195 19.967 224.902 19.967 224.862 19.9421C224.848 19.9311 224.754 19.7209 224.654 19.4721C224.554 19.2232 224.463 19.002 224.451 18.9799C224.429 18.9329 224.52 18.9356 223.073 18.9467C222.411 18.9495 222.166 18.9605 222.131 18.9882C222.089 19.0158 221.886 19.461 221.743 19.837L221.695 19.9587L221.058 19.9615C220.608 19.9615 220.416 19.9532 220.408 19.9311ZM224.023 17.9347C224.023 17.8987 223.31 16.2037 223.281 16.1788C223.27 16.165 223.204 16.2894 223.142 16.4553C223.076 16.6185 222.99 16.8231 222.956 16.9061C222.856 17.13 222.602 17.7936 222.579 17.8821L222.562 17.9568H223.293C223.695 17.9568 224.023 17.9457 224.023 17.9347Z" fill="#A4C7FF"/>
<path d="M211.155 19.9145L211.095 19.8951L211.1 17.3982L211.109 14.9014L213.135 14.9124L215.161 14.9207L215.17 15.4295L215.175 15.9383L213.786 15.9438L212.393 15.9521V16.4139L212.39 16.8784L213.62 16.8839L214.847 16.8922L214.856 17.3816L214.861 17.8711L213.646 17.8738C212.975 17.8738 212.419 17.8821 212.407 17.8877C212.396 17.896 212.387 18.1227 212.39 18.3909L212.393 18.8831L213.82 18.8886L215.247 18.8942V19.414V19.9338L213.229 19.9366C212.122 19.9366 211.186 19.9283 211.155 19.9145Z" fill="#A4C7FF"/>
<path d="M217.538 19.6418C217.526 19.628 217.526 18.7238 217.532 17.6372L217.543 15.6546L216.676 15.6574C216.199 15.6601 215.794 15.6518 215.78 15.6435C215.748 15.6242 215.74 14.8029 215.768 14.6951L215.785 14.6343H218.18H220.574V15.1458V15.6574H219.689H218.805V17.662V19.6667H218.18C217.831 19.6667 217.546 19.6557 217.538 19.6418Z" fill="#A4C7FF"/>
<path d="M192.66 20.2888C192.215 20.2584 191.441 20.1395 191.036 20.0427C190.848 19.9985 190.668 19.9598 190.634 19.9598C190.602 19.9598 190.565 19.9515 190.554 19.9404C190.543 19.9266 190.523 19.9183 190.514 19.9183C190.503 19.9155 190.445 19.899 190.388 19.8768C190.283 19.8381 190.24 19.7662 190.323 19.7662C190.351 19.7662 190.366 19.7386 190.366 19.6722C190.366 19.5893 190.377 19.5782 190.454 19.5616C190.503 19.5533 190.614 19.545 190.697 19.545C190.848 19.545 190.851 19.545 190.851 19.4621C190.851 19.3985 190.865 19.3791 190.905 19.3791C190.936 19.3791 190.965 19.3542 190.973 19.3211C190.991 19.2575 190.993 19.2575 191.393 19.3017C191.453 19.31 191.47 19.2934 191.507 19.1939C191.53 19.1275 191.564 19.075 191.581 19.075C191.63 19.075 191.65 19.0086 191.65 18.851C191.65 18.7763 191.664 18.7155 191.678 18.7155C191.695 18.7155 191.707 18.6989 191.707 18.6768C191.707 18.6547 191.73 18.616 191.755 18.5883C191.798 18.5468 191.847 18.5441 192.141 18.5607C192.454 18.5772 192.48 18.5745 192.526 18.5219C192.554 18.4915 192.597 18.4666 192.626 18.4666C192.688 18.4666 192.697 18.3616 192.634 18.3394C192.58 18.3173 192.574 18.1348 192.628 18.1348C192.674 18.1348 192.763 18.0353 192.763 17.9827C192.763 17.9606 192.788 17.9274 192.82 17.9081C192.86 17.8832 192.877 17.8417 192.877 17.7698V17.6648H193.019C193.099 17.6648 193.162 17.6786 193.162 17.6924C193.162 17.709 193.188 17.7201 193.222 17.7201C193.259 17.7201 193.288 17.6924 193.308 17.6399C193.322 17.5984 193.368 17.5459 193.405 17.5265C193.482 17.4878 193.493 17.4574 193.447 17.4297C193.433 17.4214 193.419 17.3689 193.419 17.3136C193.419 17.2058 193.479 17.1422 193.582 17.1394C193.63 17.1394 193.644 17.12 193.653 17.0509C193.661 16.9652 193.67 16.9597 193.784 16.9514C193.855 16.9458 193.904 16.9541 193.904 16.9707C193.904 16.9873 193.933 17.0011 193.97 17.0011C194.007 17.0011 194.05 17.015 194.067 17.0316C194.092 17.0564 194.104 17.0454 194.118 16.9846C194.127 16.9403 194.147 16.8822 194.164 16.8574C194.204 16.7855 194.195 16.7246 194.147 16.7246C194.098 16.7246 194.087 16.5726 194.129 16.509C194.144 16.4868 194.244 16.4592 194.363 16.4454C194.897 16.3845 195.345 16.2822 195.491 16.1937C195.508 16.1827 195.57 16.1633 195.633 16.1467C195.81 16.1053 196.201 15.9532 196.21 15.9228C196.215 15.9089 196.235 15.8951 196.255 15.8951C196.307 15.8951 196.746 15.6767 196.786 15.6324C196.806 15.6103 196.835 15.591 196.849 15.591C196.863 15.591 196.957 15.5357 197.06 15.4638C197.163 15.3946 197.277 15.3283 197.311 15.3144C197.345 15.3034 197.497 15.1955 197.648 15.0739C197.796 14.955 197.973 14.8223 198.039 14.7753C198.104 14.731 198.239 14.6342 198.336 14.5623C198.433 14.4904 198.521 14.4296 198.532 14.4296C198.544 14.4296 198.584 14.402 198.624 14.366C198.664 14.3301 198.744 14.2775 198.804 14.2471C198.863 14.2195 198.926 14.1808 198.943 14.1642C198.963 14.1476 199.02 14.1172 199.075 14.0978C199.126 14.0757 199.175 14.0508 199.183 14.0397C199.26 13.9402 199.971 13.7079 200.41 13.6388C200.627 13.6056 201.72 13.6194 201.768 13.6582C201.791 13.6775 201.845 13.683 201.905 13.672C201.962 13.6609 202.054 13.672 202.131 13.6969C202.202 13.719 202.333 13.7466 202.428 13.7522C202.579 13.766 202.807 13.813 202.807 13.8296C202.807 13.8517 202.553 14.5126 202.502 14.6232C202.47 14.6923 202.422 14.8029 202.393 14.872C202.331 15.013 202.039 15.5495 201.931 15.7154C201.894 15.7762 201.82 15.8979 201.766 15.9836C201.62 16.2269 201.166 16.8131 200.907 17.0979C200.433 17.615 199.771 18.2095 199.36 18.4943C199.26 18.5634 199.12 18.6602 199.049 18.71C198.661 18.9865 197.939 19.3542 197.228 19.6335C196.7 19.8437 196.663 19.8547 196.021 20.0179C195.034 20.2667 193.781 20.369 192.66 20.2888Z" fill="#A4C7FF"/>
<path d="M192.824 16.6496C192.704 16.6385 192.701 16.6358 192.701 16.5418V16.4478H192.915H193.13V16.5584C193.13 16.68 193.144 16.6773 192.824 16.6496Z" fill="#A4C7FF"/>
<path d="M205.314 11.5665C205.314 11.5444 205.294 11.525 205.271 11.525C205.237 11.525 205.229 11.4808 205.229 11.2928C205.229 11.113 205.237 11.0577 205.271 11.0439C205.294 11.0356 205.314 11.0052 205.314 10.9748C205.314 10.9361 205.368 10.8918 205.505 10.8227C205.677 10.7342 205.719 10.7232 205.916 10.7232C206.039 10.7232 206.142 10.7121 206.147 10.6983C206.153 10.6844 206.202 10.6485 206.256 10.6208C206.367 10.56 206.401 10.4522 206.33 10.383C206.273 10.3277 206.27 10.1701 206.324 10.1701C206.367 10.1701 206.396 10.0899 206.398 9.96275C206.401 9.8798 206.456 9.78302 206.498 9.78302C206.524 9.78302 206.712 9.5867 206.712 9.56182C206.712 9.55352 206.784 9.49269 206.872 9.42356C207.052 9.28531 207.126 9.15811 207.175 8.90649C207.192 8.80971 207.22 8.73229 207.237 8.73229C207.255 8.73229 207.286 8.69358 207.309 8.64934C207.337 8.58297 207.34 8.51938 207.314 8.33965C207.269 8.02166 207.272 7.98572 207.337 7.98572C207.369 7.98572 207.4 7.97466 207.409 7.96083C207.434 7.92212 207.688 7.9 207.728 7.93318C207.751 7.94977 207.768 7.9553 207.768 7.94701C207.768 7.93594 207.788 7.94701 207.814 7.96913C207.837 7.99401 207.879 8.01337 207.905 8.01337C208.062 8.01337 208.499 8.43643 208.673 8.75441C208.738 8.87054 208.821 9.06686 208.855 9.18853C208.91 9.38208 208.915 9.45674 208.901 9.78302C208.887 10.1784 208.881 10.1923 208.676 10.607C208.627 10.701 208.581 10.7785 208.57 10.7785C208.559 10.7785 208.502 10.8393 208.442 10.9167C208.213 11.207 207.774 11.4808 207.403 11.5637C207.112 11.6273 205.314 11.6301 205.314 11.5665Z" fill="#A4C7FF"/>
<path d="M192.076 20.1972C192.085 20.1757 192.11 20.1623 192.132 20.1703C192.154 20.1784 192.179 20.1864 192.184 20.1864C192.19 20.1864 192.195 20.1999 192.195 20.2133C192.195 20.2294 192.165 20.2401 192.126 20.2401C192.076 20.2401 192.063 20.2294 192.076 20.1972Z" fill="#A4C7FF"/>
<path d="M191.478 20.1307C191.53 20.0964 191.56 20.0964 191.56 20.1307C191.56 20.1464 191.533 20.157 191.5 20.157C191.449 20.157 191.446 20.1517 191.478 20.1307Z" fill="#A4C7FF"/>
<path d="M191.299 20.1C191.21 20.0861 190.751 19.9894 190.586 19.9506C190.571 19.9479 190.546 19.9424 190.528 19.9368C190.514 19.9341 190.469 19.9147 190.429 19.8953C190.389 19.8732 190.255 19.8262 190.129 19.7875C189.667 19.6493 188.899 19.3202 188.508 19.0879C188.411 19.0326 188.317 18.9829 188.3 18.9801C188.26 18.9746 187.592 18.5266 187.321 18.3248C187.204 18.2391 186.956 18.0289 186.77 17.8602C186.519 17.6335 186.434 17.5367 186.434 17.487C186.434 17.4455 186.451 17.4206 186.476 17.4206C186.505 17.4206 186.519 17.3929 186.519 17.3266C186.519 17.2768 186.528 17.1939 186.536 17.1469C186.553 17.0694 186.565 17.0611 186.662 17.0611C186.722 17.0611 186.776 17.0722 186.782 17.0888C186.793 17.1192 187.073 17.1634 187.17 17.1496C187.21 17.1441 187.233 17.122 187.233 17.086C187.233 17.0528 187.253 17.0335 187.29 17.0335C187.387 17.0335 187.461 16.9478 187.461 16.8344C187.461 16.7763 187.472 16.7293 187.489 16.7293C187.504 16.7293 187.527 16.6796 187.535 16.6215C187.552 16.5247 187.569 16.5026 187.678 16.4528C187.746 16.4224 187.803 16.3782 187.803 16.356C187.803 16.3312 187.823 16.3063 187.846 16.298C187.869 16.2869 187.889 16.2565 187.889 16.2288C187.889 16.1957 187.909 16.1763 187.946 16.1763C187.989 16.1763 188.009 16.1514 188.023 16.0934C188.032 16.0491 188.052 16.0104 188.066 16.0104C188.103 16.0104 188.16 15.9523 188.183 15.8943C188.191 15.8666 188.226 15.8445 188.257 15.8445C188.288 15.8445 188.348 15.8003 188.394 15.7422C188.505 15.5984 188.625 15.485 188.668 15.485C188.688 15.485 188.725 15.4601 188.754 15.4297C188.779 15.3993 188.819 15.3744 188.839 15.3744C188.885 15.3744 188.859 15.0869 188.808 15.0371C188.788 15.0177 188.774 14.9652 188.774 14.9182C188.774 14.838 188.782 14.8325 188.925 14.7993C189.008 14.7827 189.093 14.7661 189.119 14.7661C189.176 14.7661 189.316 14.8297 189.316 14.8574C189.316 14.8684 189.339 14.8767 189.37 14.8767C189.441 14.8767 189.527 14.9237 189.724 15.0703C190.186 15.4159 190.483 15.6067 190.885 15.8113C191.299 16.0242 191.975 16.262 192.383 16.3367C192.557 16.3671 192.774 16.4086 192.868 16.4252C193.142 16.4749 194.175 16.4943 194.409 16.4528C194.521 16.4362 194.658 16.4141 194.717 16.4086C194.84 16.3975 195.243 16.3007 195.357 16.2537C195.402 16.2371 195.477 16.2067 195.528 16.1874C195.576 16.1652 195.636 16.1487 195.659 16.1487C195.682 16.1487 195.762 16.1238 195.836 16.0906C195.907 16.0602 195.976 16.0381 195.982 16.0463C195.99 16.0519 195.947 16.0795 195.887 16.1044C195.828 16.1293 195.756 16.1625 195.73 16.1763C195.702 16.1929 195.659 16.204 195.633 16.204C195.608 16.204 195.528 16.2344 195.454 16.2731C195.268 16.3699 194.912 16.4528 194.623 16.4694C194.521 16.4749 194.435 16.4915 194.429 16.5081C194.424 16.5219 194.372 16.5358 194.315 16.5385C194.23 16.5385 194.221 16.5441 194.267 16.5634C194.312 16.5828 194.315 16.5883 194.275 16.5883C194.249 16.5911 194.221 16.6021 194.21 16.6187C194.201 16.6325 194.249 16.627 194.321 16.6077C194.458 16.5662 194.481 16.5717 194.481 16.6464C194.481 16.6768 194.438 16.71 194.375 16.7349L194.267 16.7763L194.366 16.804C194.421 16.8178 194.469 16.851 194.475 16.8759C194.483 16.9091 194.458 16.9201 194.361 16.9284C194.249 16.9367 194.238 16.9422 194.221 17.0307C194.198 17.1358 194.155 17.1717 194.078 17.1524C194.041 17.1413 194.024 17.1524 194.021 17.1883C194.018 17.227 194.013 17.2215 193.998 17.1717C193.987 17.1275 193.956 17.0998 193.91 17.0916C193.87 17.0888 193.83 17.0694 193.821 17.0556C193.784 17.0003 193.742 17.0639 193.759 17.1441C193.773 17.2215 193.767 17.227 193.693 17.227C193.647 17.227 193.587 17.2464 193.556 17.2685C193.502 17.31 193.516 17.3653 193.585 17.3653C193.616 17.3653 193.619 17.3764 193.596 17.4178C193.582 17.4482 193.567 17.4953 193.567 17.5257C193.567 17.5533 193.536 17.5948 193.496 17.6142C193.459 17.6335 193.413 17.686 193.399 17.7275C193.385 17.7718 193.351 17.8077 193.325 17.8077C193.299 17.8077 193.242 17.8271 193.199 17.8492C193.119 17.8879 193.117 17.8851 193.1 17.8215C193.088 17.7773 193.062 17.7524 193.025 17.7524C192.98 17.7524 192.968 17.7718 192.968 17.8575C192.968 17.9321 192.951 17.9708 192.908 17.9957C192.868 18.0206 192.854 18.051 192.863 18.087C192.871 18.1174 192.863 18.1395 192.84 18.1395C192.82 18.1395 192.797 18.1589 192.786 18.181C192.777 18.2031 192.749 18.2225 192.723 18.2225C192.683 18.2225 192.686 18.2308 192.731 18.2722C192.777 18.311 192.786 18.3441 192.774 18.452C192.766 18.5653 192.754 18.5847 192.711 18.5736C192.683 18.5681 192.64 18.5847 192.612 18.6179C192.566 18.6704 192.54 18.6704 192.226 18.6538C191.938 18.64 191.884 18.6428 191.844 18.6787C191.818 18.7036 191.798 18.7423 191.798 18.7644C191.798 18.7865 191.784 18.8031 191.767 18.8031C191.747 18.8031 191.741 18.8363 191.755 18.9027C191.775 19.0133 191.727 19.1626 191.67 19.1626C191.653 19.1626 191.621 19.2124 191.601 19.2732C191.556 19.4253 191.47 19.4557 191.279 19.3949C191.131 19.3479 191.056 19.3562 191.056 19.4253C191.056 19.4502 191.031 19.4668 190.996 19.4668C190.962 19.4668 190.942 19.4806 190.951 19.5027C190.956 19.5221 191.005 19.5331 191.068 19.5304C191.136 19.5248 191.17 19.5359 191.17 19.5608C191.17 19.5857 191.142 19.594 191.093 19.5884C191.048 19.5829 191.036 19.5857 191.065 19.594C191.145 19.6188 191.122 19.652 191.034 19.6382C190.988 19.6327 190.905 19.641 190.845 19.6548C190.782 19.6741 190.748 19.6741 190.76 19.6575C190.777 19.6299 190.491 19.6465 190.463 19.6741C190.431 19.7046 190.517 19.829 190.586 19.8539C190.625 19.8677 190.657 19.8926 190.657 19.9092C190.657 19.9258 190.671 19.9313 190.688 19.9202C190.705 19.9119 190.731 19.9202 190.745 19.9396C190.765 19.97 190.777 19.9728 190.794 19.9424C190.808 19.923 190.842 19.9064 190.874 19.9092C191.016 19.9147 191.079 19.9258 191.068 19.9424C191.054 19.9617 191.213 20.0198 191.285 20.0198C191.336 20.0198 191.45 20.0917 191.427 20.1083C191.419 20.1138 191.362 20.111 191.299 20.1ZM192.934 16.5441C192.905 16.5385 192.86 16.5385 192.834 16.5441C192.806 16.5524 192.828 16.5579 192.883 16.5579C192.937 16.5579 192.96 16.5524 192.934 16.5441Z" fill="#A4C7FF"/>
<path d="M194.28 17.0424C194.238 16.9565 194.249 16.943 194.327 16.9967C194.396 17.0424 194.404 17.0773 194.349 17.096C194.327 17.1041 194.299 17.0826 194.28 17.0424Z" fill="#A4C7FF"/>
<path d="M196.436 15.8374C196.467 15.8126 196.516 15.7932 196.544 15.7932C196.573 15.7932 196.595 15.7821 196.595 15.7683C196.595 15.7545 196.621 15.7379 196.652 15.7296C196.684 15.7213 196.709 15.7185 196.709 15.7241C196.709 15.7434 196.521 15.843 196.453 15.8596C196.385 15.8789 196.385 15.8761 196.436 15.8374Z" fill="#A4C7FF"/>
<path d="M196.773 15.6575C196.804 15.6271 196.839 15.5994 196.853 15.5994C196.867 15.5994 196.958 15.5441 197.055 15.4805C197.155 15.4141 197.278 15.3367 197.332 15.3118C197.386 15.2869 197.535 15.1791 197.66 15.0768C197.786 14.9717 197.894 14.8888 197.9 14.8943C197.914 14.9081 197.797 15.016 197.646 15.1293C197.575 15.1819 197.506 15.2399 197.495 15.2593C197.484 15.2787 197.458 15.2952 197.441 15.2952C197.424 15.2952 197.298 15.3671 197.164 15.4529C197.03 15.5413 196.873 15.6353 196.819 15.6658L196.719 15.7155L196.773 15.6575Z" fill="#A4C7FF"/>
<path d="M202.709 13.8684C202.656 13.8147 202.653 13.8013 202.7 13.8013C202.767 13.8013 202.819 13.8496 202.786 13.8818C202.764 13.9033 202.742 13.9006 202.709 13.8684Z" fill="#A4C7FF"/>
<path d="M198.42 11.6044C198.298 11.574 198.292 11.5657 198.283 11.4661C198.272 11.35 198.306 11.3113 198.412 11.3113C198.457 11.3113 198.483 11.2892 198.495 11.2366C198.506 11.1924 198.597 11.079 198.7 10.9795L198.885 10.7997H199.245H199.605L199.619 10.6394L199.633 10.4762L199.847 10.3407C199.964 10.2661 200.075 10.2052 200.095 10.2052C200.118 10.2052 200.127 10.1527 200.124 10.0476L200.118 9.88726L200.332 9.87897C200.498 9.87344 200.555 9.85961 200.598 9.81814C200.626 9.78772 200.686 9.76283 200.732 9.76283C200.86 9.76283 200.989 9.58863 200.989 9.4089C200.989 9.26235 201.011 9.23747 201.148 9.23747C201.208 9.23747 201.217 9.22364 201.217 9.14069C201.217 9.05774 201.231 9.03285 201.308 8.99414C201.359 8.96925 201.439 8.90566 201.488 8.85312C201.534 8.80058 201.602 8.73146 201.636 8.69828C201.685 8.65404 201.699 8.59873 201.713 8.43559C201.733 8.13696 201.733 8.06231 201.702 8.05401C201.685 8.04848 201.673 8.00147 201.673 7.9517V7.86046L201.916 7.8411C202.05 7.83004 202.158 7.81068 202.158 7.79686C202.158 7.78303 203.237 7.77197 204.664 7.77197C207.081 7.77197 207.175 7.77474 207.409 7.82727C207.543 7.86046 207.68 7.9047 207.714 7.92682C207.751 7.94894 207.78 7.96 207.78 7.9517C207.78 7.94064 207.8 7.95447 207.826 7.97659C207.848 8.00147 207.894 8.02083 207.926 8.02083C207.954 8.02083 207.98 8.03466 207.98 8.05125C207.98 8.06507 207.988 8.07337 208.003 8.06784C208.014 8.05954 208.068 8.08443 208.122 8.12037C208.231 8.19227 208.179 8.21439 208.043 8.15079C208 8.13143 207.931 8.11761 207.886 8.12037C207.843 8.12037 207.814 8.11761 207.82 8.10931C207.828 8.10378 207.811 8.07613 207.786 8.04848C207.749 8.00977 207.712 8.00424 207.626 8.01807C207.458 8.04295 207.409 8.15079 207.429 8.46324C207.44 8.62915 207.435 8.70934 207.412 8.72316C207.395 8.73422 207.38 8.78399 207.38 8.831C207.378 8.90842 207.375 8.91395 207.341 8.87248C207.309 8.831 207.301 8.84759 207.272 8.99691C207.224 9.24853 207.149 9.37572 206.97 9.51398C206.881 9.5831 206.81 9.64394 206.81 9.65223C206.81 9.67712 206.621 9.87344 206.596 9.87344C206.553 9.87344 206.499 9.97022 206.496 10.0532C206.493 10.1804 206.464 10.2605 206.419 10.2605C206.385 10.2605 206.385 10.2688 206.425 10.3048C206.459 10.338 206.467 10.3905 206.462 10.5039C206.453 10.6449 206.445 10.6615 206.356 10.7085C206.305 10.7361 206.242 10.7776 206.222 10.7997C206.191 10.8274 206.131 10.8329 205.988 10.8246C205.808 10.8108 205.785 10.8163 205.606 10.9103C205.471 10.9795 205.412 11.0265 205.412 11.0624C205.412 11.0928 205.389 11.1288 205.363 11.1426C205.315 11.1703 205.317 11.1703 205.369 11.173C205.42 11.1758 205.423 11.1758 205.377 11.2034C205.312 11.2394 205.303 11.4495 205.369 11.4495C205.392 11.4495 205.412 11.4689 205.412 11.491C205.412 11.5187 205.44 11.5325 205.497 11.5325C205.549 11.5325 205.583 11.5463 205.583 11.5684C205.583 11.6237 204.464 11.6431 201.274 11.6403C199.259 11.6376 198.514 11.6293 198.42 11.6044Z" fill="#A4C7FF"/>
<path d="M205.752 11.5906C205.752 11.574 205.838 11.563 205.952 11.563C206.066 11.563 206.152 11.574 206.152 11.5906C206.152 11.6072 206.066 11.6183 205.952 11.6183C205.838 11.6183 205.752 11.6072 205.752 11.5906Z" fill="#A4C7FF"/>
<path d="M207.553 11.4962C207.57 11.4488 207.63 11.4409 207.63 11.4857C207.63 11.5094 207.611 11.5278 207.586 11.5278C207.561 11.5278 207.547 11.5147 207.553 11.4962Z" fill="#A4C7FF"/>
<path d="M207.799 11.3789C207.791 11.3601 207.816 11.3306 207.852 11.3144C207.943 11.2742 207.974 11.2769 207.974 11.3225C207.974 11.3762 207.816 11.4272 207.799 11.3789Z" fill="#A4C7FF"/>
<path d="M208.534 10.7527C208.534 10.7237 208.551 10.7026 208.57 10.7026C208.589 10.7026 208.605 10.7184 208.605 10.7395C208.605 10.7606 208.589 10.7816 208.57 10.7895C208.548 10.7974 208.534 10.7816 208.534 10.7527Z" fill="#A4C7FF"/>
<path d="M208.635 10.6665C208.632 10.6423 208.615 10.6181 208.599 10.6101C208.579 10.6047 208.596 10.594 208.64 10.5859C208.693 10.5752 208.709 10.5806 208.69 10.602C208.679 10.6181 208.66 10.6504 208.651 10.6718C208.64 10.704 208.635 10.704 208.635 10.6665Z" fill="#A4C7FF"/>
<path d="M206.636 5.60144C206.636 5.49913 206.693 5.44936 206.813 5.44936C206.85 5.44936 206.93 5.42447 206.99 5.39682C207.047 5.36641 207.132 5.33046 207.178 5.31387C207.229 5.29728 207.269 5.26133 207.281 5.21986C207.289 5.17838 207.323 5.14243 207.363 5.13414C207.4 5.12584 207.435 5.0899 207.446 5.05119C207.466 4.97653 207.552 4.95164 207.794 4.95164C207.911 4.95164 207.948 4.94058 207.948 4.91017C207.948 4.88805 207.974 4.86869 208.005 4.86869C208.037 4.86869 208.063 4.85763 208.063 4.84104C208.063 4.82721 208.08 4.81339 208.1 4.81339C208.131 4.81062 208.219 4.69449 208.359 4.47052C208.388 4.42351 208.431 4.31567 208.451 4.23272C208.599 3.62164 208.576 3.6797 208.679 3.6797C208.796 3.6797 208.807 3.69906 208.807 3.88155C208.807 4.1 208.616 4.68896 208.522 4.75809C208.511 4.76638 208.473 4.81615 208.439 4.87146C208.328 5.04842 208.005 5.3194 207.749 5.44936C207.512 5.57102 207.386 5.60144 207.035 5.62632C206.967 5.63185 206.904 5.65121 206.898 5.6678C206.893 5.68439 206.83 5.69822 206.761 5.69822C206.636 5.69822 206.636 5.69822 206.636 5.60144Z" fill="#A4C7FF"/>
<path d="M208.597 3.60569C208.589 3.59187 208.575 3.53103 208.563 3.46744C208.552 3.40107 208.532 3.34854 208.517 3.34854C208.483 3.34854 208.486 3.19093 208.52 3.12457C208.537 3.09691 208.577 3.07203 208.606 3.07203C208.643 3.07203 208.663 3.05267 208.663 3.01673C208.663 2.98631 208.68 2.96143 208.703 2.96143C208.752 2.96143 208.797 3.12733 208.823 3.41213L208.843 3.62505H208.726C208.663 3.62505 208.603 3.61675 208.597 3.60569Z" fill="#A4C7FF"/>
<path d="M188.239 18.9565C188.212 18.9355 188.201 18.9118 188.215 18.9039C188.231 18.896 188.256 18.9118 188.275 18.9407C188.313 19.0013 188.308 19.0039 188.239 18.9565Z" fill="#A4C7FF"/>
<path d="M187.054 18.1066C186.937 17.9988 186.837 17.9075 186.829 17.9075C186.82 17.9048 186.763 17.855 186.697 17.7942C186.606 17.7085 186.586 17.6725 186.603 17.6283C186.62 17.5813 186.626 17.5868 186.629 17.6559C186.632 17.7029 186.64 17.7223 186.649 17.7029C186.66 17.6753 186.672 17.6753 186.703 17.7002C186.726 17.7168 186.743 17.7223 186.743 17.7112C186.743 17.6974 186.766 17.7085 186.794 17.7306C186.82 17.7555 186.871 17.7831 186.909 17.7942C186.943 17.8025 186.966 17.8246 186.957 17.8384C186.946 17.8522 186.951 17.8633 186.966 17.8633C186.98 17.8633 187.006 17.8937 187.023 17.9324C187.043 17.9711 187.108 18.0707 187.171 18.1536C187.234 18.2366 187.282 18.3057 187.277 18.3057C187.268 18.3057 187.168 18.2172 187.054 18.1066Z" fill="#A4C7FF"/>
<path d="M186.293 17.413C185.791 16.9153 185.329 16.3346 184.921 15.6737C184.752 15.3972 184.367 14.6424 184.304 14.4599C184.282 14.3935 184.213 14.1944 184.15 14.0202L184.036 13.7022L184.119 13.6939C184.185 13.6857 184.202 13.6691 184.21 13.611C184.216 13.5668 184.244 13.5253 184.282 13.5087C184.353 13.481 184.359 13.4561 184.347 13.293C184.344 13.2349 184.364 13.1437 184.39 13.0939C184.433 13.0054 184.447 12.9971 184.561 12.9971C184.712 12.9971 184.775 13.0193 184.775 13.069C184.775 13.0912 184.801 13.1077 184.832 13.1077C184.864 13.1077 184.898 13.1271 184.906 13.1492C184.938 13.2239 185.003 13.1962 185.003 13.1077C185.003 13.0442 185.023 13.0165 185.092 12.9833C185.138 12.9584 185.203 12.9142 185.235 12.8838C185.272 12.8478 185.363 12.8146 185.477 12.7981C185.577 12.7815 185.66 12.7566 185.66 12.7428C185.66 12.7289 185.743 12.7206 185.842 12.7234C186.054 12.7317 186.102 12.704 186.131 12.5741C186.156 12.458 186.253 12.3059 186.302 12.3059C186.322 12.3059 186.353 12.2893 186.37 12.2672C186.39 12.245 186.445 12.2174 186.49 12.2091C186.55 12.1953 186.579 12.1704 186.59 12.1178C186.619 12.01 186.656 11.9741 186.747 11.9741C186.815 11.9741 186.83 11.963 186.83 11.9077C186.83 11.8303 186.93 11.6976 186.99 11.6976C187.012 11.6976 187.038 11.6616 187.049 11.6146C187.058 11.5704 187.075 11.5316 187.089 11.5316C187.104 11.5316 187.115 11.4819 187.115 11.4238C187.115 11.363 187.129 11.3049 187.144 11.2966C187.161 11.2883 187.172 11.2496 187.172 11.2109C187.172 11.1335 187.215 11.045 187.281 10.9814C187.315 10.9482 187.321 10.8819 187.306 10.6468C187.301 10.4864 187.298 10.315 187.306 10.268C187.321 10.1823 187.329 10.1768 187.435 10.1768H187.546L187.543 10.5722C187.543 10.7878 187.555 11.0782 187.569 11.2137C187.589 11.4238 187.586 11.4736 187.549 11.5399C187.523 11.5814 187.492 11.6146 187.48 11.6146C187.469 11.6146 187.458 11.645 187.458 11.6837C187.458 11.728 187.44 11.7529 187.415 11.7529C187.392 11.7529 187.372 11.7667 187.372 11.7805C187.372 11.822 187.463 11.8137 187.526 11.7667C187.62 11.6976 187.652 11.7197 187.683 11.8718C187.829 12.5437 188.197 13.3179 188.705 14.0202C188.85 14.2221 189.275 14.6838 189.506 14.8912C189.632 15.0046 189.649 15.0295 189.606 15.0461C189.578 15.0544 189.543 15.0488 189.532 15.0322C189.518 15.0129 189.512 15.024 189.521 15.0599C189.535 15.1235 189.424 15.2175 189.404 15.1567C189.398 15.1401 189.364 15.1346 189.327 15.1428C189.27 15.1567 189.261 15.1511 189.275 15.0986C189.287 15.0571 189.301 15.0488 189.321 15.0682C189.364 15.1097 189.455 15.1069 189.455 15.0682C189.455 15.0157 189.361 14.9631 189.275 14.9604C189.23 14.9604 189.201 14.9493 189.21 14.9355C189.227 14.9078 189.121 14.8691 189.056 14.8774C189.033 14.8802 189.004 14.8968 188.996 14.9106C188.984 14.9272 188.947 14.9327 188.913 14.9244C188.861 14.9106 188.859 14.9161 188.89 14.9521C188.91 14.9769 188.933 15.0599 188.941 15.1373C188.953 15.259 188.967 15.2839 189.047 15.3336C189.098 15.3641 189.135 15.4028 189.13 15.4166C189.127 15.4332 189.061 15.4525 188.987 15.4608C188.901 15.4691 188.839 15.4913 188.822 15.5217C188.807 15.5466 188.779 15.5687 188.756 15.5687C188.707 15.5687 188.59 15.6765 188.476 15.8258C188.431 15.8839 188.371 15.9281 188.339 15.9281C188.308 15.9281 188.274 15.9503 188.265 15.9751C188.237 16.0443 188.165 16.1217 188.14 16.1051C188.128 16.0996 188.108 16.1466 188.097 16.2102C188.085 16.2765 188.071 16.3125 188.065 16.2959C188.045 16.2406 187.971 16.2544 187.971 16.3125C187.971 16.3401 187.951 16.3733 187.926 16.3816C187.9 16.3899 187.886 16.4148 187.894 16.4369C187.903 16.459 187.863 16.495 187.771 16.5337C187.649 16.5862 187.634 16.6056 187.617 16.7024C187.609 16.7632 187.586 16.813 187.572 16.813C187.555 16.813 187.549 16.8572 187.56 16.9208C187.575 17.0148 187.569 17.0314 187.517 17.048C187.486 17.0563 187.458 17.0784 187.458 17.0922C187.458 17.1061 187.426 17.1171 187.386 17.1171C187.335 17.1171 187.315 17.1309 187.315 17.1724C187.315 17.2084 187.295 17.2277 187.258 17.2277C187.226 17.2277 187.192 17.2471 187.184 17.2692C187.172 17.2913 187.135 17.3107 187.098 17.3107C187.058 17.3107 187.021 17.2913 187.012 17.2692C186.984 17.1973 186.915 17.2222 186.913 17.3051C186.91 17.3604 186.904 17.366 186.895 17.3245C186.881 17.2692 186.807 17.2028 186.761 17.2001C186.75 17.2001 186.744 17.2194 186.756 17.2415C186.764 17.2637 186.756 17.283 186.738 17.283C186.718 17.283 186.721 17.2969 186.744 17.3245C186.764 17.3494 186.773 17.3743 186.764 17.3853C186.753 17.3936 186.767 17.4185 186.796 17.4379C186.841 17.4711 186.841 17.4766 186.787 17.5153C186.744 17.5457 186.721 17.5485 186.69 17.5236C186.659 17.4987 186.647 17.4987 186.639 17.5264C186.63 17.5429 186.616 17.554 186.601 17.5457C186.587 17.5374 186.559 17.5485 186.536 17.5706C186.502 17.6065 186.47 17.5844 186.293 17.413Z" fill="#A4C7FF"/>
<path d="M187.604 17.1449C187.604 17.0564 187.649 17.0425 187.797 17.0785C187.888 17.1034 187.874 17.1449 187.774 17.1449C187.729 17.1449 187.689 17.1559 187.689 17.1697C187.689 17.1836 187.669 17.2002 187.646 17.2112C187.615 17.2223 187.604 17.2057 187.604 17.1449Z" fill="#A4C7FF"/>
<path d="M188.97 15.8718C188.97 15.7667 189.101 15.7003 189.195 15.7584C189.257 15.7971 189.215 15.8496 189.089 15.8856C188.978 15.9188 188.97 15.916 188.97 15.8718Z" fill="#A4C7FF"/>
<path d="M195.974 11.6154C195.412 11.5435 194.867 11.1205 194.578 10.5315C194.393 10.1527 194.342 9.61904 194.453 9.20427C194.504 8.99966 194.601 8.77569 194.647 8.73974C194.658 8.73144 194.687 8.6955 194.71 8.65679C194.838 8.46323 195.132 8.17843 195.278 8.10377C195.497 7.99593 195.9 7.85768 196.077 7.83003C196.222 7.80791 202.548 7.77473 202.751 7.79685C202.811 7.80238 202.771 7.82726 202.68 7.84385C202.634 7.84938 202.52 7.8715 202.426 7.88809C202.332 7.90468 202.197 7.92127 202.126 7.92404C201.832 7.9351 201.744 7.9434 201.778 7.95722C201.795 7.96275 201.812 8.00146 201.812 8.03741C201.812 8.09271 201.826 8.10377 201.906 8.10654C201.955 8.1093 201.975 8.11483 201.946 8.12313C201.921 8.12866 201.906 8.14801 201.915 8.1646C201.926 8.18119 201.915 8.20884 201.892 8.22543C201.809 8.28627 201.781 8.38028 201.798 8.52959C201.815 8.66508 201.812 8.68444 201.735 8.7591C201.692 8.8061 201.615 8.88352 201.57 8.93606C201.521 8.9886 201.441 9.05219 201.39 9.07708C201.307 9.11856 201.299 9.13791 201.299 9.25128C201.299 9.35635 201.29 9.37571 201.244 9.37571C201.213 9.37571 201.182 9.36465 201.17 9.34806C201.15 9.31764 201.07 9.34253 201.07 9.37847C201.07 9.3923 201.122 9.40336 201.184 9.40336C201.281 9.40336 201.299 9.41442 201.316 9.47525C201.33 9.52502 201.316 9.56374 201.27 9.61074C201.196 9.68816 201.156 9.6771 201.156 9.58309C201.156 9.48355 201.102 9.46972 201.082 9.5665C201.065 9.64116 200.828 9.92873 200.779 9.92873C200.768 9.92873 200.756 9.90661 200.751 9.88172C200.742 9.84024 200.736 9.84024 200.682 9.89278C200.636 9.94255 200.585 9.95638 200.414 9.96744C200.297 9.97573 200.203 9.98679 200.208 9.99509C200.211 10.0034 200.214 10.0366 200.214 10.067C200.214 10.1168 200.234 10.1223 200.44 10.1223C200.565 10.1223 200.674 10.1333 200.682 10.1444C200.691 10.1582 200.676 10.1942 200.654 10.2274C200.617 10.2827 200.585 10.2882 200.377 10.2882C200.143 10.2882 200.143 10.2882 199.923 10.4292C199.695 10.573 199.675 10.6062 199.726 10.7389C199.772 10.8523 199.695 10.8937 199.429 10.8965C199.304 10.8993 199.155 10.891 199.096 10.8799C198.996 10.8633 198.984 10.8716 198.793 11.0514C198.685 11.1564 198.588 11.2753 198.576 11.3196C198.562 11.3721 198.539 11.3942 198.493 11.3942C198.459 11.3942 198.411 11.408 198.388 11.4219C198.322 11.4606 198.391 11.5076 198.528 11.5187C198.593 11.5214 198.656 11.5325 198.665 11.5435C198.676 11.5518 198.747 11.5601 198.827 11.5601C199.061 11.5601 199.358 11.5933 199.358 11.6182C199.358 11.6486 196.211 11.6431 195.974 11.6154Z" fill="#A4C7FF"/>
<path d="M199.386 11.6142C199.386 11.6011 199.405 11.5879 199.427 11.5879C199.449 11.5879 199.469 11.6011 199.469 11.6142C199.469 11.63 199.449 11.6405 199.427 11.6405C199.405 11.6405 199.386 11.63 199.386 11.6142Z" fill="#A4C7FF"/>
<path d="M203.191 7.82829C203.154 7.82276 203.125 7.80617 203.125 7.79235C203.125 7.77852 203.422 7.77023 203.861 7.77299L204.595 7.77576L203.95 7.79511C203.596 7.80617 203.293 7.82 203.279 7.82829C203.265 7.83382 203.225 7.83382 203.191 7.82829Z" fill="#A4C7FF"/>
<path d="M196.899 5.92391C196.836 5.85755 196.833 5.72482 196.893 5.72482C196.916 5.72482 196.936 5.70547 196.936 5.68058C196.936 5.65569 196.958 5.63081 196.987 5.62251C197.018 5.61698 197.058 5.56721 197.081 5.51191C197.101 5.45937 197.141 5.40407 197.17 5.39025C197.244 5.35153 197.384 5.35983 197.404 5.40684C197.412 5.43172 197.455 5.44831 197.512 5.44831H197.606L197.358 5.68887C197.218 5.81883 197.107 5.93773 197.107 5.94879C197.107 5.9958 196.944 5.97368 196.899 5.92391Z" fill="#A4C7FF"/>
<path d="M206.149 5.68772C205.793 5.6103 205.561 5.50246 205.285 5.28125C204.917 4.98539 204.728 4.72824 204.583 4.319C204.386 3.75769 204.446 3.07472 204.734 2.61295C204.871 2.39451 205.102 2.11523 205.248 1.9908C205.419 1.84978 205.85 1.6507 206.144 1.57604C206.403 1.51244 206.86 1.50138 207.082 1.55115C207.159 1.57051 207.234 1.5871 207.248 1.58987C207.265 1.59263 207.291 1.60093 207.305 1.60369C207.322 1.60646 207.488 1.68664 207.673 1.78066C207.964 1.92444 208.047 1.98251 208.252 2.18436C208.58 2.50234 208.743 2.82309 208.795 3.24339C208.806 3.35122 208.8 3.37335 208.763 3.37335C208.729 3.37335 208.717 3.34846 208.717 3.27933C208.717 3.16596 208.666 3.12449 208.612 3.19361C208.592 3.22403 208.586 3.25168 208.6 3.25998C208.62 3.2738 208.669 3.42588 208.672 3.49501C208.678 3.55308 208.746 3.54202 208.746 3.48395C208.746 3.448 208.76 3.42865 208.783 3.43418C208.846 3.4563 208.84 3.79917 208.772 4.0895C208.709 4.36601 208.68 4.42408 208.615 4.42408C208.555 4.42408 208.566 4.36601 208.632 4.34942C208.695 4.33283 208.709 4.29688 208.658 4.28029C208.612 4.26647 208.66 4.11992 208.712 4.11992C208.749 4.11992 208.746 4.11162 208.7 4.07844C208.646 4.03973 208.646 4.03697 208.712 4.02037C208.783 4.00102 208.797 3.95401 208.732 3.95401C208.712 3.95401 208.678 3.93189 208.663 3.90701C208.638 3.86277 208.632 3.86553 208.629 3.92636C208.626 3.96507 208.626 4.01208 208.629 4.02867C208.632 4.04803 208.615 4.09227 208.592 4.12545C208.563 4.16969 208.558 4.20287 208.575 4.23052C208.615 4.28859 208.609 4.31347 208.561 4.31347C208.535 4.31347 208.518 4.33836 208.518 4.37154C208.518 4.4379 208.452 4.55957 208.338 4.70888C208.252 4.81672 208.255 4.81948 208.384 4.81119C208.426 4.80842 208.461 4.81672 208.461 4.83054C208.461 4.87202 208.269 5.06834 208.258 5.03793C208.252 5.02134 208.212 5.00198 208.17 4.99368C208.127 4.98815 208.078 4.97156 208.061 4.96327C208.044 4.95221 208.035 4.9605 208.038 4.97986C208.047 5.01581 207.724 5.09323 207.704 5.06005C207.676 5.01581 207.547 5.06834 207.53 5.13194C207.519 5.17065 207.485 5.2066 207.45 5.21489C207.416 5.22319 207.373 5.2619 207.359 5.30337C207.336 5.35868 207.294 5.39186 207.205 5.41951L207.08 5.46098L207.205 5.48034C207.274 5.4914 207.365 5.49417 207.405 5.48587C207.605 5.44716 207.662 5.44163 207.662 5.46375C207.662 5.49417 207.499 5.58541 207.445 5.58541C207.422 5.58541 207.405 5.59647 207.405 5.61306C207.405 5.6656 207.099 5.72643 206.777 5.73749C206.506 5.74855 206.398 5.74026 206.149 5.68772ZM206.817 5.57159C206.828 5.53564 206.823 5.53288 206.777 5.55776C206.711 5.59371 206.703 5.61306 206.76 5.61306C206.783 5.61306 206.806 5.59371 206.817 5.57159ZM207.088 5.4997C207.045 5.47481 206.997 5.49417 207.02 5.53011C207.028 5.54394 207.057 5.5467 207.08 5.53841C207.114 5.52735 207.117 5.51629 207.088 5.4997ZM208.686 3.77705C208.66 3.75493 208.658 3.75769 208.672 3.7964C208.68 3.82405 208.692 3.86277 208.692 3.87936C208.695 3.89871 208.7 3.89042 208.709 3.86C208.717 3.83235 208.706 3.7964 208.686 3.77705Z" fill="#A4C7FF"/>
<path d="M207.748 5.40522C207.748 5.38415 207.767 5.36572 207.79 5.36572C207.812 5.36572 207.831 5.37625 207.831 5.38942C207.831 5.40258 207.812 5.41838 207.79 5.42891C207.765 5.43681 207.748 5.42891 207.748 5.40522Z" fill="#A4C7FF"/>
<path d="M207.907 5.30581C207.899 5.29001 207.91 5.27158 207.934 5.26369C207.986 5.24262 208.016 5.26369 207.989 5.30318C207.967 5.34004 207.929 5.34004 207.907 5.30581Z" fill="#A4C7FF"/>
<path d="M197.761 5.25885C197.761 5.2395 197.736 5.22567 197.707 5.22567C197.587 5.22567 197.562 5.19526 197.562 5.06253C197.562 4.91045 197.596 4.86621 197.721 4.86621C197.87 4.86621 197.904 4.8911 197.904 4.99064C197.904 5.04041 197.919 5.08742 197.933 5.09295C197.95 5.09848 197.919 5.14548 197.861 5.19802C197.807 5.24779 197.761 5.27821 197.761 5.25885Z" fill="#A4C7FF"/>
<path d="M198.044 4.61684V4.50624H198.158C198.267 4.50624 198.272 4.50071 198.272 4.42328C198.272 4.34586 198.281 4.34033 198.372 4.34033C198.467 4.34033 198.472 4.34586 198.472 4.43711C198.472 4.52836 198.467 4.53389 198.372 4.53389C198.278 4.53389 198.272 4.53942 198.272 4.63067C198.272 4.72468 198.27 4.72744 198.158 4.72744H198.044V4.61684Z" fill="#A4C7FF"/>
<path d="M208.611 4.49018C208.58 4.45595 208.583 4.45068 208.63 4.45068C208.669 4.45068 208.683 4.46385 208.672 4.49018C208.652 4.53757 208.655 4.53757 208.611 4.49018Z" fill="#A4C7FF"/>
<path d="M198.502 4.15416C198.502 3.99932 198.536 3.95508 198.661 3.95508C198.758 3.95508 198.787 3.99102 198.787 4.11822C198.787 4.21776 198.707 4.28689 198.593 4.28689C198.505 4.28689 198.502 4.28412 198.502 4.15416Z" fill="#A4C7FF"/>
<path d="M199.018 3.73629C199.018 3.60909 199.075 3.48467 199.132 3.48467C199.16 3.48467 199.192 3.45978 199.203 3.42936C199.212 3.39895 199.272 3.32429 199.334 3.26069C199.394 3.19986 199.446 3.13626 199.446 3.12244C199.446 3.10861 199.466 3.09755 199.488 3.09755C199.511 3.09755 199.531 3.07267 199.531 3.04225C199.531 2.99524 199.548 3.00078 199.702 3.09202C199.794 3.14732 199.871 3.20263 199.874 3.21092C199.876 3.25793 199.357 3.73352 199.303 3.73352C199.272 3.73352 199.246 3.75288 199.246 3.775C199.246 3.80541 199.214 3.81648 199.132 3.81648C199.026 3.81648 199.018 3.81095 199.018 3.73629Z" fill="#A4C7FF"/>
<path d="M184.368 14.6036C184.293 14.4404 184.091 13.8957 184.102 13.8847C184.122 13.8625 184.185 13.9565 184.193 14.0174C184.196 14.0561 184.219 14.1059 184.242 14.1307C184.265 14.1556 184.285 14.1999 184.285 14.2275C184.285 14.2552 184.319 14.3713 184.359 14.4847C184.436 14.7059 184.442 14.7695 184.368 14.6036Z" fill="#A4C7FF"/>
<path d="M184.081 13.8079C184.073 13.794 184.027 13.6585 183.979 13.5065C183.685 12.5553 183.545 11.6649 183.545 10.722C183.545 9.7017 183.688 8.78369 184.016 7.7136C184.278 6.8509 184.792 5.78358 185.286 5.08401C185.48 4.81027 185.599 4.65266 185.662 4.58906C185.699 4.55035 185.796 4.43421 185.879 4.33191C186.059 4.10793 186.67 3.50515 186.969 3.25905C187.36 2.93554 187.82 2.60096 188.051 2.471C188.108 2.43782 188.245 2.3604 188.353 2.2968C188.884 1.99541 189.674 1.64977 190.251 1.46728C190.904 1.26266 190.864 1.27372 191.777 1.09399C192.131 1.02486 192.896 0.966797 193.461 0.966797C193.9 0.969562 194.2 0.988918 194.988 1.06634C195.059 1.07464 195.142 1.09123 195.173 1.10505C195.205 1.11611 195.39 1.15482 195.587 1.19077C195.784 1.22395 195.955 1.26266 195.972 1.27649C195.986 1.28755 196.026 1.29861 196.061 1.29861C196.092 1.29861 196.266 1.34838 196.446 1.41198C196.626 1.47281 196.862 1.55299 196.971 1.58894C197.168 1.65254 197.984 2.00647 198.012 2.03965C198.021 2.05071 198.098 2.09219 198.184 2.13366C198.378 2.22768 198.968 2.58161 199.028 2.63967C199.054 2.66456 199.12 2.70051 199.177 2.72539C199.237 2.74751 199.302 2.78899 199.325 2.81664C199.348 2.84429 199.434 2.91618 199.513 2.97701C199.63 3.0655 199.656 3.09591 199.633 3.13186C199.619 3.15951 199.588 3.17886 199.568 3.17886C199.545 3.17886 199.525 3.18993 199.525 3.20375C199.525 3.21758 199.473 3.28117 199.411 3.34477C199.348 3.40837 199.288 3.48855 199.279 3.5245C199.268 3.56874 199.248 3.58257 199.214 3.57427C199.182 3.56598 199.154 3.5798 199.145 3.60469C199.117 3.67658 199.262 3.65999 199.359 3.5798C199.442 3.51068 199.499 3.49408 199.533 3.52727C199.565 3.55768 197.405 5.63426 197.359 5.61767C197.325 5.60384 197.325 5.60108 197.359 5.58725C197.39 5.57343 197.385 5.55684 197.336 5.50983C197.299 5.47665 197.271 5.46006 197.271 5.47665C197.271 5.49324 197.259 5.49877 197.245 5.48771C197.216 5.47389 197.128 5.6232 197.128 5.68403C197.128 5.70615 197.111 5.71445 197.085 5.70615C197.054 5.69509 197.031 5.71721 197.011 5.77805C196.985 5.84441 196.971 5.85823 196.951 5.82782C196.928 5.7974 196.925 5.80017 196.934 5.83058C196.951 5.88865 197.014 5.90247 197.014 5.84994C197.014 5.82505 197.028 5.8057 197.042 5.8057C197.059 5.8057 197.108 5.77528 197.151 5.73657C197.222 5.67021 197.328 5.64256 197.328 5.68956C197.325 5.70062 197.256 5.78081 197.174 5.87206L197.025 6.0352L196.925 5.94948C196.708 5.76698 196.115 5.43517 195.701 5.2665C195.598 5.22503 195.461 5.16696 195.396 5.13931C195.284 5.08954 195.082 5.037 194.645 4.93746C194.289 4.85727 193.923 4.83239 193.284 4.84621C192.676 4.8628 192.588 4.8711 192.12 4.95958C191.76 5.02594 191.218 5.2195 190.667 5.47665C190.219 5.6868 189.606 6.14304 189.195 6.56886C188.932 6.8426 188.63 7.21312 188.553 7.35414C188.522 7.41221 188.473 7.48134 188.447 7.50899C188.39 7.57259 188.025 8.2445 188.025 8.28874C188.025 8.30533 187.994 8.38552 187.957 8.46571C187.868 8.6565 187.691 9.28141 187.62 9.64916C187.586 9.83442 187.56 10.1303 187.548 10.4732L187.531 11.0068L187.466 10.993C187.411 10.9792 187.394 10.9902 187.38 11.0455C187.372 11.0842 187.354 11.1091 187.34 11.1008C187.312 11.0842 187.255 11.2114 187.255 11.2889C187.255 11.3248 187.24 11.3663 187.22 11.3856C187.195 11.4105 187.195 11.4354 187.223 11.4907C187.257 11.5654 187.246 11.5903 187.163 11.6179C187.152 11.6234 187.138 11.6649 187.135 11.7092C187.129 11.8198 187.115 11.8419 187.069 11.8059C187.021 11.7672 186.912 11.8944 186.912 11.9884C186.912 12.0437 186.898 12.0548 186.829 12.0548C186.738 12.0548 186.701 12.088 186.672 12.2013C186.664 12.2428 186.635 12.276 186.612 12.276C186.59 12.276 186.57 12.2871 186.57 12.3036C186.57 12.3175 186.553 12.323 186.533 12.3147C186.51 12.3064 186.476 12.3202 186.456 12.3451C186.436 12.3672 186.404 12.3866 186.384 12.3866C186.336 12.3866 186.239 12.5387 186.216 12.652C186.182 12.8014 186.113 12.8373 185.916 12.8152C185.805 12.8041 185.742 12.8069 185.742 12.8235C185.742 12.8401 185.759 12.8594 185.779 12.8677C185.796 12.876 185.785 12.876 185.751 12.8677C185.651 12.8456 185.38 12.9037 185.317 12.9645C185.286 12.9949 185.22 13.0392 185.169 13.0668C185.089 13.1055 185.083 13.1166 185.123 13.1387C185.237 13.1995 185.149 13.2714 184.963 13.2714C184.835 13.2714 184.886 13.3378 185.032 13.3571L185.157 13.3737L185.009 13.3765C184.892 13.382 184.86 13.3737 184.849 13.335C184.838 13.288 184.835 13.288 184.832 13.335C184.829 13.3682 184.806 13.382 184.752 13.382C184.598 13.382 184.458 13.4373 184.444 13.5009C184.432 13.5369 184.398 13.5756 184.364 13.5894C184.33 13.606 184.301 13.6447 184.298 13.6779C184.295 13.7111 184.273 13.7581 184.244 13.7857C184.204 13.8272 184.193 13.8272 184.17 13.794C184.147 13.7608 184.141 13.7608 184.118 13.794C184.104 13.8134 184.087 13.8189 184.081 13.8079ZM184.743 13.2991C184.721 13.2853 184.678 13.2714 184.652 13.2714C184.589 13.2714 184.584 13.2272 184.644 13.2051C184.701 13.1857 184.698 13.1166 184.641 13.0945C184.555 13.064 184.518 13.0779 184.475 13.1636C184.41 13.2935 184.438 13.3267 184.626 13.3267C184.741 13.3267 184.775 13.3184 184.743 13.2991ZM187.449 10.4621C187.446 10.3404 187.437 10.3156 187.411 10.3487C187.377 10.3957 187.389 10.6169 187.426 10.6169C187.44 10.6169 187.449 10.5478 187.449 10.4621ZM197.801 5.01212C197.804 4.95681 197.719 4.94299 197.673 4.99276C197.63 5.03424 197.633 5.03424 197.699 5.00382L197.77 4.96788L197.699 5.0453C197.659 5.08954 197.644 5.11442 197.664 5.10336C197.681 5.0923 197.699 5.09783 197.699 5.11166C197.699 5.15314 197.801 5.05359 197.801 5.01212ZM198.657 4.14111C198.686 4.10793 198.694 4.09134 198.672 4.10517C198.64 4.12176 198.635 4.11623 198.652 4.07752C198.666 4.03604 198.663 4.03328 198.629 4.06093C198.606 4.08028 198.589 4.11899 198.592 4.14941C198.597 4.21301 198.592 4.21301 198.657 4.14111Z" fill="#A4C7FF"/>
<path d="M187.268 11.7678C187.265 11.6738 187.271 11.613 187.277 11.6323C187.303 11.7015 187.371 11.6655 187.371 11.5798C187.371 11.5356 187.383 11.5024 187.394 11.5107C187.408 11.519 187.437 11.4941 187.457 11.4581C187.488 11.4001 187.6 11.3586 187.6 11.4056C187.6 11.4139 187.614 11.5079 187.631 11.6158C187.66 11.8038 187.66 11.8093 187.597 11.8536C187.56 11.8784 187.5 11.895 187.468 11.8923C187.434 11.8867 187.397 11.8978 187.385 11.9116C187.377 11.9282 187.345 11.942 187.32 11.942C187.28 11.942 187.271 11.9116 187.268 11.7678Z" fill="#A4C7FF"/>
<path d="M187.501 11.2006C187.52 11.1899 187.54 11.1577 187.549 11.1281C187.56 11.0879 187.563 11.0906 187.565 11.1496C187.568 11.2033 187.554 11.2221 187.52 11.2221C187.487 11.2221 187.481 11.214 187.501 11.2006Z" fill="#A4C7FF"/>
<path d="M194.387 9.42256C194.387 9.41703 194.401 9.37002 194.418 9.31748C194.435 9.26495 194.455 9.18476 194.461 9.13775C194.484 9.02439 194.617 8.73682 194.649 8.73682C194.666 8.73682 194.651 8.77829 194.62 8.83083C194.589 8.8806 194.555 8.96355 194.543 9.01056C194.526 9.09351 194.543 9.11287 194.623 9.09904C194.666 9.09351 194.626 9.16264 194.538 9.25112C194.486 9.30089 194.444 9.3562 194.444 9.37002C194.444 9.38385 194.432 9.40597 194.415 9.41426C194.401 9.42256 194.387 9.42809 194.387 9.42256Z" fill="#A4C7FF"/>
<path d="M194.93 8.66547C194.902 8.63388 194.902 8.62598 194.938 8.62598C194.96 8.62598 194.984 8.64441 194.995 8.66547C195.003 8.68653 195.001 8.70496 194.987 8.70496C194.973 8.70496 194.949 8.68653 194.93 8.66547Z" fill="#A4C7FF"/>
<path d="M194.787 8.57477C194.787 8.56135 194.82 8.5184 194.859 8.47277C194.903 8.42177 194.923 8.41103 194.914 8.44056C194.906 8.4674 194.898 8.49961 194.898 8.50767C194.898 8.5184 194.873 8.54256 194.842 8.56135C194.812 8.58014 194.787 8.58551 194.787 8.57477Z" fill="#A4C7FF"/>
<path d="M195.911 7.87275C195.903 7.86169 195.914 7.85063 195.934 7.85063C195.954 7.84786 196.028 7.8368 196.099 7.82298C196.213 7.80362 196.221 7.80362 196.17 7.83957C196.142 7.86169 196.102 7.87828 196.088 7.88104C196.071 7.88104 196.028 7.88657 195.991 7.88934C195.954 7.89487 195.92 7.88657 195.911 7.87275Z" fill="#A4C7FF"/>
<path d="M199.495 3.48273C199.462 3.46178 199.47 3.45916 199.527 3.46178C199.567 3.46439 199.592 3.47749 199.586 3.48797C199.567 3.51416 199.543 3.51416 199.495 3.48273Z" fill="#A4C7FF"/>
<path d="M205.097 2.13557C205.108 2.10792 205.373 1.87842 205.396 1.87842C205.424 1.87842 205.396 1.90883 205.245 2.03326C205.157 2.10516 205.091 2.15216 205.097 2.13557Z" fill="#A4C7FF"/>
<path d="M206.876 1.54794L206.733 1.52858L206.867 1.52582C206.941 1.52305 207.01 1.53411 207.018 1.54794C207.027 1.56453 207.032 1.57282 207.027 1.57006C207.021 1.57006 206.955 1.559 206.876 1.54794Z" fill="#A4C7FF"/>
<path d="M206.422 1.52971C206.455 1.52395 206.51 1.52395 206.546 1.52971C206.58 1.53547 206.552 1.54123 206.483 1.54123C206.414 1.54123 206.386 1.53547 206.422 1.52971Z" fill="#A4C7FF"/>
</svg>
