<svg width="118" height="38" viewBox="0 0 118 38" fill="none" xmlns="http://www.w3.org/2000/svg">
<path d="M0.778703 8.13119L1.36939 7.92304C1.73633 8.9551 2.49706 9.47114 3.65158 9.47114C4.22437 9.47114 4.69871 9.31069 5.0746 8.9898C5.45049 8.66023 5.63843 8.22225 5.63843 7.67587C5.63843 7.32028 5.55341 7.00806 5.38336 6.73921C5.21332 6.46168 4.99405 6.24052 4.72555 6.07574C4.46601 5.90228 4.17067 5.74184 3.83953 5.5944C3.51733 5.44696 3.19067 5.29519 2.85953 5.13908C2.53733 4.98297 2.24199 4.81385 1.9735 4.63172C1.71395 4.44092 1.49916 4.19375 1.32911 3.8902C1.15907 3.58665 1.07405 3.2354 1.07405 2.83646C1.07405 2.21201 1.30226 1.69165 1.7587 1.27535C2.22409 0.850387 2.84163 0.637904 3.61131 0.637904C4.30939 0.637904 4.86875 0.807024 5.28939 1.14526C5.71003 1.4835 5.99642 1.85209 6.14857 2.25104L5.57131 2.45919C5.41916 2.1383 5.18199 1.85643 4.8598 1.61359C4.53761 1.36208 4.12144 1.23633 3.61131 1.23633C3.02062 1.23633 2.56418 1.3881 2.24199 1.69165C1.9198 1.9952 1.7587 2.38113 1.7587 2.84946C1.7587 3.21372 1.87058 3.53895 2.09432 3.82515C2.32701 4.10268 2.60893 4.32384 2.94007 4.48862C3.28017 4.64473 3.64711 4.82252 4.0409 5.022C4.44364 5.22147 4.81058 5.41661 5.14172 5.60741C5.48181 5.79821 5.76373 6.0714 5.98747 6.42699C6.22017 6.7739 6.33651 7.17718 6.33651 7.63684C6.33651 8.33066 6.0904 8.91174 5.59816 9.38007C5.10592 9.8484 4.45259 10.0826 3.63816 10.0826C2.85058 10.0826 2.22409 9.8961 1.7587 9.52317C1.29331 9.15024 0.966648 8.68625 0.778703 8.13119Z" fill="#C4C4C4"/>
<path d="M7.45108 6.55708C7.45108 5.49033 7.77774 4.63172 8.43108 3.98126C9.09336 3.32213 9.88542 2.99257 10.8072 2.99257C11.7917 2.99257 12.5838 3.30912 13.1834 3.94224C13.783 4.57535 14.0829 5.38625 14.0829 6.37495V6.64814H8.14916C8.14916 7.53277 8.4087 8.22659 8.92779 8.72961C9.45583 9.23263 10.145 9.48414 10.9952 9.48414C12.0244 9.48414 12.8254 9.09821 13.3982 8.32633L13.8412 8.62554C13.2237 9.59689 12.275 10.0826 10.9952 10.0826C9.95701 10.0826 9.10679 9.75734 8.4445 9.10688C7.78222 8.45642 7.45108 7.60649 7.45108 6.55708ZM8.18943 6.07574H13.3848C13.349 5.26917 13.085 4.6534 12.5927 4.22844C12.1005 3.80347 11.5009 3.59099 10.7938 3.59099C10.1226 3.59099 9.53637 3.80781 9.03519 4.24145C8.534 4.67509 8.25208 5.28652 8.18943 6.07574Z" fill="#C4C4C4"/>
<path d="M21.1356 4.02029L20.8671 4.59269C20.7508 4.4626 20.6076 4.33251 20.4376 4.20242C20.2675 4.07233 20.008 3.94224 19.6589 3.81214C19.3099 3.67338 18.9474 3.604 18.5715 3.604C17.775 3.604 17.1127 3.88586 16.5847 4.44959C16.0566 5.00465 15.7926 5.69847 15.7926 6.53106C15.7926 7.3463 16.0611 8.04013 16.5981 8.61253C17.144 9.18493 17.8063 9.47114 18.5849 9.47114C19.4799 9.47114 20.2541 9.12422 20.9074 8.4304L21.1491 9.00281C20.9701 9.2283 20.6523 9.4668 20.1959 9.71831C19.7395 9.96115 19.198 10.0826 18.5715 10.0826C17.5692 10.0826 16.7368 9.73999 16.0745 9.05484C15.4123 8.36969 15.0811 7.52843 15.0811 6.53106C15.0811 5.54236 15.4123 4.70544 16.0745 4.02029C16.7458 3.33514 17.5781 2.99257 18.5715 2.99257C19.1801 2.99257 19.7037 3.10531 20.1422 3.3308C20.5808 3.54762 20.9119 3.77745 21.1356 4.02029Z" fill="#C4C4C4"/>
<path d="M25.4371 2.99257V3.63002C24.6764 3.63002 24.1259 3.88586 23.7859 4.39756C23.4547 4.90058 23.2891 5.55104 23.2891 6.34893V9.91345H22.6179V3.16168H23.2891V4.37154C23.4055 4.00728 23.6606 3.68639 24.0543 3.40886C24.4481 3.13133 24.9091 2.99257 25.4371 2.99257Z" fill="#C4C4C4"/>
<path d="M26.1066 6.55708C26.1066 5.49033 26.4333 4.63172 27.0866 3.98126C27.7489 3.32213 28.541 2.99257 29.4628 2.99257C30.4473 2.99257 31.2393 3.30912 31.839 3.94224C32.4386 4.57535 32.7384 5.38625 32.7384 6.37495V6.64814H26.8047C26.8047 7.53277 27.0643 8.22659 27.5834 8.72961C28.1114 9.23263 28.8005 9.48414 29.6508 9.48414C30.68 9.48414 31.481 9.09821 32.0538 8.32633L32.4968 8.62554C31.8792 9.59689 30.9306 10.0826 29.6508 10.0826C28.6126 10.0826 27.7624 9.75734 27.1001 9.10688C26.4378 8.45642 26.1066 7.60649 26.1066 6.55708ZM26.845 6.07574H32.0403C32.0045 5.26917 31.7405 4.6534 31.2483 4.22844C30.7561 3.80347 30.1564 3.59099 29.4494 3.59099C28.7782 3.59099 28.1919 3.80781 27.6908 4.24145C27.1896 4.67509 26.9076 5.28652 26.845 6.07574Z" fill="#C4C4C4"/>
<path d="M34.2737 3.16168V1.75669H34.9449V3.16168H36.5827V3.7471H34.9449V7.54578C34.9449 8.26562 35.0433 8.75563 35.2402 9.01581C35.4461 9.26733 35.813 9.39308 36.3411 9.39308L36.6498 9.38007V9.96548C36.435 9.98283 36.2426 9.9915 36.0726 9.9915C35.5087 9.9915 35.0657 9.82238 34.7435 9.48414C34.4303 9.13723 34.2737 8.62988 34.2737 7.96207V3.7471H33.4145V3.16168H34.2737Z" fill="#C4C4C4"/>
<path d="M37.4733 7.84499C37.4733 7.2032 37.7239 6.67416 38.2251 6.25787C38.7353 5.84157 39.3752 5.63343 40.1449 5.63343C40.5834 5.63343 40.9817 5.70715 41.3397 5.85458C41.6976 6.00202 41.9661 6.17114 42.1451 6.36194V5.33422C42.1451 4.77916 41.9706 4.34986 41.6216 4.04631C41.2815 3.74276 40.8206 3.59099 40.2388 3.59099C39.5139 3.59099 38.7979 3.79913 38.0909 4.21543L37.809 3.70807C38.5786 3.23107 39.402 2.99257 40.2791 2.99257C41.1204 2.99257 41.7513 3.20939 42.172 3.64302C42.6016 4.06799 42.8164 4.64473 42.8164 5.37324V9.91345H42.266L42.1451 9.276C41.6618 9.81371 40.9951 10.0826 40.1449 10.0826C39.3662 10.0826 38.7263 9.87008 38.2251 9.44512C37.7239 9.01148 37.4733 8.4781 37.4733 7.84499ZM38.158 7.84499C38.158 8.30465 38.3415 8.69492 38.7084 9.01581C39.0843 9.32803 39.5765 9.48414 40.1851 9.48414C40.7669 9.48414 41.2457 9.32803 41.6216 9.01581C41.9975 8.70359 42.1854 8.31332 42.1854 7.84499C42.1854 7.35931 42.0019 6.96904 41.635 6.67416C41.2681 6.37929 40.7803 6.23185 40.1717 6.23185C39.5631 6.23185 39.0754 6.38362 38.7084 6.68717C38.3415 6.99072 38.158 7.37666 38.158 7.84499Z" fill="#C4C4C4"/>
<path d="M47.5144 2.99257V3.63002C46.7536 3.63002 46.2032 3.88586 45.8631 4.39756C45.532 4.90058 45.3664 5.55104 45.3664 6.34893V9.91345H44.6952V3.16168H45.3664V4.37154C45.4828 4.00728 45.7378 3.68639 46.1316 3.40886C46.5254 3.13133 46.9863 2.99257 47.5144 2.99257Z" fill="#C4C4C4"/>
<path d="M48.9428 9.91345V3.16168H49.6141V9.91345H48.9428ZM48.8891 1.74368C48.7817 1.63961 48.728 1.51386 48.728 1.36642C48.728 1.21898 48.7817 1.09323 48.8891 0.989152C48.9965 0.885079 49.1263 0.833042 49.2785 0.833042C49.4306 0.833042 49.5604 0.885079 49.6678 0.989152C49.7752 1.09323 49.8289 1.21898 49.8289 1.36642C49.8289 1.51386 49.7752 1.63961 49.6678 1.74368C49.5604 1.84776 49.4306 1.89979 49.2785 1.89979C49.1263 1.89979 48.9965 1.84776 48.8891 1.74368Z" fill="#C4C4C4"/>
<path d="M51.1471 7.84499C51.1471 7.2032 51.3977 6.67416 51.8989 6.25787C52.409 5.84157 53.0489 5.63343 53.8186 5.63343C54.2571 5.63343 54.6554 5.70715 55.0134 5.85458C55.3714 6.00202 55.6399 6.17114 55.8189 6.36194V5.33422C55.8189 4.77916 55.6444 4.34986 55.2953 4.04631C54.9552 3.74276 54.4943 3.59099 53.9126 3.59099C53.1877 3.59099 52.4717 3.79913 51.7646 4.21543L51.4827 3.70807C52.2524 3.23107 53.0758 2.99257 53.9529 2.99257C54.7941 2.99257 55.4251 3.20939 55.8457 3.64302C56.2753 4.06799 56.4901 4.64473 56.4901 5.37324V9.91345H55.9397L55.8189 9.276C55.3356 9.81371 54.6688 10.0826 53.8186 10.0826C53.04 10.0826 52.4001 9.87008 51.8989 9.44512C51.3977 9.01148 51.1471 8.4781 51.1471 7.84499ZM51.8318 7.84499C51.8318 8.30465 52.0152 8.69492 52.3822 9.01581C52.7581 9.32803 53.2503 9.48414 53.8589 9.48414C54.4406 9.48414 54.9194 9.32803 55.2953 9.01581C55.6712 8.70359 55.8592 8.31332 55.8592 7.84499C55.8592 7.35931 55.6757 6.96904 55.3088 6.67416C54.9418 6.37929 54.4541 6.23185 53.8455 6.23185C53.2369 6.23185 52.7491 6.38362 52.3822 6.68717C52.0152 6.99072 51.8318 7.37666 51.8318 7.84499Z" fill="#C4C4C4"/>
<path d="M68.044 0.507812V9.91345H67.3728V8.66457C67.3191 8.75129 67.2609 8.83802 67.1983 8.92475C67.1446 9.0028 67.0372 9.11989 66.8761 9.276C66.715 9.42343 66.545 9.55353 66.366 9.66627C66.1959 9.77035 65.9677 9.86575 65.6813 9.95248C65.3949 10.0392 65.0951 10.0826 64.7818 10.0826C63.7884 10.0826 62.974 9.753 62.3386 9.09387C61.7031 8.43474 61.3854 7.58914 61.3854 6.55708C61.3854 5.51635 61.6942 4.66208 62.3117 3.99427C62.9382 3.32647 63.7392 2.99257 64.7147 2.99257C65.4039 2.99257 65.9722 3.15301 66.4197 3.47391C66.8761 3.7948 67.1938 4.12003 67.3728 4.44959V0.507812H68.044ZM67.3997 6.55708C67.3997 5.65511 67.1401 4.93961 66.621 4.41057C66.1109 3.87285 65.4799 3.604 64.7281 3.604C63.9674 3.604 63.3365 3.88153 62.8353 4.43658C62.3341 4.99164 62.0835 5.69847 62.0835 6.55708C62.0835 7.42436 62.3386 8.12685 62.8487 8.66457C63.3588 9.20228 63.9943 9.47114 64.755 9.47114C65.5426 9.47114 66.178 9.18927 66.6613 8.62554C67.1535 8.06181 67.3997 7.37232 67.3997 6.55708Z" fill="#C4C4C4"/>
<path d="M69.5664 6.55708C69.5664 5.49033 69.893 4.63172 70.5464 3.98126C71.2087 3.32213 72.0007 2.99257 72.9225 2.99257C73.907 2.99257 74.6991 3.30912 75.2987 3.94224C75.8983 4.57535 76.1982 5.38625 76.1982 6.37495V6.64814H70.2645C70.2645 7.53277 70.524 8.22659 71.0431 8.72961C71.5711 9.23263 72.2603 9.48414 73.1105 9.48414C74.1397 9.48414 74.9407 9.09821 75.5135 8.32633L75.9565 8.62554C75.339 9.59689 74.3903 10.0826 73.1105 10.0826C72.0723 10.0826 71.2221 9.75734 70.5598 9.10688C69.8975 8.45642 69.5664 7.60649 69.5664 6.55708ZM70.3047 6.07574H75.5001C75.4643 5.26917 75.2003 4.6534 74.708 4.22844C74.2158 3.80347 73.6162 3.59099 72.9091 3.59099C72.2379 3.59099 71.6517 3.80781 71.1505 4.24145C70.6493 4.67509 70.3674 5.28652 70.3047 6.07574Z" fill="#C4C4C4"/>
<path d="M1.11868 22.5974V13.7186H5.83074V15.3295H2.96424V17.3082H5.42498V18.8937H2.96424V20.9992H5.94854V22.5974H1.11868Z" fill="#C4C4C4"/>
<path d="M9.34443 22.7623C8.72489 22.7623 8.19696 22.6439 7.76066 22.4071C7.33308 22.1619 7.01022 21.8702 6.79207 21.5319L7.85228 20.6187C8.27986 21.1007 8.80342 21.3417 9.42297 21.3417C9.68475 21.3417 9.88981 21.2909 10.0382 21.1895C10.1865 21.0795 10.2607 20.9316 10.2607 20.7455C10.2607 20.568 10.1472 20.4158 9.92035 20.2889C9.7022 20.1536 9.43169 20.0352 9.10883 19.9338C8.79469 19.8238 8.48056 19.697 8.16642 19.5532C7.85228 19.401 7.58178 19.177 7.3549 18.881C7.13675 18.5766 7.02767 18.2045 7.02767 17.7648C7.02767 17.1644 7.26328 16.6867 7.73448 16.3315C8.20569 15.9764 8.79906 15.7988 9.51459 15.7988C10.5792 15.7988 11.3601 16.192 11.8575 16.9784L10.6664 17.8409C10.3174 17.4181 9.90726 17.2067 9.43606 17.2067C9.22663 17.2067 9.05647 17.2575 8.92558 17.3589C8.79469 17.4519 8.72925 17.5788 8.72925 17.7394C8.72925 17.9255 8.83832 18.0819 9.05647 18.2087C9.28335 18.3356 9.55386 18.4497 9.868 18.5512C10.1909 18.6442 10.5094 18.7626 10.8235 18.9064C11.1464 19.0417 11.4169 19.2573 11.635 19.5532C11.8619 19.8492 11.9753 20.217 11.9753 20.6567C11.9753 21.2909 11.7266 21.8025 11.2293 22.1915C10.7319 22.572 10.1036 22.7623 9.34443 22.7623Z" fill="#C4C4C4"/>
<path d="M13.1085 15.9637V14.5685H14.8886V15.9637H16.1713V17.3843H14.8886V19.9464C14.8886 20.42 14.9627 20.7371 15.1111 20.8977C15.2682 21.0584 15.5299 21.1387 15.8964 21.1387C16.0186 21.1387 16.1277 21.1345 16.2236 21.1261V22.6228C16.0404 22.665 15.783 22.6862 15.4514 22.6862C14.6399 22.6862 14.0421 22.4663 13.6582 22.0266C13.283 21.5785 13.0954 20.902 13.0954 19.9972V17.3843H12.3755V15.9637H13.1085Z" fill="#C4C4C4"/>
<path d="M16.9044 20.5426C16.9044 19.8915 17.1487 19.363 17.6374 18.9571C18.126 18.5512 18.7674 18.3483 19.5615 18.3483C20.181 18.3483 20.674 18.4709 21.0405 18.7161V18.2849C21.0405 17.9889 20.9314 17.7521 20.7133 17.5746C20.4951 17.397 20.1897 17.3082 19.7971 17.3082C19.2124 17.3082 18.606 17.4646 17.9777 17.7775L17.2971 16.5852C17.6286 16.3653 18.0344 16.1793 18.5143 16.0271C19.003 15.8749 19.496 15.7988 19.9934 15.7988C21.0231 15.7988 21.7561 16.0313 22.1924 16.4964C22.6287 16.953 22.8468 17.5872 22.8468 18.399V22.5974H21.2499L21.1321 22.1661C20.7482 22.5636 20.1941 22.7623 19.4698 22.7623C18.7456 22.7623 18.1348 22.5636 17.6374 22.1661C17.1487 21.7603 16.9044 21.2191 16.9044 20.5426ZM19.0379 19.8323C18.8197 20.0014 18.7107 20.2213 18.7107 20.4919C18.7107 20.7624 18.8241 20.9823 19.051 21.1514C19.2779 21.3205 19.5615 21.4051 19.9018 21.4051C20.2508 21.4051 20.5344 21.3248 20.7526 21.1641C20.9707 20.995 21.0798 20.7709 21.0798 20.4919C21.0798 20.2044 20.9707 19.9803 20.7526 19.8196C20.5344 19.6505 20.2465 19.5659 19.8887 19.5659C19.5396 19.5659 19.256 19.6547 19.0379 19.8323Z" fill="#C4C4C4"/>
<path d="M30.8883 13.4269V22.5974H29.1867V21.9125C29.0995 22.0224 28.9817 22.1323 28.8333 22.2422C28.6937 22.3522 28.4668 22.4663 28.1527 22.5847C27.8385 22.7031 27.507 22.7623 27.1579 22.7623C26.1719 22.7623 25.3647 22.441 24.7364 21.7983C24.1169 21.1472 23.8071 20.3101 23.8071 19.2869C23.8071 18.2553 24.1038 17.4181 24.6972 16.7755C25.2905 16.1244 26.0759 15.7988 27.0532 15.7988C27.568 15.7988 28 15.896 28.349 16.0905C28.6981 16.285 28.9424 16.4753 29.082 16.6613V13.4269H30.8883ZM29.1344 19.2996C29.1344 18.6907 28.9686 18.213 28.637 17.8663C28.3141 17.5196 27.8953 17.3462 27.3804 17.3462C26.8569 17.3462 26.4337 17.528 26.1108 17.8916C25.7879 18.2553 25.6265 18.7246 25.6265 19.2996C25.6265 19.883 25.7879 20.3481 26.1108 20.6948C26.4424 21.0415 26.8656 21.2148 27.3804 21.2148C27.9127 21.2148 28.3359 21.033 28.6501 20.6694C28.9729 20.2974 29.1344 19.8407 29.1344 19.2996Z" fill="#C4C4C4"/>
<path d="M32.9579 21.7856C32.2685 21.1345 31.9239 20.3058 31.9239 19.2996C31.9239 18.2933 32.2729 17.4604 32.971 16.8008C33.6778 16.1328 34.5548 15.7988 35.6019 15.7988C36.649 15.7988 37.526 16.1328 38.2328 16.8008C38.9396 17.4689 39.293 18.3018 39.293 19.2996C39.293 20.3058 38.944 21.1345 38.2459 21.7856C37.5565 22.4367 36.6752 22.7623 35.6019 22.7623C34.5373 22.7623 33.656 22.4367 32.9579 21.7856ZM33.7302 19.2996C33.7302 19.8577 33.9047 20.3185 34.2537 20.6821C34.6115 21.0373 35.0609 21.2148 35.6019 21.2148C36.1516 21.2148 36.601 21.0373 36.9501 20.6821C37.3078 20.3185 37.4867 19.8577 37.4867 19.2996C37.4867 18.733 37.3078 18.2679 36.9501 17.9043C36.5923 17.5323 36.1429 17.3462 35.6019 17.3462C35.0609 17.3462 34.6115 17.5323 34.2537 17.9043C33.9047 18.2679 33.7302 18.733 33.7302 19.2996Z" fill="#C4C4C4"/>
<path d="M50.279 13.4269V22.5974H48.5774V21.9125C48.4902 22.0224 48.3724 22.1323 48.224 22.2422C48.0844 22.3522 47.8575 22.4663 47.5434 22.5847C47.2293 22.7031 46.8977 22.7623 46.5486 22.7623C45.5626 22.7623 44.7554 22.441 44.1272 21.7983C43.5076 21.1472 43.1978 20.3101 43.1978 19.2869C43.1978 18.2553 43.4945 17.4181 44.0879 16.7755C44.6813 16.1244 45.4666 15.7988 46.4439 15.7988C46.9588 15.7988 47.3907 15.896 47.7397 16.0905C48.0888 16.285 48.3331 16.4753 48.4727 16.6613V13.4269H50.279ZM48.5251 19.2996C48.5251 18.6907 48.3593 18.213 48.0277 17.8663C47.7048 17.5196 47.286 17.3462 46.7711 17.3462C46.2476 17.3462 45.8244 17.528 45.5015 17.8916C45.1786 18.2553 45.0172 18.7246 45.0172 19.2996C45.0172 19.883 45.1786 20.3481 45.5015 20.6948C45.8331 21.0415 46.2563 21.2148 46.7711 21.2148C47.3034 21.2148 47.7266 21.033 48.0408 20.6694C48.3636 20.2974 48.5251 19.8407 48.5251 19.2996Z" fill="#C4C4C4"/>
<path d="M51.3277 19.2996C51.3277 18.2933 51.6418 17.4604 52.2701 16.8008C52.9071 16.1328 53.7099 15.7988 54.6785 15.7988C55.7256 15.7988 56.5415 16.1159 57.1261 16.7501C57.7108 17.3758 58.0031 18.2383 58.0031 19.3376C58.0031 19.5067 57.9987 19.6336 57.99 19.7181H53.1732C53.1907 20.1663 53.3652 20.5341 53.6968 20.8216C54.0284 21.1007 54.4472 21.2402 54.9533 21.2402C55.6776 21.2402 56.2317 20.9696 56.6156 20.4284L57.8067 21.3036C57.6148 21.6419 57.2745 21.9717 56.7858 22.293C56.2971 22.6059 55.6776 22.7623 54.9272 22.7623C53.8451 22.7623 52.9725 22.441 52.3093 21.7983C51.6549 21.1472 51.3277 20.3143 51.3277 19.2996ZM53.2256 18.5766H56.1706C56.1532 18.1707 56.0092 17.8451 55.7387 17.5999C55.4682 17.3547 55.1235 17.2321 54.7046 17.2321C54.2858 17.2321 53.9455 17.3589 53.6837 17.6126C53.4219 17.8663 53.2692 18.1876 53.2256 18.5766Z" fill="#C4C4C4"/>
<path d="M62.4225 22.5974V13.7186H67.1345V15.3295H64.268V17.3082H66.7288V18.8937H64.268V20.9992H67.2523V22.5974H62.4225Z" fill="#C4C4C4"/>
<path d="M75.2556 13.4269V22.5974H73.554V21.9125C73.4667 22.0224 73.3489 22.1323 73.2006 22.2422C73.061 22.3522 72.8341 22.4663 72.52 22.5847C72.2058 22.7031 71.8742 22.7623 71.5252 22.7623C70.5392 22.7623 69.732 22.441 69.1037 21.7983C68.4842 21.1472 68.1744 20.3101 68.1744 19.2869C68.1744 18.2553 68.4711 17.4181 69.0645 16.7755C69.6578 16.1244 70.4432 15.7988 71.4205 15.7988C71.9353 15.7988 72.3673 15.896 72.7163 16.0905C73.0653 16.285 73.3097 16.4753 73.4493 16.6613V13.4269H75.2556ZM73.5016 19.2996C73.5016 18.6907 73.3358 18.213 73.0043 17.8663C72.6814 17.5196 72.2625 17.3462 71.7477 17.3462C71.2241 17.3462 70.8009 17.528 70.4781 17.8916C70.1552 18.2553 69.9938 18.7246 69.9938 19.2996C69.9938 19.883 70.1552 20.3481 70.4781 20.6948C70.8097 21.0415 71.2329 21.2148 71.7477 21.2148C72.28 21.2148 72.7032 21.033 73.0173 20.6694C73.3402 20.2974 73.5016 19.8407 73.5016 19.2996Z" fill="#C4C4C4"/>
<path d="M78.9875 22.7623C77.4081 22.7623 76.6184 21.7729 76.6184 19.7942V15.9637H78.4247V19.9972C78.4247 20.3523 78.5337 20.6398 78.7519 20.8597C78.9788 21.0795 79.2493 21.1895 79.5634 21.1895C79.9299 21.1895 80.2222 21.0753 80.4404 20.847C80.6673 20.6102 80.7807 20.3101 80.7807 19.9464V15.9637H82.587V22.5974H80.82V21.8237C80.6542 22.0774 80.4098 22.2972 80.087 22.4832C79.7641 22.6693 79.3976 22.7623 78.9875 22.7623Z" fill="#C4C4C4"/>
<path d="M87.3208 21.2148C87.8531 21.2148 88.3679 21.0161 88.8653 20.6187L89.3496 22.052C88.7388 22.5255 88.0276 22.7623 87.2161 22.7623C86.1515 22.7623 85.2746 22.4367 84.5852 21.7856C83.9046 21.1345 83.5643 20.3058 83.5643 19.2996C83.5643 18.2933 83.9089 17.4604 84.5983 16.8008C85.2964 16.1328 86.1646 15.7988 87.203 15.7988C88.0058 15.7988 88.7257 16.0356 89.3627 16.5091L88.8522 17.9804C88.3723 17.5576 87.84 17.3462 87.2554 17.3462C86.6882 17.3462 86.2301 17.5323 85.881 17.9043C85.5407 18.2764 85.3705 18.7372 85.3705 19.2869C85.3705 19.8534 85.5538 20.3185 85.9203 20.6821C86.2868 21.0373 86.7536 21.2148 87.3208 21.2148Z" fill="#C4C4C4"/>
<path d="M89.9679 20.5426C89.9679 19.8915 90.2122 19.363 90.7009 18.9571C91.1895 18.5512 91.8309 18.3483 92.6249 18.3483C93.2445 18.3483 93.7375 18.4709 94.104 18.7161V18.2849C94.104 17.9889 93.9949 17.7521 93.7768 17.5746C93.5586 17.397 93.2532 17.3082 92.8605 17.3082C92.2759 17.3082 91.6694 17.4646 91.0412 17.7775L90.3605 16.5852C90.6921 16.3653 91.0979 16.1793 91.5778 16.0271C92.0665 15.8749 92.5595 15.7988 93.0569 15.7988C94.0866 15.7988 94.8195 16.0313 95.2558 16.4964C95.6921 16.953 95.9103 17.5872 95.9103 18.399V22.5974H94.3134L94.1956 22.1661C93.8117 22.5636 93.2576 22.7623 92.5333 22.7623C91.8091 22.7623 91.1982 22.5636 90.7009 22.1661C90.2122 21.7603 89.9679 21.2191 89.9679 20.5426ZM92.1014 19.8323C91.8832 20.0014 91.7742 20.2213 91.7742 20.4919C91.7742 20.7624 91.8876 20.9823 92.1145 21.1514C92.3413 21.3205 92.6249 21.4051 92.9653 21.4051C93.3143 21.4051 93.5979 21.3248 93.8161 21.1641C94.0342 20.995 94.1433 20.7709 94.1433 20.4919C94.1433 20.2044 94.0342 19.9803 93.8161 19.8196C93.5979 19.6505 93.3099 19.5659 92.9522 19.5659C92.6031 19.5659 92.3195 19.6547 92.1014 19.8323Z" fill="#C4C4C4"/>
<path d="M99.8549 25.5528C99.6106 25.5528 99.3575 25.5147 99.0957 25.4386L99.3052 24.538C99.4797 24.5803 99.6237 24.6015 99.7371 24.6015C100.112 24.6015 100.3 24.4619 100.3 24.1829C100.3 23.9208 100.082 23.7897 99.6455 23.7897L99.423 23.8151L99.5931 22.6608C98.7729 22.4917 98.1141 22.1027 97.6167 21.4939C97.1193 20.8851 96.8706 20.1536 96.8706 19.2996C96.8706 18.2933 97.2153 17.4604 97.9046 16.8008C98.6027 16.1328 99.471 15.7988 100.509 15.7988C101.312 15.7988 102.032 16.0356 102.669 16.5091L102.159 17.9804C101.679 17.5576 101.146 17.3462 100.562 17.3462C99.9945 17.3462 99.5364 17.5323 99.1874 17.9043C98.8471 18.2764 98.6769 18.7372 98.6769 19.2869C98.6769 19.8534 98.8601 20.3185 99.2266 20.6821C99.5931 21.0373 100.06 21.2148 100.627 21.2148C101.159 21.2148 101.674 21.0161 102.172 20.6187L102.656 22.052C102.045 22.5255 101.334 22.7623 100.522 22.7623L100.47 23.0921C100.784 23.1513 101.029 23.2866 101.203 23.498C101.378 23.7178 101.465 23.9715 101.465 24.259C101.465 24.6564 101.312 24.9693 101.007 25.1976C100.701 25.4344 100.317 25.5528 99.8549 25.5528Z" fill="#C4C4C4"/>
<path d="M103.274 20.5426C103.274 19.8915 103.519 19.363 104.007 18.9571C104.496 18.5512 105.137 18.3483 105.931 18.3483C106.551 18.3483 107.044 18.4709 107.41 18.7161V18.2849C107.41 17.9889 107.301 17.7521 107.083 17.5746C106.865 17.397 106.56 17.3082 106.167 17.3082C105.582 17.3082 104.976 17.4646 104.348 17.7775L103.667 16.5852C103.998 16.3653 104.404 16.1793 104.884 16.0271C105.373 15.8749 105.866 15.7988 106.363 15.7988C107.393 15.7988 108.126 16.0313 108.562 16.4964C108.998 16.953 109.217 17.5872 109.217 18.399V22.5974H107.62L107.502 22.1661C107.118 22.5636 106.564 22.7623 105.84 22.7623C105.115 22.7623 104.505 22.5636 104.007 22.1661C103.519 21.7603 103.274 21.2191 103.274 20.5426ZM105.408 19.8323C105.19 20.0014 105.08 20.2213 105.08 20.4919C105.08 20.7624 105.194 20.9823 105.421 21.1514C105.648 21.3205 105.931 21.4051 106.272 21.4051C106.621 21.4051 106.904 21.3248 107.122 21.1641C107.341 20.995 107.45 20.7709 107.45 20.4919C107.45 20.2044 107.341 19.9803 107.122 19.8196C106.904 19.6505 106.616 19.5659 106.259 19.5659C105.909 19.5659 105.626 19.6547 105.408 19.8323ZM107.227 15.1519C106.974 15.1519 106.669 15.0758 106.311 14.9236C105.962 14.7629 105.722 14.6826 105.591 14.6826C105.312 14.6826 105.172 14.8433 105.172 15.1646H104.033C104.033 14.6572 104.164 14.2471 104.426 13.9343C104.697 13.6214 105.046 13.465 105.473 13.465C105.735 13.465 106.04 13.5453 106.389 13.7059C106.738 13.8582 106.97 13.9343 107.083 13.9343C107.362 13.9343 107.502 13.7736 107.502 13.4523H108.641C108.641 13.9681 108.51 14.3824 108.248 14.6953C107.995 14.9997 107.655 15.1519 107.227 15.1519Z" fill="#C4C4C4"/>
<path d="M111.211 21.7856C110.522 21.1345 110.177 20.3058 110.177 19.2996C110.177 18.2933 110.526 17.4604 111.224 16.8008C111.931 16.1328 112.808 15.7988 113.855 15.7988C114.902 15.7988 115.779 16.1328 116.486 16.8008C117.193 17.4689 117.546 18.3018 117.546 19.2996C117.546 20.3058 117.197 21.1345 116.499 21.7856C115.81 22.4367 114.928 22.7623 113.855 22.7623C112.79 22.7623 111.909 22.4367 111.211 21.7856ZM111.983 19.2996C111.983 19.8577 112.158 20.3185 112.507 20.6821C112.865 21.0373 113.314 21.2148 113.855 21.2148C114.405 21.2148 114.854 21.0373 115.203 20.6821C115.561 20.3185 115.74 19.8577 115.74 19.2996C115.74 18.733 115.561 18.2679 115.203 17.9043C114.845 17.5323 114.396 17.3462 113.855 17.3462C113.314 17.3462 112.865 17.5323 112.507 17.9043C112.158 18.2679 111.983 18.733 111.983 19.2996Z" fill="#C4C4C4"/>
<path d="M0.582031 31.9835C0.582031 30.9773 0.896168 30.1443 1.52444 29.4848C2.16144 28.8168 2.96424 28.4827 3.93283 28.4827C4.97995 28.4827 5.79584 28.7998 6.38048 29.434C6.96512 30.0598 7.25745 30.9223 7.25745 32.0216C7.25745 32.1907 7.25308 32.3175 7.24436 32.4021H2.42759C2.44504 32.8503 2.61956 33.2181 2.95115 33.5056C3.28274 33.7846 3.70159 33.9242 4.2077 33.9242C4.93196 33.9242 5.48606 33.6536 5.87001 33.1124L7.06111 33.9876C6.86914 34.3258 6.52882 34.6556 6.04017 34.9769C5.55151 35.2898 4.93196 35.4462 4.18152 35.4462C3.09949 35.4462 2.22689 35.1249 1.56371 34.4823C0.909258 33.8311 0.582031 32.9982 0.582031 31.9835ZM2.47994 31.2605H5.42498C5.40753 30.8546 5.26355 30.5291 4.99304 30.2839C4.72253 30.0386 4.37786 29.916 3.95901 29.916C3.54016 29.916 3.19984 30.0429 2.93806 30.2966C2.67628 30.5502 2.52357 30.8716 2.47994 31.2605Z" fill="#C4C4C4"/>
<path d="M11.6768 35.2813V26.4026H14.1114C15.6123 26.4026 16.7947 26.7958 17.6585 27.5822C18.5311 28.3686 18.9674 29.4552 18.9674 30.842C18.9674 32.2456 18.5355 33.3365 17.6716 34.1144C16.8078 34.8924 15.621 35.2813 14.1114 35.2813H11.6768ZM13.5224 33.7339H14.1769C15.0669 33.7339 15.765 33.4887 16.2711 32.9982C16.7859 32.4993 17.0434 31.7806 17.0434 30.842C17.0434 29.9203 16.7859 29.21 16.2711 28.7111C15.7563 28.2122 15.0582 27.9627 14.1769 27.9627H13.5224V33.7339Z" fill="#C4C4C4"/>
<path d="M19.7171 31.9835C19.7171 30.9773 20.0312 30.1443 20.6595 29.4848C21.2965 28.8168 22.0993 28.4827 23.0679 28.4827C24.115 28.4827 24.9309 28.7998 25.5155 29.434C26.1002 30.0598 26.3925 30.9223 26.3925 32.0216C26.3925 32.1907 26.3881 32.3175 26.3794 32.4021H21.5627C21.5801 32.8503 21.7546 33.2181 22.0862 33.5056C22.4178 33.7846 22.8367 33.9242 23.3428 33.9242C24.067 33.9242 24.6211 33.6536 25.0051 33.1124L26.1962 33.9876C26.0042 34.3258 25.6639 34.6556 25.1752 34.9769C24.6866 35.2898 24.067 35.4462 23.3166 35.4462C22.2346 35.4462 21.362 35.1249 20.6988 34.4823C20.0443 33.8311 19.7171 32.9982 19.7171 31.9835ZM21.615 31.2605H24.56C24.5426 30.8546 24.3986 30.5291 24.1281 30.2839C23.8576 30.0386 23.5129 29.916 23.0941 29.916C22.6752 29.916 22.3349 30.0429 22.0731 30.2966C21.8113 30.5502 21.6586 30.8716 21.615 31.2605Z" fill="#C4C4C4"/>
<path d="M29.4893 35.4462C28.8698 35.4462 28.3418 35.3278 27.9055 35.0911C27.4779 34.8459 27.1551 34.5541 26.9369 34.2159L27.9972 33.3026C28.4247 33.7846 28.9483 34.0256 29.5678 34.0256C29.8296 34.0256 30.0347 33.9749 30.183 33.8734C30.3314 33.7635 30.4055 33.6155 30.4055 33.4295C30.4055 33.2519 30.2921 33.0997 30.0652 32.9729C29.8471 32.8376 29.5766 32.7192 29.2537 32.6177C28.9396 32.5078 28.6254 32.3809 28.3113 32.2372C27.9971 32.085 27.7266 31.8609 27.4998 31.5649C27.2816 31.2605 27.1725 30.8885 27.1725 30.4488C27.1725 29.8484 27.4081 29.3706 27.8793 29.0155C28.3506 28.6603 28.9439 28.4827 29.6595 28.4827C30.724 28.4827 31.505 28.8759 32.0024 29.6623L30.8113 30.5249C30.4623 30.1021 30.0521 29.8907 29.5809 29.8907C29.3715 29.8907 29.2013 29.9414 29.0705 30.0429C28.9396 30.1359 28.8741 30.2627 28.8741 30.4234C28.8741 30.6094 28.9832 30.7659 29.2013 30.8927C29.4282 31.0195 29.6987 31.1337 30.0129 31.2352C30.3357 31.3282 30.6542 31.4466 30.9684 31.5903C31.2912 31.7256 31.5617 31.9412 31.7799 32.2372C32.0068 32.5332 32.1202 32.901 32.1202 33.3407C32.1202 33.9749 31.8715 34.4865 31.3741 34.8755C30.8767 35.256 30.2485 35.4462 29.4893 35.4462Z" fill="#C4C4C4"/>
<path d="M33.0832 37.6532V28.6476H34.7847V29.3453C34.872 29.2353 34.9854 29.1254 35.1251 29.0155C35.2734 28.8971 35.5046 28.7787 35.8188 28.6603C36.1329 28.5419 36.4645 28.4827 36.8135 28.4827C37.7909 28.4827 38.5937 28.8083 39.2219 29.4594C39.8502 30.1105 40.1643 30.9434 40.1643 31.9581C40.1643 32.9898 39.8677 33.8311 39.2743 34.4823C38.6809 35.1249 37.8956 35.4462 36.9183 35.4462C36.5605 35.4462 36.2245 35.387 35.9104 35.2687C35.5963 35.1503 35.365 35.0361 35.2167 34.9262C35.0771 34.8078 34.968 34.6979 34.8895 34.5964V37.6532H33.0832ZM34.8371 31.9455C34.8371 32.5543 34.9985 33.0321 35.3214 33.3787C35.653 33.7254 36.0762 33.8988 36.591 33.8988C37.1146 33.8988 37.5378 33.717 37.8607 33.3534C38.1835 32.9898 38.345 32.5205 38.345 31.9455C38.345 31.362 38.1792 30.8969 37.8476 30.5502C37.5247 30.2035 37.1059 30.0302 36.591 30.0302C36.0587 30.0302 35.6312 30.2162 35.3083 30.5883C34.9942 30.9519 34.8371 31.4043 34.8371 31.9455Z" fill="#C4C4C4"/>
<path d="M41.8671 34.4696C41.1778 33.8185 40.8331 32.9898 40.8331 31.9835C40.8331 30.9773 41.1822 30.1443 41.8802 29.4848C42.587 28.8168 43.464 28.4827 44.5111 28.4827C45.5583 28.4827 46.4352 28.8168 47.142 29.4848C47.8488 30.1528 48.2022 30.9857 48.2022 31.9835C48.2022 32.9898 47.8532 33.8185 47.1551 34.4696C46.4658 35.1207 45.5844 35.4462 44.5111 35.4462C43.4466 35.4462 42.5652 35.1207 41.8671 34.4696ZM42.6394 31.9835C42.6394 32.5416 42.8139 33.0025 43.163 33.3661C43.5207 33.7212 43.9701 33.8988 44.5111 33.8988C45.0609 33.8988 45.5103 33.7212 45.8593 33.3661C46.2171 33.0025 46.396 32.5416 46.396 31.9835C46.396 31.417 46.2171 30.9519 45.8593 30.5883C45.5015 30.2162 45.0521 30.0302 44.5111 30.0302C43.9701 30.0302 43.5207 30.2162 43.163 30.5883C42.8139 30.9519 42.6394 31.417 42.6394 31.9835Z" fill="#C4C4C4"/>
<path d="M52.8918 28.4827V30.2585C51.6614 30.2585 51.0462 30.9688 51.0462 32.3894V35.2813H49.24V28.6476H51.007V29.6116C51.1641 29.2734 51.4084 29.0028 51.74 28.7998C52.0716 28.5884 52.4555 28.4827 52.8918 28.4827Z" fill="#C4C4C4"/>
<path d="M54.523 28.6476V27.2524H56.3031V28.6476H57.5859V30.0682H56.3031V32.6304C56.3031 33.1039 56.3773 33.421 56.5257 33.5817C56.6827 33.7424 56.9445 33.8227 57.311 33.8227C57.4332 33.8227 57.5422 33.8185 57.6382 33.81V35.3067C57.455 35.349 57.1976 35.3701 56.866 35.3701C56.0545 35.3701 55.4567 35.1503 55.0728 34.7106C54.6975 34.2624 54.5099 33.5859 54.5099 32.6811V30.0682H53.79V28.6476H54.523Z" fill="#C4C4C4"/>
<path d="M59.3661 34.4696C58.6767 33.8185 58.332 32.9898 58.332 31.9835C58.332 30.9773 58.6811 30.1443 59.3792 29.4848C60.086 28.8168 60.9629 28.4827 62.0101 28.4827C63.0572 28.4827 63.9342 28.8168 64.641 29.4848C65.3478 30.1528 65.7012 30.9857 65.7012 31.9835C65.7012 32.9898 65.3521 33.8185 64.6541 34.4696C63.9647 35.1207 63.0834 35.4462 62.0101 35.4462C60.9455 35.4462 60.0642 35.1207 59.3661 34.4696ZM60.1383 31.9835C60.1383 32.5416 60.3129 33.0025 60.6619 33.3661C61.0197 33.7212 61.469 33.8988 62.0101 33.8988C62.5598 33.8988 63.0092 33.7212 63.3582 33.3661C63.716 33.0025 63.8949 32.5416 63.8949 31.9835C63.8949 31.417 63.716 30.9519 63.3582 30.5883C63.0005 30.2162 62.5511 30.0302 62.0101 30.0302C61.469 30.0302 61.0197 30.2162 60.6619 30.5883C60.3129 30.9519 60.1383 31.417 60.1383 31.9835Z" fill="#C4C4C4"/>
<path d="M70.1557 35.2813V26.4026H74.8678V28.0134H72.0013V29.9921H74.4621V31.5776H72.0013V33.6832H74.9856V35.2813H70.1557Z" fill="#C4C4C4"/>
<path d="M78.3815 35.4462C77.762 35.4462 77.234 35.3278 76.7977 35.0911C76.3702 34.8459 76.0473 34.5541 75.8291 34.2159L76.8894 33.3026C77.3169 33.7846 77.8405 34.0256 78.46 34.0256C78.7218 34.0256 78.9269 33.9749 79.0752 33.8734C79.2236 33.7635 79.2977 33.6155 79.2977 33.4295C79.2977 33.2519 79.1843 33.0997 78.9574 32.9729C78.7393 32.8376 78.4688 32.7192 78.1459 32.6177C77.8318 32.5078 77.5176 32.3809 77.2035 32.2372C76.8894 32.085 76.6188 31.8609 76.392 31.5649C76.1738 31.2605 76.0647 30.8885 76.0647 30.4488C76.0647 29.8484 76.3003 29.3706 76.7716 29.0155C77.2428 28.6603 77.8361 28.4827 78.5517 28.4827C79.6162 28.4827 80.3972 28.8759 80.8946 29.6623L79.7035 30.5249C79.3545 30.1021 78.9443 29.8907 78.4731 29.8907C78.2637 29.8907 78.0935 29.9414 77.9627 30.0429C77.8318 30.1359 77.7663 30.2627 77.7663 30.4234C77.7663 30.6094 77.8754 30.7659 78.0935 30.8927C78.3204 31.0195 78.5909 31.1337 78.9051 31.2352C79.2279 31.3282 79.5464 31.4466 79.8606 31.5903C80.1834 31.7256 80.4539 31.9412 80.6721 32.2372C80.899 32.5332 81.0124 32.901 81.0124 33.3407C81.0124 33.9749 80.7637 34.4865 80.2663 34.8755C79.7689 35.256 79.1407 35.4462 78.3815 35.4462Z" fill="#C4C4C4"/>
<path d="M85.3523 33.8988C85.8846 33.8988 86.3995 33.7001 86.8969 33.3026L87.3811 34.7359C86.7703 35.2095 86.0591 35.4462 85.2476 35.4462C84.183 35.4462 83.3061 35.1207 82.6167 34.4696C81.9361 33.8185 81.5958 32.9898 81.5958 31.9835C81.5958 30.9773 81.9405 30.1443 82.6298 29.4848C83.3279 28.8168 84.1961 28.4827 85.2345 28.4827C86.0373 28.4827 86.7572 28.7195 87.3942 29.193L86.8838 30.6644C86.4038 30.2416 85.8715 30.0302 85.2869 30.0302C84.7197 30.0302 84.2616 30.2162 83.9125 30.5883C83.5722 30.9603 83.4021 31.4212 83.4021 31.9708C83.4021 32.5374 83.5853 33.0025 83.9518 33.3661C84.3183 33.7212 84.7851 33.8988 85.3523 33.8988Z" fill="#C4C4C4"/>
<path d="M89.0465 34.4696C88.3572 33.8185 88.0125 32.9898 88.0125 31.9835C88.0125 30.9773 88.3615 30.1443 89.0596 29.4848C89.7664 28.8168 90.6434 28.4827 91.6905 28.4827C92.7376 28.4827 93.6146 28.8168 94.3214 29.4848C95.0282 30.1528 95.3816 30.9857 95.3816 31.9835C95.3816 32.9898 95.0326 33.8185 94.3345 34.4696C93.6451 35.1207 92.7638 35.4462 91.6905 35.4462C90.6259 35.4462 89.7446 35.1207 89.0465 34.4696ZM89.8188 31.9835C89.8188 32.5416 89.9933 33.0025 90.3423 33.3661C90.7001 33.7212 91.1495 33.8988 91.6905 33.8988C92.2403 33.8988 92.6896 33.7212 93.0387 33.3661C93.3965 33.0025 93.5753 32.5416 93.5753 31.9835C93.5753 31.417 93.3965 30.9519 93.0387 30.5883C92.6809 30.2162 92.2315 30.0302 91.6905 30.0302C91.1495 30.0302 90.7001 30.2162 90.3423 30.5883C89.9933 30.9519 89.8188 31.417 89.8188 31.9835Z" fill="#C4C4C4"/>
<path d="M96.4193 35.2813V26.1108H98.2256V35.2813H96.4193Z" fill="#C4C4C4"/>
<path d="M99.2606 33.2265C99.2606 32.5754 99.5049 32.0469 99.9936 31.6411C100.482 31.2352 101.124 31.0322 101.918 31.0322C102.537 31.0322 103.03 31.1548 103.397 31.4001V30.9688C103.397 30.6728 103.288 30.4361 103.069 30.2585C102.851 30.0809 102.546 29.9921 102.153 29.9921C101.569 29.9921 100.962 30.1486 100.334 30.4614L99.6533 29.2691C99.9848 29.0493 100.391 28.8633 100.871 28.7111C101.359 28.5588 101.852 28.4827 102.35 28.4827C103.379 28.4827 104.112 28.7153 104.549 29.1804C104.985 29.637 105.203 30.2712 105.203 31.083V35.2813H103.606L103.488 34.8501C103.104 35.2475 102.55 35.4462 101.826 35.4462C101.102 35.4462 100.491 35.2475 99.9936 34.8501C99.5049 34.4442 99.2606 33.903 99.2606 33.2265ZM101.394 32.5162C101.176 32.6854 101.067 32.9052 101.067 33.1758C101.067 33.4464 101.18 33.6662 101.407 33.8354C101.634 34.0045 101.918 34.0891 102.258 34.0891C102.607 34.0891 102.891 34.0087 103.109 33.8481C103.327 33.6789 103.436 33.4548 103.436 33.1758C103.436 32.8883 103.327 32.6642 103.109 32.5036C102.891 32.3344 102.603 32.2499 102.245 32.2499C101.896 32.2499 101.612 32.3387 101.394 32.5162Z" fill="#C4C4C4"/>
<path d="M110.195 28.4827V30.2585C108.964 30.2585 108.349 30.9688 108.349 32.3894V35.2813H106.543V28.6476H108.31V29.6116C108.467 29.2734 108.711 29.0028 109.043 28.7998C109.374 28.5884 109.758 28.4827 110.195 28.4827Z" fill="#C4C4C4"/>
</svg>
