<svg width="837" height="297" viewBox="0 0 837 297" fill="none" xmlns="http://www.w3.org/2000/svg">
<path d="M497.45 147.711V221.031C489.147 229.961 478.885 236.854 466.665 241.711C454.602 246.411 441.285 248.761 426.715 248.761C409.325 248.761 394.05 245.236 380.89 238.186C367.887 231.136 357.782 221.109 350.575 208.106C343.525 195.103 340 179.984 340 162.751C340 145.988 343.76 131.104 351.28 118.101C358.8 104.941 369.297 94.7575 382.77 87.5509C396.4 80.1875 411.988 76.5059 429.535 76.5059C442.225 76.5059 453.662 78.6992 463.845 83.0859C474.185 87.4725 483.663 94.1309 492.28 103.061L469.015 126.091C463.845 120.921 457.735 116.926 450.685 114.106C443.792 111.286 436.663 109.876 429.3 109.876C413.477 109.876 400.943 114.654 391.7 124.211C382.613 133.611 378.07 146.458 378.07 162.751C378.07 173.248 380.107 182.491 384.18 190.481C388.253 198.471 394.05 204.659 401.57 209.046C409.09 213.433 417.785 215.626 427.655 215.626C443.165 215.626 455.542 211.631 464.785 203.641V178.496H420.135V147.711H497.45Z" fill="#F0F0F0"/>
<path d="M650.72 245.001L638.5 215.391H557.425L545.205 245.001H504.08L577.87 80.5008H618.995L692.315 245.001H650.72ZM598.315 117.396L571.29 182.256H624.87L598.315 117.396Z" fill="#F0F0F0"/>
<path d="M745.92 212.571H836.63V245.001H708.555V80.5008H834.045V112.696H745.92V146.066H829.345V177.086H745.92V212.571Z" fill="#F0F0F0"/>
<path d="M353.267 278.045C353.111 277.54 352.897 277.088 352.624 276.688C352.357 276.283 352.034 275.937 351.655 275.65C351.282 275.363 350.854 275.148 350.369 275.004C349.885 274.855 349.357 274.78 348.785 274.78C347.761 274.78 346.848 275.039 346.046 275.556C345.245 276.074 344.615 276.835 344.155 277.839C343.702 278.837 343.475 280.053 343.475 281.488C343.475 282.935 343.702 284.161 344.155 285.165C344.609 286.169 345.239 286.933 346.046 287.457C346.854 287.975 347.792 288.234 348.86 288.234C349.829 288.234 350.667 288.046 351.375 287.672C352.09 287.298 352.639 286.768 353.024 286.082C353.41 285.389 353.602 284.579 353.602 283.649L354.385 283.771H349.205V281.058H356.947V283.359C356.947 285 356.599 286.418 355.903 287.616C355.208 288.814 354.251 289.737 353.034 290.385C351.816 291.028 350.419 291.349 348.841 291.349C347.084 291.349 345.54 290.953 344.211 290.161C342.888 289.362 341.854 288.23 341.109 286.765C340.37 285.293 340 283.546 340 281.525C340 279.979 340.217 278.597 340.652 277.381C341.093 276.164 341.708 275.132 342.497 274.284C343.286 273.429 344.211 272.781 345.273 272.338C346.335 271.889 347.49 271.664 348.739 271.664C349.795 271.664 350.779 271.82 351.692 272.132C352.605 272.438 353.416 272.874 354.124 273.442C354.838 274.009 355.425 274.683 355.885 275.463C356.344 276.242 356.645 277.103 356.788 278.045H353.267Z" fill="#CFCFCF"/>
<path d="M366.475 291.368C365.04 291.368 363.801 291.068 362.758 290.47C361.721 289.865 360.923 289.01 360.364 287.906C359.805 286.796 359.525 285.489 359.525 283.986C359.525 282.508 359.805 281.21 360.364 280.094C360.929 278.971 361.718 278.098 362.73 277.474C363.742 276.844 364.932 276.529 366.298 276.529C367.18 276.529 368.012 276.673 368.795 276.96C369.584 277.24 370.279 277.677 370.882 278.27C371.491 278.862 371.969 279.617 372.317 280.534C372.664 281.444 372.838 282.53 372.838 283.789V284.828H361.109V282.545H369.605C369.599 281.896 369.46 281.32 369.186 280.814C368.913 280.303 368.531 279.901 368.04 279.607C367.556 279.314 366.991 279.168 366.345 279.168C365.655 279.168 365.05 279.336 364.528 279.673C364.006 280.003 363.599 280.44 363.308 280.983C363.022 281.519 362.876 282.109 362.87 282.751V284.744C362.87 285.58 363.022 286.297 363.326 286.896C363.631 287.488 364.056 287.944 364.603 288.262C365.149 288.573 365.789 288.729 366.522 288.729C367.012 288.729 367.456 288.661 367.854 288.524C368.251 288.38 368.596 288.171 368.888 287.897C369.18 287.622 369.401 287.282 369.55 286.877L372.699 287.232C372.5 288.068 372.121 288.798 371.562 289.422C371.009 290.039 370.301 290.519 369.438 290.863C368.574 291.199 367.587 291.368 366.475 291.368Z" fill="#CFCFCF"/>
<path d="M375.691 291.087V276.716H378.962V279.112H379.111C379.372 278.282 379.819 277.643 380.452 277.194C381.092 276.738 381.822 276.511 382.642 276.511C382.828 276.511 383.036 276.52 383.266 276.539C383.502 276.551 383.697 276.573 383.853 276.604V279.72C383.71 279.67 383.483 279.626 383.173 279.589C382.868 279.545 382.573 279.523 382.288 279.523C381.673 279.523 381.12 279.657 380.629 279.926C380.145 280.187 379.763 280.552 379.483 281.02C379.204 281.488 379.064 282.027 379.064 282.639V291.087H375.691Z" fill="#CFCFCF"/>
<path d="M391.839 291.368C390.405 291.368 389.165 291.068 388.122 290.47C387.085 289.865 386.287 289.01 385.728 287.906C385.169 286.796 384.889 285.489 384.889 283.986C384.889 282.508 385.169 281.21 385.728 280.094C386.293 278.971 387.082 278.098 388.094 277.474C389.106 276.844 390.296 276.529 391.662 276.529C392.544 276.529 393.377 276.673 394.159 276.96C394.948 277.24 395.644 277.677 396.246 278.27C396.855 278.862 397.333 279.617 397.681 280.534C398.029 281.444 398.202 282.53 398.202 283.789V284.828H386.473V282.545H394.97C394.963 281.896 394.824 281.32 394.55 280.814C394.277 280.303 393.895 279.901 393.404 279.607C392.92 279.314 392.355 279.168 391.709 279.168C391.019 279.168 390.414 279.336 389.892 279.673C389.37 280.003 388.964 280.44 388.672 280.983C388.386 281.519 388.24 282.109 388.234 282.751V284.744C388.234 285.58 388.386 286.297 388.69 286.896C388.995 287.488 389.42 287.944 389.967 288.262C390.513 288.573 391.153 288.729 391.886 288.729C392.377 288.729 392.821 288.661 393.218 288.524C393.616 288.38 393.96 288.171 394.252 287.897C394.544 287.622 394.765 287.282 394.914 286.877L398.063 287.232C397.864 288.068 397.485 288.798 396.926 289.422C396.373 290.039 395.665 290.519 394.802 290.863C393.939 291.199 392.951 291.368 391.839 291.368Z" fill="#CFCFCF"/>
<path d="M404.428 282.667V291.087H401.056V276.716H404.279V279.158H404.447C404.776 278.354 405.301 277.714 406.021 277.24C406.748 276.766 407.646 276.529 408.714 276.529C409.701 276.529 410.562 276.741 411.294 277.166C412.034 277.59 412.605 278.204 413.009 279.009C413.419 279.813 413.62 280.789 413.614 281.937V291.087H410.242V282.461C410.242 281.5 409.993 280.749 409.496 280.206C409.006 279.664 408.326 279.392 407.456 279.392C406.866 279.392 406.341 279.523 405.882 279.785C405.428 280.041 405.071 280.412 404.81 280.899C404.556 281.385 404.428 281.974 404.428 282.667Z" fill="#CFCFCF"/>
<path d="M423.285 291.368C421.856 291.368 420.63 291.053 419.605 290.423C418.586 289.793 417.8 288.923 417.248 287.813C416.701 286.696 416.428 285.411 416.428 283.958C416.428 282.498 416.707 281.21 417.266 280.094C417.825 278.971 418.614 278.098 419.633 277.474C420.658 276.844 421.869 276.529 423.266 276.529C424.428 276.529 425.456 276.745 426.35 277.175C427.251 277.599 427.968 278.201 428.502 278.981C429.036 279.754 429.341 280.658 429.415 281.694H426.192C426.061 281.001 425.751 280.424 425.26 279.963C424.775 279.495 424.126 279.261 423.313 279.261C422.623 279.261 422.018 279.448 421.496 279.823C420.974 280.191 420.567 280.721 420.276 281.413C419.99 282.105 419.847 282.935 419.847 283.902C419.847 284.881 419.99 285.723 420.276 286.428C420.561 287.126 420.962 287.666 421.477 288.046C421.999 288.421 422.611 288.608 423.313 288.608C423.81 288.608 424.254 288.514 424.645 288.327C425.043 288.134 425.375 287.856 425.642 287.494C425.909 287.133 426.092 286.693 426.192 286.175H429.415C429.334 287.192 429.036 288.093 428.521 288.879C428.005 289.659 427.303 290.27 426.415 290.713C425.527 291.149 424.484 291.368 423.285 291.368Z" fill="#CFCFCF"/>
<path d="M432.184 291.087V276.716H435.557V291.087H432.184ZM433.88 274.677C433.346 274.677 432.886 274.499 432.501 274.144C432.116 273.782 431.924 273.348 431.924 272.843C431.924 272.332 432.116 271.898 432.501 271.543C432.886 271.181 433.346 271 433.88 271C434.42 271 434.88 271.181 435.259 271.543C435.644 271.898 435.836 272.332 435.836 272.843C435.836 273.348 435.644 273.782 435.259 274.144C434.88 274.499 434.42 274.677 433.88 274.677Z" fill="#CFCFCF"/>
<path d="M443.143 291.377C442.236 291.377 441.419 291.215 440.693 290.891C439.972 290.56 439.401 290.074 438.978 289.431C438.562 288.789 438.354 287.997 438.354 287.055C438.354 286.244 438.503 285.573 438.801 285.043C439.1 284.513 439.506 284.089 440.022 283.771C440.537 283.453 441.118 283.213 441.764 283.05C442.416 282.882 443.09 282.76 443.786 282.685C444.624 282.598 445.304 282.52 445.826 282.452C446.348 282.377 446.727 282.264 446.963 282.115C447.205 281.959 447.326 281.719 447.326 281.394V281.338C447.326 280.633 447.118 280.088 446.702 279.701C446.286 279.314 445.686 279.121 444.904 279.121C444.078 279.121 443.422 279.302 442.938 279.664C442.46 280.025 442.137 280.453 441.969 280.945L438.82 280.496C439.068 279.623 439.478 278.893 440.05 278.307C440.621 277.714 441.32 277.272 442.146 276.978C442.972 276.679 443.885 276.529 444.885 276.529C445.575 276.529 446.261 276.61 446.944 276.773C447.627 276.935 448.251 277.203 448.817 277.577C449.382 277.945 449.835 278.447 450.177 279.083C450.525 279.72 450.699 280.515 450.699 281.469V291.087H447.456V289.113H447.345C447.14 289.512 446.851 289.886 446.478 290.236C446.112 290.579 445.649 290.856 445.09 291.068C444.537 291.274 443.888 291.377 443.143 291.377ZM444.019 288.888C444.696 288.888 445.283 288.754 445.779 288.486C446.276 288.212 446.658 287.85 446.925 287.401C447.199 286.952 447.335 286.462 447.335 285.932V284.239C447.23 284.326 447.05 284.407 446.795 284.482C446.547 284.557 446.267 284.622 445.956 284.678C445.646 284.734 445.338 284.784 445.034 284.828C444.73 284.872 444.466 284.909 444.242 284.94C443.739 285.009 443.289 285.121 442.891 285.277C442.494 285.433 442.18 285.651 441.95 285.932C441.721 286.206 441.606 286.562 441.606 286.999C441.606 287.622 441.832 288.093 442.286 288.411C442.739 288.729 443.317 288.888 444.019 288.888Z" fill="#CFCFCF"/>
<path d="M454.09 291.087V276.716H457.313V279.158H457.481C457.779 278.335 458.273 277.693 458.962 277.231C459.652 276.763 460.475 276.529 461.431 276.529C462.4 276.529 463.217 276.766 463.881 277.24C464.552 277.708 465.024 278.347 465.298 279.158H465.447C465.763 278.36 466.298 277.724 467.049 277.25C467.807 276.769 468.704 276.529 469.742 276.529C471.058 276.529 472.133 276.947 472.965 277.783C473.797 278.619 474.213 279.838 474.213 281.441V291.087H470.832V281.965C470.832 281.073 470.596 280.421 470.123 280.01C469.651 279.592 469.074 279.383 468.391 279.383C467.577 279.383 466.94 279.639 466.481 280.15C466.027 280.655 465.801 281.313 465.801 282.124V291.087H462.493V281.825C462.493 281.083 462.27 280.49 461.822 280.047C461.381 279.604 460.804 279.383 460.09 279.383C459.605 279.383 459.164 279.508 458.767 279.757C458.369 280 458.052 280.347 457.816 280.796C457.58 281.238 457.462 281.756 457.462 282.349V291.087H454.09Z" fill="#CFCFCF"/>
<path d="M483.97 291.368C482.535 291.368 481.296 291.068 480.253 290.47C479.216 289.865 478.417 289.01 477.858 287.906C477.299 286.796 477.02 285.489 477.02 283.986C477.02 282.508 477.299 281.21 477.858 280.094C478.424 278.971 479.212 278.098 480.225 277.474C481.237 276.844 482.427 276.529 483.793 276.529C484.675 276.529 485.507 276.673 486.29 276.96C487.079 277.24 487.774 277.677 488.377 278.27C488.985 278.862 489.464 279.617 489.812 280.534C490.159 281.444 490.333 282.53 490.333 283.789V284.828H478.604V282.545H487.1C487.094 281.896 486.954 281.32 486.681 280.814C486.408 280.303 486.026 279.901 485.535 279.607C485.051 279.314 484.486 279.168 483.84 279.168C483.15 279.168 482.545 279.336 482.023 279.673C481.501 280.003 481.094 280.44 480.803 280.983C480.517 281.519 480.371 282.109 480.365 282.751V284.744C480.365 285.58 480.517 286.297 480.821 286.896C481.125 287.488 481.551 287.944 482.098 288.262C482.644 288.573 483.284 288.729 484.017 288.729C484.507 288.729 484.951 288.661 485.349 288.524C485.746 288.38 486.091 288.171 486.383 287.897C486.675 287.622 486.895 287.282 487.045 286.877L490.194 287.232C489.995 288.068 489.616 288.798 489.057 289.422C488.504 290.039 487.796 290.519 486.933 290.863C486.069 291.199 485.082 291.368 483.97 291.368Z" fill="#CFCFCF"/>
<path d="M496.559 282.667V291.087H493.186V276.716H496.41V279.158H496.578C496.907 278.354 497.432 277.714 498.152 277.24C498.879 276.766 499.776 276.529 500.845 276.529C501.832 276.529 502.692 276.741 503.425 277.166C504.164 277.59 504.736 278.204 505.14 279.009C505.549 279.813 505.751 280.789 505.745 281.937V291.087H502.373V282.461C502.373 281.5 502.124 280.749 501.627 280.206C501.137 279.664 500.456 279.392 499.587 279.392C498.997 279.392 498.472 279.523 498.012 279.785C497.559 280.041 497.202 280.412 496.941 280.899C496.686 281.385 496.559 281.974 496.559 282.667Z" fill="#CFCFCF"/>
<path d="M516.319 276.716V279.336H508.093V276.716H516.319ZM510.124 273.273H513.496V286.765C513.496 287.22 513.565 287.569 513.701 287.813C513.844 288.05 514.031 288.212 514.26 288.299C514.49 288.386 514.745 288.43 515.024 288.43C515.235 288.43 515.428 288.414 515.602 288.383C515.782 288.352 515.919 288.324 516.012 288.299L516.58 290.947C516.4 291.009 516.142 291.078 515.807 291.153C515.478 291.227 515.074 291.271 514.596 291.284C513.751 291.309 512.99 291.181 512.313 290.9C511.636 290.613 511.099 290.17 510.701 289.571C510.31 288.973 510.118 288.224 510.124 287.326V273.273Z" fill="#CFCFCF"/>
<path d="M525.228 291.368C523.831 291.368 522.62 291.059 521.595 290.442C520.57 289.824 519.775 288.96 519.21 287.85C518.651 286.74 518.371 285.442 518.371 283.958C518.371 282.473 518.651 281.173 519.21 280.056C519.775 278.94 520.57 278.073 521.595 277.456C522.62 276.838 523.831 276.529 525.228 276.529C526.626 276.529 527.837 276.838 528.862 277.456C529.886 278.073 530.678 278.94 531.237 280.056C531.803 281.173 532.085 282.473 532.085 283.958C532.085 285.442 531.803 286.74 531.237 287.85C530.678 288.96 529.886 289.824 528.862 290.442C527.837 291.059 526.626 291.368 525.228 291.368ZM525.247 288.655C526.005 288.655 526.638 288.446 527.147 288.028C527.657 287.604 528.036 287.036 528.284 286.325C528.539 285.614 528.666 284.822 528.666 283.949C528.666 283.069 528.539 282.274 528.284 281.563C528.036 280.846 527.657 280.275 527.147 279.851C526.638 279.427 526.005 279.214 525.247 279.214C524.47 279.214 523.825 279.427 523.309 279.851C522.8 280.275 522.418 280.846 522.163 281.563C521.915 282.274 521.79 283.069 521.79 283.949C521.79 284.822 521.915 285.614 522.163 286.325C522.418 287.036 522.8 287.604 523.309 288.028C523.825 288.446 524.47 288.655 525.247 288.655Z" fill="#CFCFCF"/>
<path d="M546.766 291.34C545.641 291.34 544.635 291.05 543.747 290.47C542.859 289.89 542.157 289.047 541.642 287.944C541.126 286.84 540.868 285.499 540.868 283.92C540.868 282.324 541.129 280.976 541.651 279.879C542.179 278.775 542.89 277.942 543.784 277.381C544.679 276.813 545.676 276.529 546.775 276.529C547.613 276.529 548.303 276.673 548.843 276.96C549.384 277.24 549.812 277.58 550.129 277.979C550.446 278.372 550.691 278.744 550.865 279.093H551.005V271.926H554.387V291.087H551.07V288.823H550.865C550.691 289.172 550.439 289.543 550.11 289.936C549.781 290.323 549.346 290.654 548.806 290.928C548.266 291.202 547.585 291.34 546.766 291.34ZM547.707 288.561C548.421 288.561 549.03 288.368 549.533 287.981C550.036 287.588 550.418 287.042 550.679 286.344C550.939 285.645 551.07 284.831 551.07 283.902C551.07 282.972 550.939 282.165 550.679 281.479C550.424 280.792 550.045 280.259 549.542 279.879C549.045 279.498 548.433 279.308 547.707 279.308C546.955 279.308 546.328 279.504 545.825 279.897C545.322 280.29 544.943 280.833 544.688 281.525C544.433 282.218 544.306 283.01 544.306 283.902C544.306 284.8 544.433 285.601 544.688 286.306C544.949 287.005 545.331 287.557 545.834 287.962C546.343 288.361 546.967 288.561 547.707 288.561Z" fill="#CFCFCF"/>
<path d="M564.316 291.368C562.881 291.368 561.642 291.068 560.598 290.47C559.561 289.865 558.763 289.01 558.204 287.906C557.645 286.796 557.365 285.489 557.365 283.986C557.365 282.508 557.645 281.21 558.204 280.094C558.769 278.971 559.558 278.098 560.57 277.474C561.583 276.844 562.772 276.529 564.139 276.529C565.021 276.529 565.853 276.673 566.635 276.96C567.424 277.24 568.12 277.677 568.722 278.27C569.331 278.862 569.809 279.617 570.157 280.534C570.505 281.444 570.679 282.53 570.679 283.789V284.828H558.949V282.545H567.446C567.44 281.896 567.3 281.32 567.027 280.814C566.753 280.303 566.371 279.901 565.881 279.607C565.396 279.314 564.831 279.168 564.185 279.168C563.496 279.168 562.89 279.336 562.368 279.673C561.847 280.003 561.44 280.44 561.148 280.983C560.862 281.519 560.716 282.109 560.71 282.751V284.744C560.71 285.58 560.862 286.297 561.167 286.896C561.471 287.488 561.896 287.944 562.443 288.262C562.99 288.573 563.629 288.729 564.362 288.729C564.853 288.729 565.297 288.661 565.694 288.524C566.092 288.38 566.437 288.171 566.729 287.897C567.02 287.622 567.241 287.282 567.39 286.877L570.539 287.232C570.34 288.068 569.961 288.798 569.402 289.422C568.85 290.039 568.142 290.519 567.278 290.863C566.415 291.199 565.427 291.368 564.316 291.368Z" fill="#CFCFCF"/>
<path d="M582.639 291.087H578.949L585.667 271.926H589.934L596.66 291.087H592.971L587.875 275.856H587.726L582.639 291.087ZM582.76 283.574H592.822V286.362H582.76V283.574Z" fill="#CFCFCF"/>
<path d="M602.397 271.926V291.087H599.024V271.926H602.397Z" fill="#CFCFCF"/>
<path d="M605.865 291.087V276.716H609.237V291.087H605.865ZM607.56 274.677C607.026 274.677 606.567 274.499 606.182 274.144C605.796 273.782 605.604 273.348 605.604 272.843C605.604 272.332 605.796 271.898 606.182 271.543C606.567 271.181 607.026 271 607.56 271C608.101 271 608.56 271.181 608.939 271.543C609.324 271.898 609.517 272.332 609.517 272.843C609.517 273.348 609.324 273.782 608.939 274.144C608.56 274.499 608.101 274.677 607.56 274.677Z" fill="#CFCFCF"/>
<path d="M612.705 291.087V276.716H615.929V279.158H616.097C616.395 278.335 616.889 277.693 617.578 277.231C618.267 276.763 619.09 276.529 620.047 276.529C621.016 276.529 621.832 276.766 622.497 277.24C623.168 277.708 623.64 278.347 623.913 279.158H624.062C624.379 278.36 624.913 277.724 625.665 277.25C626.422 276.769 627.32 276.529 628.357 276.529C629.674 276.529 630.748 276.947 631.581 277.783C632.413 278.619 632.829 279.838 632.829 281.441V291.087H629.447V281.965C629.447 281.073 629.211 280.421 628.739 280.01C628.267 279.592 627.689 279.383 627.006 279.383C626.193 279.383 625.556 279.639 625.096 280.15C624.643 280.655 624.416 281.313 624.416 282.124V291.087H621.109V281.825C621.109 281.083 620.885 280.49 620.438 280.047C619.997 279.604 619.42 279.383 618.705 279.383C618.221 279.383 617.78 279.508 617.382 279.757C616.985 280 616.668 280.347 616.432 280.796C616.196 281.238 616.078 281.756 616.078 282.349V291.087H612.705Z" fill="#CFCFCF"/>
<path d="M642.586 291.368C641.151 291.368 639.912 291.068 638.868 290.47C637.831 289.865 637.033 289.01 636.474 287.906C635.915 286.796 635.636 285.489 635.636 283.986C635.636 282.508 635.915 281.21 636.474 280.094C637.039 278.971 637.828 278.098 638.841 277.474C639.853 276.844 641.042 276.529 642.409 276.529C643.291 276.529 644.123 276.673 644.906 276.96C645.694 277.24 646.39 277.677 646.992 278.27C647.601 278.862 648.079 279.617 648.427 280.534C648.775 281.444 648.949 282.53 648.949 283.789V284.828H637.219V282.545H645.716C645.71 281.896 645.57 281.32 645.297 280.814C645.024 280.303 644.642 279.901 644.151 279.607C643.666 279.314 643.101 279.168 642.455 279.168C641.766 279.168 641.16 279.336 640.639 279.673C640.117 280.003 639.71 280.44 639.418 280.983C639.132 281.519 638.986 282.109 638.98 282.751V284.744C638.98 285.58 639.132 286.297 639.437 286.896C639.741 287.488 640.167 287.944 640.713 288.262C641.26 288.573 641.899 288.729 642.632 288.729C643.123 288.729 643.567 288.661 643.965 288.524C644.362 288.38 644.707 288.171 644.999 287.897C645.291 287.622 645.511 287.282 645.66 286.877L648.809 287.232C648.61 288.068 648.232 288.798 647.673 289.422C647.12 290.039 646.412 290.519 645.548 290.863C644.685 291.199 643.698 291.368 642.586 291.368Z" fill="#CFCFCF"/>
<path d="M655.175 282.667V291.087H651.802V276.716H655.026V279.158H655.193C655.522 278.354 656.047 277.714 656.768 277.24C657.494 276.766 658.392 276.529 659.46 276.529C660.448 276.529 661.308 276.741 662.041 277.166C662.78 277.59 663.351 278.204 663.755 279.009C664.165 279.813 664.367 280.789 664.361 281.937V291.087H660.988V282.461C660.988 281.5 660.74 280.749 660.243 280.206C659.752 279.664 659.072 279.392 658.203 279.392C657.612 279.392 657.088 279.523 656.628 279.785C656.175 280.041 655.818 280.412 655.557 280.899C655.302 281.385 655.175 281.974 655.175 282.667Z" fill="#CFCFCF"/>
<path d="M674.935 276.716V279.336H666.708V276.716H674.935ZM668.739 273.273H672.112V286.765C672.112 287.22 672.18 287.569 672.317 287.813C672.46 288.05 672.646 288.212 672.876 288.299C673.106 288.386 673.36 288.43 673.64 288.43C673.851 288.43 674.044 288.414 674.218 288.383C674.398 288.352 674.534 288.324 674.628 288.299L675.196 290.947C675.016 291.009 674.758 291.078 674.423 291.153C674.093 291.227 673.69 291.271 673.211 291.284C672.367 291.309 671.606 291.181 670.929 290.9C670.252 290.613 669.715 290.17 669.317 289.571C668.926 288.973 668.733 288.224 668.739 287.326V273.273Z" fill="#CFCFCF"/>
<path d="M681.873 291.377C680.967 291.377 680.15 291.215 679.423 290.891C678.703 290.56 678.131 290.074 677.709 289.431C677.293 288.789 677.085 287.997 677.085 287.055C677.085 286.244 677.234 285.573 677.532 285.043C677.83 284.513 678.237 284.089 678.752 283.771C679.268 283.453 679.849 283.213 680.495 283.05C681.147 282.882 681.821 282.76 682.516 282.685C683.355 282.598 684.035 282.52 684.557 282.452C685.078 282.377 685.457 282.264 685.693 282.115C685.935 281.959 686.057 281.719 686.057 281.394V281.338C686.057 280.633 685.848 280.088 685.432 279.701C685.016 279.314 684.417 279.121 683.634 279.121C682.808 279.121 682.153 279.302 681.668 279.664C681.19 280.025 680.867 280.453 680.7 280.945L677.551 280.496C677.799 279.623 678.209 278.893 678.78 278.307C679.352 277.714 680.05 277.272 680.877 276.978C681.703 276.679 682.616 276.529 683.616 276.529C684.305 276.529 684.991 276.61 685.675 276.773C686.358 276.935 686.982 277.203 687.547 277.577C688.112 277.945 688.566 278.447 688.907 279.083C689.255 279.72 689.429 280.515 689.429 281.469V291.087H686.187V289.113H686.075C685.87 289.512 685.581 289.886 685.209 290.236C684.842 290.579 684.38 290.856 683.821 291.068C683.268 291.274 682.619 291.377 681.873 291.377ZM682.749 288.888C683.426 288.888 684.013 288.754 684.51 288.486C685.007 288.212 685.389 287.85 685.656 287.401C685.929 286.952 686.066 286.462 686.066 285.932V284.239C685.96 284.326 685.78 284.407 685.525 284.482C685.277 284.557 684.998 284.622 684.687 284.678C684.376 284.734 684.069 284.784 683.765 284.828C683.46 284.872 683.196 284.909 682.973 284.94C682.47 285.009 682.019 285.121 681.622 285.277C681.224 285.433 680.911 285.651 680.681 285.932C680.451 286.206 680.336 286.562 680.336 286.999C680.336 287.622 680.563 288.093 681.016 288.411C681.47 288.729 682.047 288.888 682.749 288.888Z" fill="#CFCFCF"/>
<path d="M699.062 291.368C697.634 291.368 696.407 291.053 695.382 290.423C694.364 289.793 693.578 288.923 693.025 287.813C692.479 286.696 692.205 285.411 692.205 283.958C692.205 282.498 692.485 281.21 693.044 280.094C693.603 278.971 694.392 278.098 695.41 277.474C696.435 276.844 697.646 276.529 699.044 276.529C700.205 276.529 701.233 276.745 702.127 277.175C703.028 277.599 703.745 278.201 704.28 278.981C704.814 279.754 705.118 280.658 705.193 281.694H701.969C701.839 281.001 701.528 280.424 701.037 279.963C700.553 279.495 699.904 279.261 699.09 279.261C698.401 279.261 697.795 279.448 697.274 279.823C696.752 280.191 696.345 280.721 696.053 281.413C695.767 282.105 695.625 282.935 695.625 283.902C695.625 284.881 695.767 285.723 696.053 286.428C696.339 287.126 696.739 287.666 697.255 288.046C697.777 288.421 698.388 288.608 699.09 288.608C699.587 288.608 700.031 288.514 700.423 288.327C700.82 288.134 701.152 287.856 701.419 287.494C701.686 287.133 701.87 286.693 701.969 286.175H705.193C705.112 287.192 704.814 288.093 704.298 288.879C703.783 289.659 703.081 290.27 702.193 290.713C701.305 291.149 700.261 291.368 699.062 291.368ZM698.093 291.012H699.919L699.77 291.807C700.354 291.895 700.848 292.119 701.252 292.481C701.662 292.849 701.867 293.376 701.867 294.062C701.873 294.948 701.478 295.659 700.683 296.195C699.888 296.732 698.755 297 697.283 297L697.246 295.335C697.96 295.335 698.528 295.238 698.951 295.045C699.373 294.858 699.587 294.558 699.593 294.146C699.606 293.747 699.457 293.454 699.146 293.267C698.842 293.086 698.357 292.961 697.693 292.893L698.093 291.012Z" fill="#CFCFCF"/>
<path d="M712.08 291.377C711.173 291.377 710.356 291.215 709.63 290.891C708.909 290.56 708.338 290.074 707.915 289.431C707.499 288.789 707.291 287.997 707.291 287.055C707.291 286.244 707.44 285.573 707.738 285.043C708.036 284.513 708.443 284.089 708.959 283.771C709.474 283.453 710.055 283.213 710.701 283.05C711.353 282.882 712.027 282.76 712.723 282.685C713.561 282.598 714.241 282.52 714.763 282.452C715.285 282.377 715.664 282.264 715.9 282.115C716.142 281.959 716.263 281.719 716.263 281.394V281.338C716.263 280.633 716.055 280.088 715.639 279.701C715.223 279.314 714.623 279.121 713.841 279.121C713.015 279.121 712.359 279.302 711.875 279.664C711.397 280.025 711.074 280.453 710.906 280.945L707.757 280.496C708.005 279.623 708.415 278.893 708.987 278.307C709.558 277.714 710.257 277.272 711.083 276.978C711.909 276.679 712.822 276.529 713.822 276.529C714.511 276.529 715.198 276.61 715.881 276.773C716.564 276.935 717.188 277.203 717.754 277.577C718.319 277.945 718.772 278.447 719.114 279.083C719.462 279.72 719.635 280.515 719.635 281.469V291.087H716.393V289.113H716.282C716.077 289.512 715.788 289.886 715.415 290.236C715.049 290.579 714.586 290.856 714.027 291.068C713.474 291.274 712.825 291.377 712.08 291.377ZM712.956 288.888C713.633 288.888 714.22 288.754 714.716 288.486C715.213 288.212 715.595 287.85 715.862 287.401C716.136 286.952 716.272 286.462 716.272 285.932V284.239C716.167 284.326 715.987 284.407 715.732 284.482C715.483 284.557 715.204 284.622 714.893 284.678C714.583 284.734 714.275 284.784 713.971 284.828C713.667 284.872 713.403 284.909 713.179 284.94C712.676 285.009 712.226 285.121 711.828 285.277C711.431 285.433 711.117 285.651 710.887 285.932C710.658 286.206 710.543 286.562 710.543 286.999C710.543 287.622 710.769 288.093 711.223 288.411C711.676 288.729 712.254 288.888 712.956 288.888ZM711.232 274.967L709.192 274.92C709.192 273.81 709.477 272.94 710.049 272.31C710.62 271.68 711.325 271.365 712.164 271.365C712.567 271.365 712.918 271.433 713.216 271.571C713.515 271.702 713.788 271.855 714.036 272.029C714.291 272.204 714.539 272.36 714.782 272.497C715.024 272.628 715.291 272.693 715.583 272.693C715.937 272.693 716.216 272.559 716.421 272.291C716.632 272.023 716.741 271.68 716.747 271.262L718.75 271.346C718.744 272.463 718.455 273.33 717.884 273.947C717.313 274.558 716.611 274.867 715.778 274.873C715.331 274.88 714.956 274.814 714.651 274.677C714.347 274.54 714.08 274.384 713.85 274.209C713.626 274.034 713.4 273.882 713.17 273.751C712.94 273.613 712.67 273.545 712.359 273.545C712.03 273.545 711.76 273.676 711.549 273.938C711.338 274.2 711.232 274.543 711.232 274.967Z" fill="#CFCFCF"/>
<path d="M729.269 291.368C727.871 291.368 726.66 291.059 725.635 290.442C724.611 289.824 723.815 288.96 723.25 287.85C722.691 286.74 722.412 285.442 722.412 283.958C722.412 282.473 722.691 281.173 723.25 280.056C723.815 278.94 724.611 278.073 725.635 277.456C726.66 276.838 727.871 276.529 729.269 276.529C730.666 276.529 731.877 276.838 732.902 277.456C733.927 278.073 734.719 278.94 735.278 280.056C735.843 281.173 736.126 282.473 736.126 283.958C736.126 285.442 735.843 286.74 735.278 287.85C734.719 288.96 733.927 289.824 732.902 290.442C731.877 291.059 730.666 291.368 729.269 291.368ZM729.287 288.655C730.045 288.655 730.679 288.446 731.188 288.028C731.697 287.604 732.076 287.036 732.325 286.325C732.579 285.614 732.707 284.822 732.707 283.949C732.707 283.069 732.579 282.274 732.325 281.563C732.076 280.846 731.697 280.275 731.188 279.851C730.679 279.427 730.045 279.214 729.287 279.214C728.511 279.214 727.865 279.427 727.35 279.851C726.84 280.275 726.458 280.846 726.204 281.563C725.955 282.274 725.831 283.069 725.831 283.949C725.831 284.822 725.955 285.614 726.204 286.325C726.458 287.036 726.84 287.604 727.35 288.028C727.865 288.446 728.511 288.655 729.287 288.655Z" fill="#CFCFCF"/>
<path d="M745.645 291.087V271.926H758.054V274.836H749.101V280.038H757.412V282.947H749.101V288.177H758.129V291.087H745.645Z" fill="#CFCFCF"/>
<path d="M772.742 280.515L769.667 280.852C769.58 280.54 769.428 280.247 769.211 279.972C769 279.698 768.714 279.476 768.354 279.308C767.994 279.14 767.553 279.055 767.031 279.055C766.329 279.055 765.739 279.208 765.261 279.514C764.789 279.819 764.556 280.216 764.562 280.702C764.556 281.12 764.708 281.46 765.018 281.722C765.335 281.984 765.857 282.199 766.584 282.367L769.025 282.891C770.379 283.184 771.385 283.649 772.043 284.285C772.708 284.922 773.043 285.754 773.049 286.783C773.043 287.688 772.779 288.486 772.257 289.178C771.742 289.865 771.024 290.401 770.105 290.788C769.186 291.174 768.13 291.368 766.938 291.368C765.186 291.368 763.776 291 762.708 290.264C761.64 289.522 761.003 288.489 760.798 287.167L764.087 286.849C764.236 287.498 764.553 287.987 765.037 288.318C765.522 288.648 766.152 288.814 766.928 288.814C767.73 288.814 768.372 288.648 768.857 288.318C769.348 287.987 769.593 287.579 769.593 287.092C769.593 286.68 769.434 286.341 769.118 286.072C768.807 285.804 768.323 285.598 767.664 285.455L765.223 284.94C763.851 284.653 762.835 284.17 762.177 283.49C761.519 282.804 761.193 281.937 761.199 280.889C761.193 280.003 761.432 279.236 761.916 278.588C762.407 277.933 763.087 277.427 763.956 277.072C764.832 276.71 765.841 276.529 766.984 276.529C768.661 276.529 769.981 276.888 770.944 277.605C771.913 278.323 772.512 279.292 772.742 280.515Z" fill="#CFCFCF"/>
<path d="M782.072 291.368C780.644 291.368 779.417 291.053 778.392 290.423C777.374 289.793 776.588 288.923 776.035 287.813C775.489 286.696 775.215 285.411 775.215 283.958C775.215 282.498 775.495 281.21 776.054 280.094C776.613 278.971 777.402 278.098 778.42 277.474C779.445 276.844 780.656 276.529 782.054 276.529C783.215 276.529 784.243 276.745 785.137 277.175C786.038 277.599 786.755 278.201 787.29 278.981C787.824 279.754 788.128 280.658 788.203 281.694H784.979C784.849 281.001 784.538 280.424 784.047 279.963C783.563 279.495 782.914 279.261 782.1 279.261C781.411 279.261 780.805 279.448 780.284 279.823C779.762 280.191 779.355 280.721 779.063 281.413C778.777 282.105 778.635 282.935 778.635 283.902C778.635 284.881 778.777 285.723 779.063 286.428C779.349 287.126 779.749 287.666 780.265 288.046C780.787 288.421 781.398 288.608 782.1 288.608C782.597 288.608 783.041 288.514 783.433 288.327C783.83 288.134 784.162 287.856 784.429 287.494C784.696 287.133 784.88 286.693 784.979 286.175H788.203C788.122 287.192 787.824 288.093 787.308 288.879C786.793 289.659 786.091 290.27 785.203 290.713C784.314 291.149 783.271 291.368 782.072 291.368Z" fill="#CFCFCF"/>
<path d="M797.214 291.368C795.816 291.368 794.605 291.059 793.581 290.442C792.556 289.824 791.761 288.96 791.195 287.85C790.637 286.74 790.357 285.442 790.357 283.958C790.357 282.473 790.637 281.173 791.195 280.056C791.761 278.94 792.556 278.073 793.581 277.456C794.605 276.838 795.816 276.529 797.214 276.529C798.611 276.529 799.823 276.838 800.847 277.456C801.872 278.073 802.664 278.94 803.223 280.056C803.788 281.173 804.071 282.473 804.071 283.958C804.071 285.442 803.788 286.74 803.223 287.85C802.664 288.96 801.872 289.824 800.847 290.442C799.823 291.059 798.611 291.368 797.214 291.368ZM797.233 288.655C797.99 288.655 798.624 288.446 799.133 288.028C799.642 287.604 800.021 287.036 800.27 286.325C800.524 285.614 800.652 284.822 800.652 283.949C800.652 283.069 800.524 282.274 800.27 281.563C800.021 280.846 799.642 280.275 799.133 279.851C798.624 279.427 797.99 279.214 797.233 279.214C796.456 279.214 795.81 279.427 795.295 279.851C794.785 280.275 794.403 280.846 794.149 281.563C793.9 282.274 793.776 283.069 793.776 283.949C793.776 284.822 793.9 285.614 794.149 286.325C794.403 287.036 794.785 287.604 795.295 288.028C795.81 288.446 796.456 288.655 797.233 288.655Z" fill="#CFCFCF"/>
<path d="M810.306 271.926V291.087H806.933V271.926H810.306Z" fill="#CFCFCF"/>
<path d="M817.892 291.377C816.985 291.377 816.168 291.215 815.442 290.891C814.721 290.56 814.15 290.074 813.727 289.431C813.311 288.789 813.103 287.997 813.103 287.055C813.103 286.244 813.252 285.573 813.55 285.043C813.849 284.513 814.255 284.089 814.771 283.771C815.286 283.453 815.867 283.213 816.513 283.05C817.165 282.882 817.839 282.76 818.535 282.685C819.373 282.598 820.053 282.52 820.575 282.452C821.097 282.377 821.476 282.264 821.712 282.115C821.954 281.959 822.075 281.719 822.075 281.394V281.338C822.075 280.633 821.867 280.088 821.451 279.701C821.035 279.314 820.435 279.121 819.653 279.121C818.827 279.121 818.171 279.302 817.687 279.664C817.209 280.025 816.886 280.453 816.718 280.945L813.569 280.496C813.818 279.623 814.227 278.893 814.799 278.307C815.37 277.714 816.069 277.272 816.895 276.978C817.721 276.679 818.634 276.529 819.634 276.529C820.324 276.529 821.01 276.61 821.693 276.773C822.376 276.935 823 277.203 823.566 277.577C824.131 277.945 824.584 278.447 824.926 279.083C825.274 279.72 825.448 280.515 825.448 281.469V291.087H822.205V289.113H822.094C821.889 289.512 821.6 289.886 821.227 290.236C820.861 290.579 820.398 290.856 819.839 291.068C819.286 291.274 818.637 291.377 817.892 291.377ZM818.768 288.888C819.445 288.888 820.032 288.754 820.528 288.486C821.025 288.212 821.407 287.85 821.674 287.401C821.948 286.952 822.084 286.462 822.084 285.932V284.239C821.979 284.326 821.799 284.407 821.544 284.482C821.296 284.557 821.016 284.622 820.705 284.678C820.395 284.734 820.087 284.784 819.783 284.828C819.479 284.872 819.215 284.909 818.991 284.94C818.488 285.009 818.038 285.121 817.64 285.277C817.243 285.433 816.929 285.651 816.699 285.932C816.47 286.206 816.355 286.562 816.355 286.999C816.355 287.622 816.581 288.093 817.035 288.411C817.488 288.729 818.066 288.888 818.768 288.888Z" fill="#CFCFCF"/>
<path d="M828.839 291.087V276.716H832.109V279.112H832.258C832.519 278.282 832.966 277.643 833.599 277.194C834.239 276.738 834.969 276.511 835.789 276.511C835.975 276.511 836.183 276.52 836.413 276.539C836.649 276.551 836.845 276.573 837 276.604V279.72C836.857 279.67 836.63 279.626 836.32 279.589C836.016 279.545 835.721 279.523 835.435 279.523C834.82 279.523 834.267 279.657 833.777 279.926C833.292 280.187 832.91 280.552 832.631 281.02C832.351 281.488 832.211 282.027 832.211 282.639V291.087H828.839Z" fill="#CFCFCF"/>
<g filter="url(#filter0_i_1_440)">
<path d="M127.915 5.81352C122.789 -1.30874 109.239 1.98726 101.091 5.24524C33.9984 32.0716 9.94253 89.5978 8.7146 114.618L11.4888 151.457L105.116 175.431C65.0239 151.73 82.0715 77.0934 126.168 51.47C128.116 50.3382 129.389 48.2939 129.389 46.0411V11.3644C129.621 9.16705 129.005 7.32783 127.915 5.81352Z" fill="#F59611"/>
<path d="M171.2 5.81352C176.326 -1.30874 189.876 1.98726 198.024 5.24524C265.117 32.0716 289.172 89.5978 290.4 114.618L287.626 151.457L193.999 175.431C234.091 151.73 217.044 77.0934 172.947 51.47C170.999 50.3382 169.726 48.2939 169.726 46.0411V11.3644C169.494 9.16705 170.11 7.32783 171.2 5.81352Z" fill="#F59611"/>
<path d="M252.631 136.369C260.226 131.202 270.985 127.069 294.402 103.305C297.988 118.803 303.516 155.38 296.934 177.698C290.605 210.245 256.176 268.107 169.091 292.905C162.717 250.395 230.188 208.116 244.563 185.196C244.845 184.747 244.655 184.206 244.166 183.94C243.618 183.642 242.891 183.803 242.486 184.252C234.324 193.304 162.395 241.206 158.332 270.69C148.712 254.158 149.471 229.361 150.737 219.028C153.204 198.88 161.496 190.786 167.192 181.831C195.039 149.284 229.215 149.801 252.631 136.369Z" fill="#1A6B1F"/>
<path d="M47.1393 136.369C39.581 131.202 28.874 127.069 5.57124 103.305C2.00209 118.803 -3.49867 155.38 3.05144 177.698C9.34955 210.246 43.6117 268.107 130.275 292.905C136.618 250.395 69.4737 208.116 55.168 185.196C54.8881 184.747 55.077 184.206 55.5633 183.94C56.1091 183.642 56.8406 183.802 57.2594 184.238C63.5449 190.783 107.373 218.511 130.275 243.619C125.225 230.303 128.42 214.703 133.661 203.233C136.859 196.233 137.154 187.691 132.165 181.831C104.452 149.284 70.4421 149.801 47.1393 136.369Z" fill="#1A6B1F"/>
</g>
<defs>
<filter id="filter0_i_1_440" x="0" y="1.57227" width="300" height="295.333" filterUnits="userSpaceOnUse" color-interpolation-filters="sRGB">
<feFlood flood-opacity="0" result="BackgroundImageFix"/>
<feBlend mode="normal" in="SourceGraphic" in2="BackgroundImageFix" result="shape"/>
<feColorMatrix in="SourceAlpha" type="matrix" values="0 0 0 0 0 0 0 0 0 0 0 0 0 0 0 0 0 0 127 0" result="hardAlpha"/>
<feOffset dy="4"/>
<feGaussianBlur stdDeviation="2"/>
<feComposite in2="hardAlpha" operator="arithmetic" k2="-1" k3="1"/>
<feColorMatrix type="matrix" values="0 0 0 0 0 0 0 0 0 0 0 0 0 0 0 0 0 0 0.25 0"/>
<feBlend mode="normal" in2="shape" result="effect1_innerShadow_1_440"/>
</filter>
</defs>
</svg>
