<svg width="122" height="22" viewBox="0 0 114 23" fill="none" xmlns="http://www.w3.org/2000/svg">
<path d="M1.39264 4.38717C2.31864 3.18617 3.31064 2.34217 3.94964 1.07617M1.40364 4.41517C2.46764 3.15217 3.39564 1.87017 4.04164 1.26717M1.30664 6.78217C2.12864 6.27817 2.61664 5.27617 3.88564 3.87717M1.51864 6.87517C2.42264 5.81517 3.26464 4.67917 3.90964 3.68817M5.15764 2.16517C5.39564 1.95917 5.59864 1.64917 5.84964 1.36917M5.20064 2.21317C5.42764 1.90117 5.63564 1.62517 5.78464 1.42017M1.56764 9.17417C1.97864 8.67817 3.26864 7.67417 5.47764 4.74517M1.56764 9.45317C2.90864 7.63417 4.06664 6.11817 5.28864 4.60417M5.69364 4.01417C6.29564 3.26917 6.99764 2.39117 7.79764 1.66517M5.78564 3.97517C6.48664 3.22417 7.08864 2.40817 7.73964 1.55017M1.48264 11.9342C2.20064 11.1552 2.97564 9.92017 3.75464 8.99117M1.39764 12.0302C2.18064 11.1162 2.76064 10.2352 3.95464 8.86217M3.92964 8.83717C4.40364 8.25017 4.84864 7.67017 5.13964 7.26717M3.93964 8.88117C4.38264 8.29417 4.86564 7.74917 5.14764 7.28317M7.54664 4.12517C8.12264 3.64017 8.44464 3.03217 9.57964 1.85017M7.61164 4.17617C8.05864 3.66617 8.51664 3.11517 9.57264 1.85217M1.37464 14.5702C2.30264 13.5602 3.20564 12.5482 3.84964 11.5232M1.44964 14.5902C2.26464 13.6862 2.93764 12.7592 4.03264 11.5022M5.17164 9.89417C5.39464 9.54117 5.67464 9.32117 5.81164 9.05817M5.19764 9.86917C5.39364 9.63117 5.53864 9.37817 5.83464 9.07117M10.1056 3.52117C10.4656 3.06417 10.9936 2.55617 11.4456 1.93817M10.1086 3.58117C10.5156 3.09117 10.8316 2.61417 11.3476 1.99417M1.69364 17.3462C2.81564 15.4462 3.99264 13.9732 5.25664 12.3822M1.61764 17.1632C2.54464 15.6642 3.79764 14.3352 5.15164 12.2592M6.57064 10.9672C6.67164 10.4792 7.11864 9.92517 8.39164 8.46317M6.47764 10.8972C6.96764 10.1472 7.57164 9.35617 8.23564 8.44617M2.77964 17.9942C3.70664 16.9282 4.38464 15.9642 5.22864 15.0862M2.78064 18.1792C3.56064 17.0252 4.35564 16.0492 5.29264 14.9802M8.18164 11.0342C9.00864 10.2042 9.35664 9.66217 10.0126 8.54917M8.32964 11.0162C8.65764 10.4812 9.20064 9.87317 10.0996 8.69417M10.2396 11.1382C10.7976 10.4392 11.2936 9.77917 12.0116 8.77117M10.1436 11.1532C10.5226 10.7212 10.9356 10.1822 12.0236 8.91917" stroke="white" stroke-linecap="round" stroke-linejoin="round"/>
<path d="M3.995 1.31396C3.827 7.38596 4.716 13.635 4.458 16.746M4.266 17.19C3.611 17.331 2.702 17.292 1.704 17.172M2.105 17.635C0.865 12.007 1.204 6.39996 1 1.46596M1.545 1.57696C2.412 1.57596 3.316 1.69696 4.243 1.62896M10.766 8.32196C10.686 9.27096 10.726 10.078 10.649 10.507M10.853 10.62C9.397 10.573 7.308 10.808 3.567 10.636M3.676 10.469C3.592 9.92597 3.561 9.35196 3.591 8.44596M3.364 8.31296C5.872 8.43696 7.367 8.66096 10.484 8.70996M11.657 1.54896C11.603 1.94396 11.574 2.58897 11.549 3.69297M11.736 3.66096C9.842 3.59596 7.378 3.93596 3.908 3.84896M3.757 3.66996C3.635 2.83296 3.641 2.02796 3.632 1.64196M3.595 1.39396C5.184 1.62996 7.276 1.41396 11.292 1.33796" stroke="white" stroke-linecap="round" stroke-linejoin="round"/>
<path d="M14.5684 9.42834C15.5784 8.10334 16.5404 6.95334 17.3874 5.29834ZM14.5684 9.42834C15.5604 7.95934 16.3604 6.69834 17.3874 5.29834ZM13.3184 14.6283C13.8714 13.7733 14.2114 13.1113 15.0094 12.1503ZM13.3184 14.6283C13.7774 13.9253 14.2364 13.3223 15.0094 12.1503ZM17.8274 8.02034C18.0814 7.62734 18.3234 7.34334 18.9554 6.36834ZM17.8274 8.02034C18.0674 7.70134 18.2854 7.27734 18.9554 6.36834ZM14.3224 16.5243C14.8614 15.6513 15.2734 14.8073 16.0134 14.0473ZM14.3224 16.5243C14.9474 15.6033 15.7024 14.5383 16.0134 14.0473ZM17.1414 12.3953C17.2654 12.1533 17.4724 11.9093 17.7044 11.5693ZM17.1414 12.3953C17.3204 12.1283 17.4724 11.8893 17.7044 11.5693ZM19.9594 8.26534C20.1194 7.94634 20.2984 7.68134 20.5234 7.43934ZM19.9594 8.26534C20.0744 8.09234 20.2074 7.89434 20.5234 7.43934ZM15.8904 17.5953C16.4484 16.7493 17.0104 15.9913 17.5814 15.1173ZM15.8904 17.5953C16.5954 16.6223 17.2054 15.7173 17.5814 15.1173ZM20.9644 10.1613C21.3104 9.46834 21.6564 9.01934 22.6554 7.68334ZM20.9644 10.1613C21.5894 9.35734 22.1124 8.49634 22.6554 7.68334ZM18.0224 17.8393C18.3034 17.2763 18.8084 16.6703 19.7134 15.3613ZM18.0224 17.8393C18.4714 17.2223 18.7554 16.7183 19.7134 15.3613ZM20.8414 13.7093C21.5984 12.8603 22.1504 11.8523 23.0964 10.4053ZM20.8414 13.7093C21.7234 12.3363 22.6824 11.1513 23.0964 10.4053ZM20.7184 17.2573C21.3084 16.5923 21.7994 15.7733 22.9734 13.9533ZM20.7184 17.2573C21.2914 16.2183 22.0574 15.3613 22.9734 13.9533Z" stroke="white" stroke-linecap="round" stroke-linejoin="round"/>
<path d="M19.6997 14.8803C19.8727 12.9533 19.8987 10.9753 19.6997 9.33735M19.6997 14.8803C19.7847 12.6813 19.6467 10.4523 19.6997 9.33735M19.6997 14.8803C18.8627 15.7413 19.6227 14.9533 19.7957 16.1483M19.6997 14.8803C20.2737 14.1573 18.9167 16.1163 19.7957 16.1483M19.6997 9.33735C19.8287 8.60835 18.9157 8.37534 19.4737 8.26334M19.6997 9.33735C20.8237 8.86435 19.5097 8.64634 19.4737 8.26334M19.4737 8.26334C19.0357 7.87034 19.5267 7.69334 18.7867 7.56534M19.4737 8.26334C19.8767 7.30734 18.9627 8.04134 18.7867 7.56534M18.7867 7.56534C18.8347 8.06234 17.2897 7.18134 17.6477 7.31734M18.7867 7.56534C18.2017 7.65534 16.9967 6.94834 17.6477 7.31734M17.6477 7.31734C18.2047 7.03934 16.1377 6.85634 16.5517 7.53234M17.6477 7.31734C17.9827 6.22634 16.8997 7.85234 16.5517 7.53234M16.5517 7.53234C16.5967 7.92434 15.1207 8.33834 15.8327 8.11234M16.5517 7.53234C17.1157 8.40034 15.7817 8.59534 15.8327 8.11234M15.8327 8.11234C14.7777 7.36334 16.4827 8.75634 15.5747 8.94034M15.8327 8.11234C14.9617 8.61534 14.5017 9.65334 15.5747 8.94034M15.5747 8.94034C14.8017 8.84034 14.0837 8.95334 12.9967 8.94034M15.5747 8.94034C15.0187 8.97034 14.4827 8.89134 12.9967 8.94034M12.9967 8.94034C13.1037 7.52634 13.7117 7.48434 13.3297 7.60734M12.9967 8.94034C13.2747 7.59234 14.1867 7.88234 13.3297 7.60734M13.3297 7.60734C14.1327 7.75934 14.3737 6.95034 14.2957 6.45834M13.3297 7.60734C14.3527 6.79434 14.6097 7.58534 14.2957 6.45834M14.2957 6.45834C14.8817 6.21134 15.5807 4.95834 15.8107 5.66334M14.2957 6.45834C13.7117 6.10434 16.0107 4.97634 15.8107 5.66334M15.8107 5.66334C17.0527 5.51034 17.8817 4.81734 17.7877 5.37334M15.8107 5.66334C17.1947 6.01634 17.7827 4.61934 17.7877 5.37334M17.7877 5.37334C19.4707 5.70134 18.8477 5.31534 20.1077 5.81434M17.7877 5.37334C18.5207 4.74434 19.7947 6.16634 20.1077 5.81434M20.1077 5.81434C21.0397 6.69834 22.0547 6.96434 21.7077 7.14634M20.1077 5.81434C20.2577 5.44834 20.8597 7.36334 21.7077 7.14634M21.7077 7.14634C23.0937 7.46534 22.7557 8.71735 22.2987 9.35835M21.7077 7.14634C22.2817 7.84734 22.6687 9.48635 22.2987 9.35835M22.2987 9.35835C22.4297 10.9433 22.1107 12.3653 22.2987 14.5263M22.2987 9.35835C22.4077 11.0633 22.3717 12.9373 22.2987 14.5263M22.2987 14.5263C22.3327 14.1543 22.4277 14.8443 22.4067 15.9543M22.2987 14.5263C21.8517 14.0533 22.9157 15.9673 22.4067 15.9543M22.4067 15.9543C23.2907 16.2083 23.4307 17.0323 22.7397 17.0393M22.4067 15.9543C23.4197 16.9053 23.1927 16.4833 22.7397 17.0393M22.7397 17.0393C22.7377 17.0843 22.7407 17.1183 22.7397 17.2113M22.7397 17.0393C22.7367 17.0983 22.7387 17.1613 22.7397 17.2113M22.7397 17.2113C22.0427 17.2023 21.2827 17.2983 20.0857 17.2113M22.7397 17.2113C21.9797 17.1823 21.1357 17.2063 20.0857 17.2113M20.0857 17.2113C19.4117 16.1363 20.1157 16.8163 19.7957 16.1483M20.0857 17.2113C19.9007 17.5783 19.6047 16.8943 19.7957 16.1483M20.0757 10.1433C20.0517 10.5783 20.1167 11.1763 20.0967 11.7433M20.0757 10.1433C20.1037 10.5723 20.1227 10.8943 20.0967 11.7433M20.0757 10.1433C19.1637 10.1353 18.5677 10.0513 18.0447 10.1433M20.0757 10.1433C18.9497 10.1923 18.5247 10.1743 18.0447 10.1433M20.0967 11.7433C19.7347 11.8163 19.2587 11.6563 18.2387 11.7433M20.0967 11.7433C19.4767 11.7183 18.8217 11.7853 18.2387 11.7433M18.2387 11.7433C16.9397 11.7263 17.2237 11.2833 16.9707 11.8833M18.2387 11.7433C18.0117 11.3323 16.2877 12.6833 16.9707 11.8833M16.9707 11.8833C16.7337 12.9273 16.9337 11.1033 16.0577 12.2703M16.9707 11.8833C15.4807 11.4343 15.9677 11.5813 16.0577 12.2703M16.0577 12.2703C15.1077 13.1993 15.9047 12.7703 15.5097 12.8933M16.0577 12.2703C15.1737 11.9813 15.1007 12.6923 15.5097 12.8933M15.5097 12.8933C15.7887 13.0923 15.5087 14.0823 15.3277 13.7203M15.5097 12.8933C15.1427 13.4093 14.9827 13.2413 15.3277 13.7203M15.3277 13.7203C14.4987 13.4633 14.8027 13.6953 15.5417 14.5683M15.3277 13.7203C16.2317 12.9593 15.1467 14.9723 15.5417 14.5683M15.5417 14.5683C15.8067 13.9213 16.2967 14.9033 16.1647 15.1593M15.5417 14.5683C16.5177 14.0823 14.8757 14.0433 16.1647 15.1593M16.1647 15.1593C16.1337 15.8023 15.8847 14.5923 17.1747 15.3743M16.1647 15.1593C15.9517 15.4843 16.3027 15.0103 17.1747 15.3743M17.1747 15.3743C17.5287 16.3193 17.7357 16.1913 18.5607 15.0523M17.1747 15.3743C17.2417 16.1063 18.1037 14.6903 18.5607 15.0523M18.5607 15.0523C18.7677 15.6013 19.2717 13.6693 19.5057 14.2463M18.5607 15.0523C19.8317 14.5303 18.8887 13.6443 19.5057 14.2463M19.5057 14.2463C19.8977 13.8163 20.8247 14.0353 19.8717 13.3333M19.5057 14.2463C18.6447 13.1883 20.5677 13.9253 19.8717 13.3333M19.8717 13.3333C20.0647 13.6943 20.3887 13.9413 20.7087 14.4823M19.8717 13.3333C20.1147 13.6523 20.3887 14.0573 20.7087 14.4823M20.7087 14.4823C20.2587 14.1173 21.3477 14.4153 20.2687 15.4283M20.7087 14.4823C20.5017 13.9663 20.4167 14.7163 20.2687 15.4283M20.2687 15.4283C20.4417 14.9943 18.8897 16.4453 19.4527 16.3953M20.2687 15.4283C19.6737 14.9933 19.8367 16.8083 19.4527 16.3953M19.4527 16.3953C20.1107 17.5073 19.4117 17.9003 18.2597 17.1363M19.4527 16.3953C19.3007 15.9043 19.0347 18.0093 18.2597 17.1363M18.2597 17.1363C18.4777 18.1753 17.4557 17.1733 16.6697 17.4263M18.2597 17.1363C17.7927 16.1893 16.2517 17.8963 16.6697 17.4263M16.6697 17.4263C16.2167 17.3953 14.3267 17.4033 14.6397 16.9753M16.6697 17.4263C15.9297 18.3133 14.4717 17.7483 14.6397 16.9753M14.6397 16.9753C14.1777 16.1753 13.0747 15.7533 13.2437 15.7393M14.6397 16.9753C13.3107 15.6393 12.7307 15.6213 13.2437 15.7393M13.2437 15.7393C12.5757 15.8713 12.0907 14.1023 12.7387 13.9673M13.2437 15.7393C12.9307 15.4303 11.8257 14.6603 12.7387 13.9673M12.7387 13.9673C12.7477 12.4263 13.8207 13.0313 13.0827 12.3343M12.7387 13.9673C12.6637 13.5273 12.1737 13.0743 13.0827 12.3343M13.0827 12.3343C12.9217 11.0533 13.5697 12.2433 14.1137 11.1313M13.0827 12.3343C12.7307 12.2573 13.0157 11.5313 14.1137 11.1313M14.1137 11.1313C13.6347 11.6473 15.4327 11.3233 15.7897 10.4013M14.1137 11.1313C13.8647 10.0813 14.4907 10.9493 15.7897 10.4013M15.7897 10.4013C16.3187 11.1423 17.8607 9.95534 18.0447 10.1433M15.7897 10.4013C16.5747 10.4363 16.5907 9.91834 18.0447 10.1433" stroke="white" stroke-linecap="round" stroke-linejoin="round"/>
<path d="M24.6711 7.79875C25.4931 7.38575 25.8391 6.73975 27.0171 5.87975M24.6941 7.87475C25.4351 7.21975 25.9971 6.72475 26.9731 5.78475M27.3711 7.82075C28.0951 7.18675 28.9281 6.54075 29.5751 5.79375M27.3671 7.71775C28.2001 7.12375 28.8451 6.34375 29.6081 5.66875M30.1791 7.68675C30.6101 7.18075 31.1151 6.54375 32.3231 5.46875M30.0241 7.68275C30.6721 7.07875 31.2001 6.45575 32.2271 5.65775M26.1801 13.5877C27.6661 12.2327 28.9521 11.3908 32.4221 7.40775M26.3391 13.5077C28.1971 11.8757 30.3411 9.74475 32.5941 7.69275M33.4491 6.87775C33.6141 6.73575 33.7951 6.53775 34.1091 6.15475M33.4221 6.84375C33.6971 6.58075 33.9531 6.36375 34.1541 6.16375M24.3301 17.7397C24.9401 17.1697 25.2781 16.8427 25.9431 16.4377M24.3611 17.6877C24.8681 17.2727 25.3851 16.7568 25.8441 16.3498M25.7511 15.9307C28.1431 14.5637 30.4881 11.6497 34.5011 8.55175M25.8671 16.2708C28.6701 13.6398 31.0291 11.1557 34.6421 8.15475M26.1721 18.4198C26.8941 17.6808 27.4261 17.2688 28.4421 16.2838M26.3361 18.2297C27.1501 17.5517 27.9431 16.8887 28.5211 16.1847M28.8841 18.1388C29.4141 17.5548 30.1771 17.0617 31.0181 16.0597M28.9851 18.2218C29.6901 17.4298 30.4881 16.8377 31.2051 16.0767M31.4671 18.2278C32.4671 16.9978 33.6751 16.3078 34.5421 15.4708M31.6731 18.0888C32.4691 17.2238 33.3421 16.4698 34.4921 15.4028" stroke="white" stroke-linecap="round" stroke-linejoin="round"/>
<path d="M33.9175 15.1429C34.0385 15.9099 34.0145 16.5929 33.8955 17.3069M33.9115 17.5539C31.4835 17.2359 29.7055 17.6039 25.5415 16.8349M25.2355 17.2699C25.2605 16.4729 25.3435 15.4969 25.3105 15.0919M25.3275 15.2779C28.8285 15.3219 31.5295 15.5489 34.1925 15.1389M33.5035 6.93088C31.8305 10.2409 29.1565 12.1379 26.3085 17.0719M26.2865 17.2299C25.7155 17.1819 25.1705 17.1439 24.5315 17.2299M24.5405 17.1359C24.5675 16.7439 24.4875 16.1149 24.6255 15.5679M24.3125 15.6529C27.5895 11.2449 30.9815 8.22788 31.5525 5.37988M32.0745 5.64888C32.7355 5.50288 33.2635 5.56188 33.8005 5.66988M33.7975 5.64788C33.7425 6.07488 33.7205 6.52088 33.7905 7.22488M32.7435 5.56388C32.7575 6.10188 32.8475 6.45988 32.6605 7.65588M33.0785 7.30288C31.0855 7.55888 29.6475 7.59388 24.8665 7.28888M24.7325 7.71488C24.7275 7.11188 24.7515 6.65488 24.7485 5.64088M24.4365 5.50888C26.7785 5.51688 29.1115 5.78888 32.8875 5.47988" stroke="white" stroke-linecap="round" stroke-linejoin="round"/>
<path d="M38.4173 10.423C38.2613 10.636 38.0423 10.895 37.8453 11.243C38.0253 10.971 38.2493 10.666 38.4173 10.423ZM38.4173 10.423C38.8783 9.19999 39.9013 8.29299 41.2783 6.32299C40.0923 7.98099 39.2023 9.08599 38.4173 10.423ZM35.4023 11.978C37.2673 9.59699 38.7373 6.88699 39.9803 5.41699C39.0253 6.71899 37.3123 9.45599 35.4023 11.978ZM36.1283 13.703C36.5943 13.15 36.9623 12.653 37.2723 12.063C36.8023 12.792 36.4283 13.268 36.1283 13.703ZM36.8543 15.429C37.2853 14.903 37.7873 14.129 38.5703 12.969C37.7173 14.165 37.2483 14.809 36.8543 15.429ZM39.1433 12.149C39.3373 11.847 39.5573 11.596 39.7153 11.329C39.5063 11.598 39.3333 11.879 39.1433 12.149ZM42.0043 8.04799C42.3143 7.61399 42.6173 7.37199 43.1483 6.40799C42.4783 7.35299 42.2053 7.64599 42.0043 8.04799ZM38.1523 16.335C38.5253 15.82 38.7803 15.324 39.2963 14.695C38.7803 15.326 38.5253 15.863 38.1523 16.335ZM41.0133 12.235C41.1923 11.986 41.4343 11.699 41.5853 11.415C41.3443 11.804 41.1543 12.009 41.0133 12.235ZM43.3023 8.95399C43.5803 8.65899 43.9263 8.17499 44.4463 7.31399C43.8183 8.13799 43.5823 8.58199 43.3023 8.95399ZM39.4503 17.241C39.6663 16.854 39.9813 16.552 40.5943 15.601C39.9893 16.394 39.7873 16.798 39.4503 17.241ZM42.8833 12.32C43.6843 11.394 44.2843 10.211 45.1723 9.03999C44.4753 9.96599 43.6423 11.204 42.8833 12.32ZM41.3203 17.327C41.6883 16.694 42.1433 16.233 43.0373 14.866C42.4013 15.801 41.8853 16.554 41.3203 17.327ZM44.7543 12.406C45.0563 11.854 45.5103 11.305 45.8983 10.766C45.4773 11.415 45.1013 11.899 44.7543 12.406ZM44.3353 15.772C44.5183 15.49 44.7203 15.27 44.9073 14.952C44.7043 15.228 44.5153 15.505 44.3353 15.772Z" stroke="white" stroke-linecap="round" stroke-linejoin="round"/>
<path d="M41.0228 17.426C40.2048 17.081 39.6758 17.193 38.6918 17.007ZM38.6918 17.007C38.9478 17.47 38.0968 17.214 36.9298 15.815ZM36.9298 15.815C36.3198 14.713 35.2728 15.38 35.8238 14.021ZM35.8238 14.021C36.4738 14.27 34.6458 11.976 35.4368 11.797ZM35.4368 11.797C35.4178 11.697 35.4438 11.557 35.4368 11.367ZM35.4368 11.367C36.2028 10.46 35.4268 9.44202 35.8348 8.89702ZM35.8348 8.89702C36.7838 8.04402 36.2887 7.74602 36.9407 7.00602ZM36.9407 7.00602C38.3187 5.95902 38.0498 5.39302 38.6168 5.79202ZM38.6168 5.79202C38.5688 4.67302 40.3628 5.27602 40.7108 5.37302ZM40.7108 5.37302C42.4428 5.71202 42.9268 6.40702 42.8918 5.79202ZM42.8918 5.79202C43.2708 6.77102 44.3738 6.48702 44.4388 6.97402ZM44.4388 6.97402C45.0658 7.34302 44.4858 7.08202 45.3628 8.76802ZM45.3628 8.76802C45.5428 9.73702 45.8848 11.162 45.6738 11.066ZM45.6738 11.066C45.6988 11.505 45.6338 11.926 45.6738 12.173ZM45.6738 12.173C43.6258 11.965 40.3768 11.808 36.6938 12.173ZM36.6938 12.173C36.6648 11.725 36.7198 11.147 36.6938 10.315ZM36.6938 10.315C38.9428 10.03 40.7998 10.076 43.1178 10.315ZM43.1178 10.315C43.1158 10.257 43.1168 10.183 43.1178 10.11ZM43.1178 10.11C43.1838 10.038 42.7228 9.70002 42.8378 8.80002ZM42.8378 8.80002C42.7118 8.40102 43.4088 8.51602 42.0758 7.81202ZM42.0758 7.81202C41.4278 8.30702 40.7238 7.72102 40.7008 7.43602ZM40.7008 7.43602C40.7488 7.47702 40.8488 6.72102 39.5508 7.71502ZM39.5508 7.71502C39.3208 7.09202 39.9128 8.47302 38.7238 8.49902ZM38.7238 8.49902C38.5208 9.34202 38.3018 8.29902 38.2078 9.74502ZM38.2078 9.74502C37.8128 10.343 38.6138 11.556 38.0368 11.367ZM38.0368 11.367C38.0488 11.444 38.0558 11.562 38.0368 11.797ZM38.0368 11.797C37.2268 13.157 38.6228 12.925 38.2408 13.215ZM38.2408 13.215C38.5198 14.622 39.1868 13.314 38.8638 14.343ZM38.8638 14.343C38.3568 15.047 39.1948 15.546 39.8518 15.106ZM39.8518 15.106C40.2928 14.997 41.3278 15.881 41.1728 15.374ZM41.1728 15.374C42.6028 14.691 43.2928 14.535 42.8378 14.998ZM42.8378 14.998C43.5918 15.651 44.4048 13.413 44.1058 13.935ZM44.1058 13.935C44.4328 14.14 44.6908 14.461 45.4698 15.256ZM45.4698 15.256C44.6208 15.588 45.0878 15.622 44.4928 16.309ZM44.4928 16.309C44.7688 15.998 43.5168 17.085 43.0208 17.114ZM43.0208 17.114C42.5188 16.383 41.8488 17.933 41.0228 17.426Z" stroke="white" stroke-linecap="round" stroke-linejoin="round"/>
<path d="M47.9241 8.17688C48.5711 7.48288 49.1621 6.51288 49.7391 5.78688ZM47.9241 8.17688C48.5351 7.40788 49.1721 6.57188 49.7391 5.78688ZM47.4961 11.6189C48.8501 10.0219 49.7381 8.82388 50.5201 7.63688ZM47.4961 11.6189C48.5501 10.2769 49.5791 8.80888 50.5201 7.63688ZM47.6731 14.2649C48.4921 13.1359 49.5901 11.8319 50.0931 11.0789ZM47.6731 14.2649C48.4321 13.2619 49.1831 12.2619 50.0931 11.0789ZM51.9071 8.68988C52.5231 7.96288 52.8401 7.48388 54.3261 5.50488ZM51.9071 8.68988C52.6131 7.80388 53.4111 6.85388 54.3261 5.50488ZM47.8501 16.9109C48.2461 16.3019 48.8931 15.6159 50.2701 13.7249ZM47.8501 16.9109C48.4551 16.0209 48.9781 15.3949 50.2701 13.7249ZM49.2371 17.9639C49.6611 17.5589 49.9331 17.0969 50.4471 16.3709ZM49.2371 17.9639C49.5121 17.5389 49.8371 17.1519 50.4471 16.3709Z" stroke="white" stroke-linecap="round" stroke-linejoin="round"/>
<path d="M50.2917 7.80108C50.0767 10.7351 50.4757 14.1511 50.2917 17.2111ZM50.2917 17.2111C49.7457 17.1101 49.3197 17.2831 47.7037 17.2111ZM47.7037 17.2111C47.8267 13.5961 47.1137 9.67008 47.7037 5.58808ZM47.7037 5.58808C48.1857 5.47008 48.8167 5.57708 50.1737 5.58808ZM50.1737 5.58808C50.1437 6.11908 50.1167 6.60908 50.2917 7.80108ZM53.8477 5.51308C53.9037 6.16708 53.7957 7.03808 53.8267 7.91908ZM53.8267 7.91908C53.1037 8.58008 52.6017 7.05708 53.3107 7.85508ZM53.3107 7.85508C52.3097 7.38808 52.4487 8.08908 52.7737 7.83308ZM52.7737 7.83308C52.9007 7.96608 51.1657 7.62008 51.6027 8.02608ZM51.6027 8.02608C50.5287 8.78608 51.2317 9.06708 50.7537 8.56408ZM50.7537 8.56408C49.6397 7.83808 49.6227 10.0361 50.2387 9.40108ZM50.2387 9.40108C50.3177 9.40008 49.4287 9.42008 50.0237 10.5081ZM50.0237 10.5081C49.8387 10.5201 49.6077 10.5301 49.4327 10.5511ZM49.4327 10.5511C49.9867 9.82208 49.5877 8.97308 49.6477 8.52108ZM49.6477 8.52108C48.8817 7.32008 49.3707 6.62508 50.2917 6.87708ZM50.2917 6.87708C51.1107 7.18408 50.9297 5.93308 51.3877 5.77108ZM51.3877 5.77108C52.6797 4.60408 52.0757 6.21608 52.9237 5.37308ZM52.9237 5.37308C53.4517 4.67808 53.4797 5.22708 53.4287 5.41608ZM53.4287 5.41608C54.1137 5.33708 54.7387 4.67408 53.8477 5.51308Z" stroke="white" stroke-linecap="round" stroke-linejoin="round"/>
<path d="M61.4564 3.99746C62.1554 3.42046 62.6164 2.62646 63.3444 1.77246M61.3784 4.18846C62.1164 3.35146 62.7684 2.56446 63.3244 1.77446M60.8574 7.54146C61.8594 6.10046 63.0414 4.83646 65.1714 2.05546M60.8894 7.56346C62.5604 5.64046 63.9294 3.73246 65.2614 2.33946M61.3244 10.4575C62.3404 8.87346 63.8424 6.96146 65.0994 5.50246M60.8794 10.3815C61.9434 8.93246 62.9834 7.70546 64.9614 5.51246M60.9214 12.6565C62.3134 11.0875 64.1794 9.63046 65.1974 8.19146M61.1734 13.0545C62.0484 11.7835 63.0544 10.6695 64.8314 8.38046M61.1104 15.5545C62.4414 14.1065 63.4544 13.1255 64.9634 11.1945M61.3294 15.5815C62.4654 13.9995 63.5794 12.6105 65.0214 11.0845M62.0164 17.5855C62.6464 16.9325 63.1204 16.0555 63.9804 15.3165M62.0294 17.5685C62.7664 16.6535 63.4244 15.8325 63.9014 15.2225M63.8994 15.1655C64.1804 14.7795 64.5554 14.5855 65.2254 13.5965M63.9184 15.2125C64.3324 14.6275 64.8464 14.1415 65.1974 13.6595M64.1704 17.7525C64.7554 17.1085 65.2164 16.4275 66.0094 15.5585M64.0094 17.9425C64.6054 17.2575 65.1004 16.6365 65.9904 15.6065M66.1604 18.2105C66.6404 17.6195 67.1954 16.7085 68.4094 15.2905M66.1364 18.2815C66.7654 17.3665 67.4894 16.6215 68.6654 15.1625M68.5884 17.9105C69.2824 16.9915 69.7814 16.5485 70.6484 15.4705M68.7264 17.8225C69.3774 17.1115 69.8564 16.3305 70.6174 15.4015" stroke="white" stroke-linecap="round" stroke-linejoin="round"/>
<path d="M71.0223 15.0702C70.9023 15.8362 70.9103 16.7502 71.0743 17.2632M70.9843 15.0682C70.9893 15.9472 71.0033 16.7262 71.0073 17.1952M70.9113 17.0712C68.7103 17.3852 66.9773 17.4822 63.3903 17.5632M71.0623 17.2072C69.2053 17.1092 67.5993 17.3732 63.3043 17.2352M63.2443 17.1432C63.2593 16.7072 63.1163 16.1692 63.2283 15.0182M63.1773 17.1892C63.1193 16.5232 63.0983 15.8402 63.1933 15.0782M63.3373 15.4572C65.3323 14.6922 66.8573 15.2062 70.8533 15.4502M63.2633 14.8822C65.4803 15.1812 67.5073 14.8602 71.1313 14.9272M63.4843 2.07523C63.2943 6.39623 63.3824 12.4162 64.3774 17.0552M63.7713 1.61423C63.8963 5.13523 64.0943 8.14323 63.7303 17.1432M63.8023 17.1542C63.2073 17.2522 62.7003 17.2342 61.0953 17.2122M63.9264 17.1902C63.1654 17.2152 62.4333 17.2252 61.1533 17.1942M60.5433 17.6242C60.5173 12.6392 60.7063 8.37323 61.2353 2.16023M61.3923 16.8682C61.0093 13.4902 60.8013 9.97323 61.2933 1.24023M61.2863 1.50823C62.2503 1.61423 63.1513 1.61223 63.9973 1.50223M61.2293 1.54923C61.9053 1.51623 62.7573 1.54923 63.9533 1.50423" stroke="white" stroke-linecap="round" stroke-linejoin="round"/>
<path d="M77.2465 8.46073C76.0035 9.75373 74.3935 11.1917 73.0775 12.7757C74.7715 11.0377 76.3055 9.60173 77.2465 8.46073ZM77.2465 8.46073C77.9735 7.78273 78.5305 7.17373 79.3305 6.30273C78.4985 7.04873 77.9325 7.78473 77.2465 8.46073ZM72.5215 10.8477C73.8305 9.06073 76.0645 7.52373 78.0795 5.09473C74.8765 8.48373 73.5555 9.49273 72.5215 10.8477ZM73.6335 14.7037C74.0725 14.3077 74.3425 13.9197 75.7185 12.5457C74.7595 13.5567 74.2085 14.0777 73.6335 14.7037ZM79.8865 8.23073C80.2665 7.76173 80.9065 7.28373 81.2765 6.79173C80.6765 7.45173 80.2535 7.78373 79.8865 8.23073ZM74.1895 16.6307C75.1035 15.2907 76.4795 14.3237 76.9695 13.7537C75.5615 15.3167 74.9585 16.0207 74.1895 16.6307ZM80.4435 10.1577C81.1415 9.48673 81.9235 8.66673 82.5275 8.00073C81.9145 8.66673 81.2285 9.46873 80.4435 10.1577ZM76.1355 17.1207C76.5425 16.7137 76.9935 16.1157 77.5255 15.6817C76.9975 16.2287 76.5935 16.7037 76.1355 17.1207ZM80.3045 12.8047C81.1345 11.8637 82.1055 10.7847 83.0835 9.92873C81.9535 10.9727 81.1415 11.8117 80.3045 12.8047ZM78.0815 17.6097C80.6375 15.4527 82.5815 12.9587 83.6395 11.8557C80.6675 14.9407 79.5855 16.3337 78.0815 17.6097Z" stroke="white" stroke-linecap="round" stroke-linejoin="round"/>
<path d="M72.3346 11.528C72.3436 11.463 72.3406 11.383 72.3346 11.281ZM72.3346 11.281C71.5516 10.624 72.8846 9.17896 72.7006 8.94996ZM72.7006 8.94996C73.6216 8.98496 73.2656 8.53996 73.7526 7.06996ZM73.7526 7.06996C74.7006 5.99396 73.8436 6.74296 75.4506 5.82396ZM75.4506 5.82396C75.3846 5.92396 76.0556 4.64896 77.7276 5.37296ZM77.7276 5.37296C78.6366 4.93496 79.2406 6.32396 80.0046 5.82396ZM80.0046 5.82396C80.4606 6.13696 81.9206 6.66796 81.7126 7.06996ZM81.7126 7.06996C81.9526 6.65996 81.7456 7.75796 82.7766 8.94996ZM82.7766 8.94996C83.4976 8.91996 83.0126 10.512 83.1416 11.281ZM83.1416 11.281C83.1486 11.339 83.1326 11.409 83.1416 11.528ZM83.1416 11.528C84.1416 12.669 83.4436 13.714 82.7766 13.859ZM82.7766 13.859C82.7136 15.519 82.9196 15.087 81.7126 15.739ZM81.7126 15.739C80.7206 16.892 81.3366 16.896 80.0156 16.985ZM80.0156 16.985C79.4726 16.974 78.4986 17.388 77.7496 17.426ZM77.7496 17.426C77.8746 17.731 76.8006 17.086 75.4606 16.985ZM75.4606 16.985C75.5596 16.272 74.5046 17.179 73.7636 15.739ZM73.7636 15.739C72.3336 15.199 73.4526 13.77 72.7006 13.859ZM72.7006 13.859C73.2076 13.119 72.7726 12.266 72.3346 11.528ZM74.9236 11.281C74.9316 11.365 74.9136 11.446 74.9236 11.528ZM74.9236 11.528C75.1886 11.495 75.8536 11.657 75.0846 13.011ZM75.0846 13.011C74.4146 12.726 76.1426 14.46 75.5896 14.235ZM75.5896 14.235C75.8916 14.106 75.6416 15.171 76.4706 15.063ZM76.4706 15.063C77.4296 15.021 76.3406 14.632 77.7496 15.363ZM77.7496 15.363C77.9396 14.613 77.7556 15.818 78.9956 15.063ZM78.9956 15.063C79.5016 15.12 80.3536 14.567 79.8756 14.235ZM79.8756 14.235C79.6026 14.182 79.4396 12.998 80.3806 13.011ZM80.3806 13.011C80.5256 12.028 81.2346 12.153 80.5526 11.528ZM80.5526 11.528C80.5456 11.454 80.5606 11.414 80.5526 11.281ZM80.5526 11.281C81.4676 10.202 80.5096 9.67896 80.3806 9.81996ZM80.3806 9.81996C79.3036 9.38196 80.7556 9.76296 79.8656 8.58496ZM79.8656 8.58496C80.1376 7.26096 78.9566 7.63296 78.9846 7.74696ZM78.9846 7.74696C77.7056 8.07196 78.7646 6.53796 77.7276 7.43596ZM77.7276 7.43596C76.4826 7.35296 75.8356 8.20996 76.4596 7.74696ZM76.4596 7.74696C75.8806 8.78996 76.3916 7.89696 75.5896 8.58496ZM75.5896 8.58496C76.0466 9.07496 74.7726 8.44096 75.0846 9.81996ZM75.0846 9.81996C74.4266 10.496 74.1856 11.418 74.9236 11.281Z" stroke="white" stroke-linecap="round" stroke-linejoin="round"/>
<path d="M94.227 11.7498C93.976 12.0928 93.753 12.3258 93.604 12.5328C93.857 12.2458 94.095 11.8968 94.227 11.7498ZM94.227 11.7498C94.846 10.8848 95.516 10.0088 96.096 9.40278C95.208 10.5628 94.667 11.0828 94.227 11.7498ZM84.668 11.8088C86.617 10.0028 87.483 7.48378 89.651 5.55078C87.866 7.87078 86.367 10.1098 84.668 11.8088ZM85.501 13.7498C86.21 12.8108 86.987 11.8008 87.369 11.4028C86.644 12.4378 85.983 13.0288 85.501 13.7498ZM89.861 8.27378C90.401 7.65978 90.763 7.11978 91.107 6.70878C90.853 7.07078 90.318 7.63978 89.861 8.27378ZM86.334 15.6918C86.777 14.9908 87.374 14.4018 88.202 13.3438C87.079 14.7308 86.697 15.2298 86.334 15.6918ZM91.939 8.64978C92.201 8.26378 92.67 7.80778 93.185 7.08578C92.858 7.44678 92.371 8.02978 91.939 8.64978ZM87.789 16.8498C88.161 16.3268 88.505 15.8648 89.035 15.2858C88.67 15.7058 88.231 16.2608 87.789 16.8498ZM94.017 9.02678C94.578 8.18178 95.291 7.24078 95.886 6.67978C95.303 7.43578 94.659 8.26578 94.017 9.02678ZM86.753 21.1378C87.145 20.7808 87.438 20.3078 87.999 19.5738C87.442 20.2888 87.063 20.6758 86.753 21.1378ZM89.867 17.2268C90.954 15.9688 91.987 14.7028 92.359 14.0968C91.779 14.7618 90.841 15.8858 89.867 17.2268ZM88.832 21.5148C89.095 21.0068 89.53 20.5588 90.077 19.9498C89.68 20.4748 89.222 21.0108 88.832 21.5148ZM93.191 16.0378C93.74 15.2778 94.375 14.5938 95.683 12.9088C94.397 14.6278 93.823 15.3138 93.191 16.0378ZM90.91 21.8908C92.394 19.9088 94.334 17.1978 95.893 15.6318C93.969 18.2798 92.525 19.8918 90.91 21.8908Z" stroke="white" stroke-linecap="round" stroke-linejoin="round"/>
<path d="M92.7555 5.58768C93.5825 5.64268 94.6175 5.58368 95.1085 5.58768ZM95.1085 5.58768C94.8475 9.60268 95.3875 13.6847 95.1085 16.8887ZM95.1085 16.8887C96.0225 17.6547 94.6065 19.2777 94.4425 19.5527ZM94.4425 19.5527C94.8655 20.4157 94.1145 21.1767 92.5835 21.2177ZM92.5835 21.2177C91.6425 21.4957 90.7035 21.3747 89.8235 21.7977ZM89.8235 21.7977C89.8945 22.7147 88.1725 22.4587 88.3405 21.6047ZM88.3405 21.6047C87.1915 21.5447 88.0025 21.1247 86.7725 20.9807ZM86.7725 20.9807C85.9805 19.9727 86.2365 20.9507 85.5155 19.8747ZM85.5155 19.8747C85.8965 19.5857 86.1465 19.1617 86.7295 18.3497ZM86.7295 18.3497C86.8255 18.7157 87.4575 19.1907 88.1045 19.4347ZM88.1045 19.4347C88.2925 19.7997 89.5985 19.9917 89.6835 19.7777ZM89.6835 19.7777C90.9705 19.8927 90.7345 18.7027 91.1985 19.4447ZM91.1985 19.4447C91.2785 19.4737 91.6835 18.8417 92.1755 18.4887ZM92.1755 18.4887C92.6815 17.9767 92.6315 17.1847 92.5195 16.9417ZM92.5195 16.9417C92.3415 14.9497 92.9025 12.6817 92.5195 8.21968ZM92.5195 8.21968C92.6025 7.34668 92.6675 6.48768 92.7555 5.58768ZM84.8605 11.5277C84.8685 11.4347 84.8555 11.3527 84.8605 11.3027ZM84.8605 11.3027C84.6685 9.51068 84.2765 9.91468 85.1825 8.89668ZM85.1825 8.89668C86.2025 7.63468 85.5095 8.17868 86.1065 7.01668ZM86.1065 7.01668C86.8955 5.94668 86.0945 5.10768 87.5675 5.80268ZM87.5675 5.80268C87.8965 5.12468 89.6555 6.31668 89.5115 5.37268ZM89.5115 5.37268C89.4085 5.09868 91.7725 5.38668 91.4345 5.78068ZM91.4345 5.78068C92.1915 5.49068 92.5035 6.44068 92.7775 6.95168ZM92.7775 6.95168C93.8135 8.17568 92.9635 8.85768 93.6155 8.75668ZM93.6155 8.75668C93.9995 8.92768 94.4065 10.2777 94.0775 11.0767ZM94.0775 11.0767C94.0495 11.3517 94.0645 11.6157 94.0775 11.7967ZM94.0775 11.7967C93.2605 11.7667 93.1035 12.5227 93.6045 14.0737ZM93.6045 14.0737C92.5305 14.1667 92.3745 16.3247 92.7235 15.8567ZM92.7235 15.8567C93.2785 15.6497 92.8665 16.7317 91.3705 17.0177ZM91.3705 17.0177C91.0105 17.4917 89.2415 17.6937 89.4905 17.4257ZM89.4905 17.4257C88.2745 17.9947 87.4195 17.4577 87.5675 16.9847ZM87.5675 16.9847C87.2415 16.0167 87.2175 15.3427 86.1065 15.7497ZM86.1065 15.7497C85.0835 14.4977 84.8675 14.3277 85.1825 13.8807ZM85.1825 13.8807C84.3875 13.4207 85.3215 11.4617 84.8605 11.5277ZM87.4495 11.3027C87.4605 11.3597 87.4515 11.3987 87.4495 11.5277ZM87.4495 11.5277C86.4855 12.5087 86.8305 11.5527 87.5995 13.0107ZM87.5995 13.0107C87.7095 14.3637 88.5325 13.0767 88.0835 14.2247ZM88.0835 14.2247C87.5495 14.8037 89.5535 15.1767 88.9205 15.0407ZM88.9205 15.0407C89.7615 15.3737 89.2885 16.2127 90.1345 15.3307ZM90.1345 15.3307C90.8545 15.4277 90.9245 14.4307 91.6275 14.9437ZM91.6275 14.9437C91.6595 14.1167 92.8815 15.1437 92.5305 13.9017ZM92.5305 13.9017C92.2675 13.3257 91.9775 11.9907 92.9815 12.4197ZM92.9815 12.4197C92.9525 11.7577 92.9225 10.8427 92.9815 10.4757ZM92.9815 10.4757C93.0955 10.2037 93.6605 9.63068 92.7125 9.29368ZM92.7125 9.29368C91.9345 8.23368 93.3325 9.05368 92.1865 8.33768ZM92.1865 8.33768C92.0895 8.19568 91.8135 8.59668 91.3485 7.69268ZM91.3485 7.69268C91.5485 7.91368 90.7495 8.10268 90.1565 7.45668ZM90.1565 7.45668C89.6155 6.58368 88.4015 6.84968 88.9425 7.75768ZM88.9425 7.75768C87.8115 8.89768 88.9485 7.63968 88.0935 8.58468ZM88.0935 8.58468C87.7915 9.44668 88.6155 9.90468 87.6105 9.80968ZM87.6105 9.80968C87.8975 9.90168 88.2295 11.5697 87.4495 11.3027Z" stroke="white" stroke-linecap="round" stroke-linejoin="round"/>
<path d="M99.1113 4.06816C99.4803 3.65416 99.7452 3.28616 100.395 2.53516ZM99.1113 4.06816C99.5333 3.54216 99.9422 3.06316 100.395 2.53516ZM99.5962 9.69216C100.478 8.72416 101.098 8.14716 102.165 6.62616ZM99.5962 9.69216C100.544 8.60716 101.393 7.63316 102.165 6.62616ZM99.1973 13.2712C100.103 12.4422 100.854 11.1302 101.766 10.2052ZM99.1973 13.2712C99.9173 12.2792 100.764 11.4032 101.766 10.2052ZM98.1562 17.6172C99.3372 16.3012 100.14 14.9542 102.008 13.0172ZM98.1562 17.6172C98.9833 16.6042 100.001 15.5562 102.008 13.0172Z" stroke="white" stroke-linecap="round" stroke-linejoin="round"/>
<path d="M100.566 5.58798C101.141 9.47298 100.642 14.103 100.566 17.211ZM100.566 17.211C99.9066 17.194 99.4996 17.232 97.9656 17.211ZM97.9656 17.211C98.0656 14.991 98.1836 12.591 97.9656 5.58798ZM97.9656 5.58798C98.8186 5.55598 99.8756 5.57998 100.566 5.58798ZM97.7936 2.53698C98.0886 2.66398 98.8736 1.37098 98.1806 1.55998ZM98.1806 1.55998C97.8326 1.19798 99.4175 0.755981 99.2765 1.16198ZM99.2765 1.16198C100.573 0.658981 100.994 1.76798 100.362 1.55998ZM100.362 1.55998C100.413 1.87298 101.008 2.74598 100.759 2.53698ZM100.759 2.53698C100.342 3.33498 101.259 3.00898 100.362 3.50398ZM100.362 3.50398C99.5596 4.41098 98.9535 3.43798 99.2765 3.89098ZM99.2765 3.89098C98.3935 4.28298 97.4716 3.39898 98.1806 3.50398ZM98.1806 3.50398C97.0816 3.75898 98.4516 3.57398 97.7936 2.53698Z" stroke="white" stroke-linecap="round" stroke-linejoin="round"/>
<path d="M107.839 8.47841C107.58 8.73241 107.376 8.92241 107.129 9.18241C107.33 8.99141 107.569 8.77341 107.839 8.47841ZM107.839 8.47841C108.644 7.78441 109.557 6.85741 109.969 6.36641C108.767 7.50941 108.267 7.95141 107.839 8.47841ZM103.271 8.13341C104.376 7.12841 105.125 6.13241 106.111 5.31641C104.769 6.80341 103.944 7.43941 103.271 8.13341ZM103.07 10.7704C103.995 9.99741 104.524 9.08041 105.2 8.65741C104.307 9.43341 103.707 10.0744 103.07 10.7704ZM105.91 7.95341C106.605 7.05641 107.644 6.39341 108.04 5.84141C106.876 7.05041 106.353 7.52441 105.91 7.95341ZM103.578 12.7034C103.921 12.4304 104.126 12.0974 104.999 11.2954C104.199 12.1314 103.897 12.4504 103.578 12.7034ZM103.377 15.3404C104.517 14.2394 105.355 13.3714 106.927 11.8204C106.221 12.5484 104.705 14.0304 103.377 15.3404ZM110.478 8.29941C110.767 7.90141 111.186 7.51041 111.898 6.89141C111.437 7.31841 110.968 7.83941 110.478 8.29941ZM103.886 17.2744C104.9 16.0084 106.138 14.7444 107.436 13.7534C106.009 15.4024 104.776 16.2754 103.886 17.2744ZM110.276 10.9364C110.822 10.4854 111.29 10.1844 112.407 8.82441C111.426 9.86141 110.854 10.3244 110.276 10.9364ZM110.785 12.8704C111.369 12.2674 112.361 11.3274 112.915 10.7574C112.495 11.2764 111.55 12.1154 110.785 12.8704ZM110.584 15.5074C111.07 14.9234 111.634 14.5934 112.714 13.3954C111.883 14.1434 111.185 14.8374 110.584 15.5074ZM111.092 17.4404C111.655 16.8264 112.508 16.1014 113.223 15.3284C112.39 16.1264 111.78 16.7724 111.092 17.4404Z" stroke="white" stroke-linecap="round" stroke-linejoin="round"/>
<path d="M105.969 8.06927C105.586 12.0553 106.215 15.4383 105.969 17.2113ZM105.969 17.2113C105.481 17.2593 104.928 17.2263 103.38 17.2113ZM103.38 17.2113C103.513 12.4733 102.838 9.08727 103.38 5.58827ZM103.38 5.58827C104.037 5.54127 104.663 5.55827 105.819 5.58827ZM105.819 5.58827C105.931 6.28027 105.897 6.72927 105.969 8.06927ZM105.507 10.9703C105.235 10.9373 104.9 10.9883 104.669 10.9593ZM104.669 10.9593C104.654 11.0133 105.035 9.16827 105.013 8.69227ZM105.013 8.69227C105.781 7.83127 106.352 6.41527 105.958 6.92027ZM105.958 6.92027C105.733 6.47827 107.42 6.15627 107.419 5.78127ZM107.419 5.78127C108.633 4.53827 108.96 6.01827 109.31 5.37327ZM109.31 5.37327C110.762 6.12327 109.422 4.74727 110.825 5.60927ZM110.825 5.60927C111.73 4.77627 111.26 6.42327 111.996 6.35127ZM111.996 6.35127C111.329 6.91527 113.162 6.67327 112.748 7.69327ZM112.748 7.69327C113.051 7.23927 112.829 9.59327 113.005 9.70227ZM113.005 9.70227C113.359 11.8573 113.32 14.4413 113.005 17.2113ZM113.005 17.2113C111.935 17.1823 111.119 17.2383 110.406 17.2113ZM110.406 17.2113C110.446 15.7753 110.47 14.2853 110.406 9.69127ZM110.406 9.69127C109.793 9.04227 109.861 7.78627 110.159 8.37027ZM110.159 8.37027C110.665 8.29127 110.01 8.42127 109.46 7.67227ZM109.46 7.67227C108.8 7.32527 108.987 8.13027 108.333 7.45727ZM108.333 7.45727C108.248 6.98827 108.158 7.55127 107.14 7.73627ZM107.14 7.73627C105.959 8.89827 106.933 8.25027 106.249 8.49927ZM106.249 8.49927C106.815 8.49627 105.06 8.66327 105.701 9.61627ZM105.701 9.61627C105.303 9.27927 104.783 11.1213 105.507 10.9703Z" stroke="white" stroke-linecap="round" stroke-linejoin="round"/>
</svg>
