<svg width="1920" height="1080" viewBox="0 0 1920 1080" fill="none" xmlns="http://www.w3.org/2000/svg">
<g clip-path="url(#clip0_13_1078)">
<rect width="1920" height="1080" fill="#00112F"/>
<g filter="url(#filter0_dii_13_1078)">
<path d="M1444.68 677.019C1415.16 663.88 1403.45 626.666 1418.82 594.832L1778.62 -150.248C1802.69 -200.076 1869.59 -198.843 1885.49 -148.278L2216.58 904.321C2232.48 954.886 2181.77 1005.1 2135.56 984.537L1444.68 677.019Z" fill="#03183A"/>
</g>
<g filter="url(#filter1_d_13_1078)">
<path d="M1058.67 842.646C1028.58 833.955 1016.05 797.063 1033.27 767.845L1690.2 -346.615C1712.14 -383.834 1763.53 -380.692 1776.9 -341.315L2267.83 1104.65C2281.2 1144.03 2244.86 1185.23 2206.53 1174.16L1649.97 1013.42L1058.67 842.646Z" fill="#021D49" fill-opacity="0.45" shape-rendering="crispEdges"/>
</g>
<path d="M-237.495 249.41C-251.835 211.482 -217.437 173.156 -178.185 183.326L50.1618 242.493C76.9021 249.422 88.7375 280.727 73.2692 303.613L-58.8207 499.049C-81.5265 532.644 -132.675 526.66 -147.015 488.733L-237.495 249.41Z" fill="#021D49"/>
</g>
<defs>
<filter id="filter0_dii_13_1078" x="1391.05" y="-223.92" width="870.514" height="1232.18" filterUnits="userSpaceOnUse" color-interpolation-filters="sRGB">
<feFlood flood-opacity="0" result="BackgroundImageFix"/>
<feColorMatrix in="SourceAlpha" type="matrix" values="0 0 0 0 0 0 0 0 0 0 0 0 0 0 0 0 0 0 127 0" result="hardAlpha"/>
<feOffset dx="-6" dy="4"/>
<feGaussianBlur stdDeviation="7.5"/>
<feComposite in2="hardAlpha" operator="out"/>
<feColorMatrix type="matrix" values="0 0 0 0 0 0 0 0 0 0 0 0 0 0 0 0 0 0 0.8 0"/>
<feBlend mode="normal" in2="BackgroundImageFix" result="effect1_dropShadow_13_1078"/>
<feBlend mode="normal" in="SourceGraphic" in2="effect1_dropShadow_13_1078" result="shape"/>
<feColorMatrix in="SourceAlpha" type="matrix" values="0 0 0 0 0 0 0 0 0 0 0 0 0 0 0 0 0 0 127 0" result="hardAlpha"/>
<feOffset dx="27" dy="-16"/>
<feGaussianBlur stdDeviation="15.5"/>
<feComposite in2="hardAlpha" operator="arithmetic" k2="-1" k3="1"/>
<feColorMatrix type="matrix" values="0 0 0 0 0.556863 0 0 0 0 0.662745 0 0 0 0 0.984314 0 0 0 0.09 0"/>
<feBlend mode="normal" in2="shape" result="effect2_innerShadow_13_1078"/>
<feColorMatrix in="SourceAlpha" type="matrix" values="0 0 0 0 0 0 0 0 0 0 0 0 0 0 0 0 0 0 127 0" result="hardAlpha"/>
<feOffset dx="60" dy="-37"/>
<feGaussianBlur stdDeviation="21"/>
<feComposite in2="hardAlpha" operator="arithmetic" k2="-1" k3="1"/>
<feColorMatrix type="matrix" values="0 0 0 0 0.556863 0 0 0 0 0.662745 0 0 0 0 0.984314 0 0 0 0.05 0"/>
<feBlend mode="normal" in2="effect2_innerShadow_13_1078" result="effect3_innerShadow_13_1078"/>
</filter>
<filter id="filter1_d_13_1078" x="1021.47" y="-372.776" width="1253.18" height="1556.76" filterUnits="userSpaceOnUse" color-interpolation-filters="sRGB">
<feFlood flood-opacity="0" result="BackgroundImageFix"/>
<feColorMatrix in="SourceAlpha" type="matrix" values="0 0 0 0 0 0 0 0 0 0 0 0 0 0 0 0 0 0 127 0" result="hardAlpha"/>
<feOffset dy="4"/>
<feGaussianBlur stdDeviation="2"/>
<feComposite in2="hardAlpha" operator="out"/>
<feColorMatrix type="matrix" values="0 0 0 0 0 0 0 0 0 0 0 0 0 0 0 0 0 0 0.25 0"/>
<feBlend mode="normal" in2="BackgroundImageFix" result="effect1_dropShadow_13_1078"/>
<feBlend mode="normal" in="SourceGraphic" in2="effect1_dropShadow_13_1078" result="shape"/>
</filter>
<clipPath id="clip0_13_1078">
<rect width="1920" height="1080" fill="white"/>
</clipPath>
</defs>
</svg>
